<svg xmlns="http://www.w3.org/2000/svg" viewBox="0 0 105.83333 70.114556" height="265" width="400" style=""><g fill="none" stroke="#000" stroke-width=".78607512"><path d="M10.374393 37.68338C33.641493 5.71157 21.407303 2.5325 21.407303 2.5325s19.589964 33.00684 8.421258 34.54835C18.659853 38.62236 7.2805633 26.73793 8.8734652 26.82544c1.5929018.0875 7.7396508 7.72614 7.1108118-2.42417" class="dfhaqFaO_0"></path><path d="M33.535247 37.19653c8.002503-15.43771 3.788004-24.64148 1.746593-21.71891-2.04141 2.92258.251494 27.67822.427702 22.27817-2.373883-11.17951 8.140713-4.9625.257776-3.52636 0 0-.257776 3.52636 4.015171 3.98101 3.016132 1.00136 2.063077-7.36352 3.867766-5.41715 1.804695 1.94637-1.999294 5.60776-1.15746 6.04985 2.846458 1.82768 6.163086-3.79568 4.727998-7.12916-1.435089-3.33347-4.36392 37.17657-5.232296 22.38504-1.109929-18.90611 5.60069-12.20506 9.071864-18.78752 3.471173-6.58246 1.223834-26.02785-.400712-19.72575-3.750613 14.54976-1.48736 33.2563 3.5444 17.21559 10.857165 1.71725 6.586451-9.11176 0 0 4.704519 14.6624 6.82414-3.87573 6.910882-1.8634-4.188113-.86782-1.981503 9.23722.350606 6.55052 2.332107-2.6867 1.569784-10.5353 3.450113-7.92505 2.160055 2.99857-2.514243 6.87693-1.163389 4.84003 1.350856-2.03691 1.363319-5.40081 3.56787-4.57599 2.204551.82482-1.485518 9.71714.441371 7.34717 2.892445-3.55753 9.236461.0236 10.968779-.98073 1.732319-1.00437-10.39065 3.73935-8.076334-2.5768 3.436913-3.64155 8.117234-5.24744 8.176299 2.29641-4.022015-31.76152 7.69123-33.05818-.09997.28039 3.049652-1.01996.09997-.28039.09997-.28039 4.872741-1.22767 3.366143-6.88087 4.122275-6.65665 14.26685 6.58499-2.954365 8.62766.05991 6.31465 2.822132 2.77195 7.329139-5.13902 12.895095-3.7557 6.884504 1.71103-2.956221 5.31329-37.464653 9.24503-23.763907 4.45606-49.3658846-5.95775-51.0517602-1.17734 3.6060292 3.06076 13.8050862 8.74818 28.1750712 6.4738 39.019306-3.7719 59.6138-10.23692 58.765628-5.216 0 0-70.387189 8.3816-70.080287 12.42312 1.165452 4.44019 76.425715-13.67233 73.552918-3.94182-6.826651 7.23376-15.957211 8.13956-28.791192 6.64283-19.683371-7.15643-32.000198 1.04701-28.721485 6.09688 7.160733 2.86436 22.810979.6641 37.921153-1.76508 4.39724-.77 2.355829 2.15257-6.820118 2.66004-9.175946.50747-15.135834 1.45551-15.01481 2.51772.121023 1.06221 3.748801 2.80086 3.748801 2.80086" class="dfhaqFaO_1"></path></g><style>.dfhaqFaO_0{stroke-dasharray:116 118;stroke-dashoffset:117;animation:dfhaqFaO_draw_0 6700ms ease-in 0ms infinite,dfhaqFaO_fade 6700ms linear 0ms infinite;}.dfhaqFaO_1{stroke-dasharray:871 873;stroke-dashoffset:872;animation:dfhaqFaO_draw_1 6700ms ease-in 0ms infinite,dfhaqFaO_fade 6700ms linear 0ms infinite;}@keyframes dfhaqFaO_draw{100%{stroke-dashoffset:0;}}@keyframes dfhaqFaO_fade{0%{stroke-opacity:1;}94.02985074626866%{stroke-opacity:1;}100%{stroke-opacity:0;}}@keyframes dfhaqFaO_draw_0{11.940298507462686%{stroke-dashoffset: 117}16.354526658919756%{ stroke-dashoffset: 0;}100%{ stroke-dashoffset: 0;}}@keyframes dfhaqFaO_draw_1{16.354526658919756%{stroke-dashoffset: 872}49.25373134328358%{ stroke-dashoffset: 0;}100%{ stroke-dashoffset: 0;}}</style></svg>