<?xml version="1.0" standalone="no"?>
<!DOCTYPE svg PUBLIC "-//W3C//DTD SVG 20010904//EN"
 "http://www.w3.org/TR/2001/REC-SVG-20010904/DTD/svg10.dtd">
<svg version="1.0" xmlns="http://www.w3.org/2000/svg"
 width="510.000000pt" height="790.000000pt" viewBox="0 0 510.000000 790.000000"
 preserveAspectRatio="xMidYMid meet">
<metadata>
Created by potrace 1.15, written by Peter Selinger 2001-2017
</metadata>
<g transform="translate(0.000000,790.000000) scale(0.100000,-0.100000)"
fill="#000000" stroke="none">
<path d="M1587 7843 c-3 -5 -8 -24 -12 -43 -10 -49 -36 -90 -57 -90 -10 0 -18
-7 -18 -15 0 -17 -16 -20 -25 -5 -3 6 -1 10 4 10 18 0 12 20 -6 27 -10 4 -21
10 -24 15 -9 14 -35 -1 -48 -28 -15 -34 -15 -36 17 -33 15 2 33 0 40 -4 25
-16 11 -25 -38 -24 -27 0 -50 5 -50 10 0 5 -6 4 -14 -2 -11 -9 -14 -6 -14 16
0 16 7 41 15 57 8 15 10 26 5 22 -5 -3 -17 -22 -26 -41 -10 -20 -22 -33 -27
-29 -6 4 -9 -2 -7 -14 2 -12 -8 -30 -24 -46 -31 -28 -41 -69 -12 -45 15 12 16
11 11 -11 -4 -14 -4 -19 -1 -12 10 21 24 13 24 -12 0 -30 -47 -66 -85 -66 -47
0 -92 -28 -99 -61 -3 -16 -11 -29 -19 -29 -17 0 -87 -72 -87 -89 0 -7 -7 -29
-17 -48 -13 -28 -14 -36 -3 -43 16 -10 4 -30 -18 -30 -14 0 -14 -2 -3 -9 12
-8 12 -13 -3 -35 -9 -14 -20 -26 -24 -26 -13 0 -29 15 -34 30 -3 11 -8 9 -18
-10 -11 -21 -11 -26 9 -38 11 -8 21 -20 21 -27 0 -7 7 -18 15 -25 18 -15 20 1
3 19 -11 11 -8 12 15 7 27 -7 28 -5 22 22 -7 35 20 67 35 42 5 -8 5 -19 0 -26
-6 -6 -7 -14 -3 -17 3 -4 1 -7 -5 -7 -6 0 -16 -16 -22 -35 -6 -19 -16 -35 -21
-35 -5 0 -9 -4 -9 -10 0 -14 27 -12 33 3 3 7 6 4 6 -6 1 -10 -4 -28 -11 -40
-7 -12 -13 -35 -14 -52 -2 -16 -5 -44 -9 -62 -6 -34 11 -55 26 -32 6 9 7 3 3
-17 -3 -17 -2 -34 4 -38 6 -3 13 14 17 41 7 47 37 103 56 103 5 0 9 -7 9 -15
0 -8 9 -23 19 -32 11 -9 17 -22 14 -29 -3 -9 2 -14 13 -14 18 -1 18 -1 1 -11
-9 -5 -22 -7 -27 -4 -18 11 -49 -15 -58 -48 -6 -22 -17 -35 -36 -42 -37 -13
-55 1 -75 54 -18 49 -41 66 -39 29 1 -13 1 -42 0 -66 -2 -40 -3 -42 -27 -36
-18 4 -37 -1 -65 -20 -22 -14 -40 -30 -40 -36 0 -5 16 -21 35 -36 19 -14 32
-30 29 -36 -3 -5 -11 -2 -17 6 -7 8 -25 22 -42 30 -24 13 -30 22 -30 48 0 18
-4 33 -10 33 -5 0 -8 -6 -7 -14 2 -7 -2 -11 -10 -9 -7 3 -12 14 -10 24 2 18 2
18 -9 1 -8 -14 -8 -22 0 -30 16 -16 14 -32 -3 -18 -11 9 -15 8 -20 -4 -3 -8
-21 -25 -41 -36 -19 -12 -35 -28 -35 -35 0 -29 -31 -76 -46 -70 -9 4 -14 -1
-14 -15 0 -11 4 -18 9 -15 5 4 7 -3 4 -14 -3 -11 -10 -20 -15 -20 -6 0 -8 -9
-5 -20 3 -13 -5 -30 -24 -51 -29 -31 -42 -63 -14 -35 8 8 15 19 15 25 0 6 5
11 11 11 27 0 -1 -38 -46 -60 -77 -39 -84 -49 -52 -72 26 -19 28 -54 1 -44 -7
3 -16 -4 -19 -15 -5 -16 -10 -18 -21 -8 -11 9 -14 7 -14 -15 0 -19 -5 -26 -19
-26 -23 0 -40 -22 -23 -28 19 -6 14 -27 -13 -52 -37 -35 -32 -57 13 -51 16 2
15 -5 -4 -34 -9 -13 -13 -29 -9 -35 9 -14 -10 -36 -59 -72 -21 -15 -36 -28
-32 -28 14 0 71 35 79 48 4 6 12 12 17 12 22 0 7 -18 -52 -60 -79 -58 -90 -69
-81 -83 4 -7 8 -19 8 -27 0 -8 9 -16 21 -18 16 -2 20 -9 17 -26 -4 -16 2 -25
22 -34 21 -10 26 -10 22 0 -2 7 11 28 29 46 32 31 34 32 52 15 11 -11 13 -19
6 -21 -6 -2 -16 -14 -22 -27 -7 -15 -20 -25 -31 -25 -14 0 -19 -5 -15 -15 4
-8 13 -15 21 -15 19 0 -20 -49 -59 -76 -28 -19 -36 -34 -19 -34 5 0 16 7 25
15 8 8 18 15 23 15 4 0 17 14 28 30 30 44 49 40 42 -10 -3 -22 -1 -42 3 -45
13 -8 40 6 40 20 0 7 6 15 14 18 7 3 16 21 20 40 4 19 13 38 21 41 17 6 21 36
5 36 -5 0 -10 -5 -10 -12 0 -9 -3 -9 -12 0 -9 9 -15 7 -25 -6 -12 -15 -13 -14
-11 13 2 22 9 31 26 33 23 4 29 16 12 27 -6 4 -8 10 -5 15 3 5 1 18 -4 28 -8
15 -4 25 20 51 16 18 29 38 28 44 0 7 -5 3 -10 -8 -14 -27 -108 -85 -138 -85
-26 0 -24 4 31 65 16 16 28 40 28 51 0 12 6 27 14 33 17 14 50 3 37 -13 -4 -6
-5 -19 -2 -29 6 -15 9 -16 17 -5 19 26 44 88 35 88 -5 0 -11 -5 -13 -12 -2 -6
-10 -8 -17 -4 -7 5 -10 15 -7 23 9 22 -3 36 -20 22 -11 -9 -14 -9 -14 1 0 8
-9 11 -25 8 -21 -4 -23 -3 -14 13 5 11 14 19 19 19 13 0 13 47 0 55 -17 11
-11 24 18 39 27 14 28 13 27 -4 -1 -11 -4 -23 -8 -26 -4 -4 -7 -20 -7 -36 0
-25 3 -28 20 -23 12 4 20 2 20 -5 0 -6 -4 -8 -10 -5 -5 3 -10 1 -10 -5 0 -7 7
-10 15 -6 8 3 15 1 15 -4 0 -6 7 -10 15 -10 8 0 15 -7 15 -15 0 -18 1 -18 37
-3 15 6 31 11 36 10 4 -1 7 3 7 10 0 6 3 8 7 5 3 -4 17 3 30 15 12 12 26 19
29 16 3 -4 -6 -14 -20 -23 -28 -19 -37 -51 -11 -41 12 4 13 2 4 -12 -17 -27
-87 -64 -109 -57 -10 3 -21 2 -24 -3 -3 -6 4 -12 16 -15 21 -6 21 -7 5 -25 -9
-10 -17 -29 -17 -43 l1 -24 15 28 c17 32 21 33 46 10 21 -19 24 -3 6 27 -11
17 -10 22 2 30 8 5 23 7 34 4 10 -4 16 -2 13 3 -4 6 4 24 16 41 22 29 24 30
35 11 23 -36 42 -23 42 27 0 42 2 45 17 33 15 -13 16 -11 9 14 -4 18 -2 27 6
28 7 1 20 3 28 4 8 1 26 3 39 4 20 1 21 3 11 16 -13 16 -6 19 33 16 9 -1 17 4
17 11 0 8 3 9 8 3 4 -6 21 -17 37 -25 17 -8 32 -18 35 -21 3 -3 20 -14 37 -23
26 -13 32 -22 31 -44 -1 -15 -9 -33 -18 -39 -13 -11 -12 -13 8 -19 25 -7 29
-29 8 -41 -8 -4 -16 -12 -18 -18 -2 -5 -7 -9 -11 -7 -4 1 -3 -6 3 -17 5 -11
10 -29 10 -40 0 -29 14 -33 38 -11 12 11 27 20 34 20 8 0 22 6 33 14 12 8 28
10 40 6 17 -6 15 -10 -20 -25 -40 -18 -40 -18 -13 -24 21 -5 25 -9 18 -21 -5
-8 -10 -28 -10 -44 0 -16 -7 -34 -15 -40 -8 -6 -17 -22 -20 -35 -2 -13 -14
-35 -26 -48 -24 -25 -20 -29 12 -12 19 9 19 9 10 -10 -15 -27 -14 -36 2 -23
24 20 54 2 67 -39 l14 -40 17 36 c10 21 24 44 30 52 10 11 8 15 -10 20 -17 4
-19 8 -10 19 6 8 15 12 19 9 4 -2 17 7 28 20 23 26 69 36 56 13 -5 -10 -4 -10
7 0 11 10 11 17 2 31 -8 13 -9 29 -3 53 11 37 39 81 40 61 0 -22 47 -15 53 7
6 25 -8 26 -22 3 -7 -12 -10 -14 -11 -4 0 7 14 29 30 48 30 34 38 53 21 53 -5
0 -11 -9 -14 -20 -3 -11 -11 -20 -17 -20 -8 0 -9 7 -5 18 4 9 9 30 11 45 5 41
13 49 30 32 9 -8 23 -15 33 -15 17 0 59 -37 60 -52 1 -5 1 -11 1 -15 0 -5 5 0
11 10 13 23 29 22 29 -3 0 -11 -7 -20 -15 -20 -21 0 -19 -13 5 -28 16 -10 25
-10 43 -1 20 11 21 11 9 -4 -19 -23 -22 -76 -5 -118 10 -26 11 -43 3 -63 -13
-35 -13 -36 4 -36 8 0 22 10 30 22 16 22 16 22 16 -10 0 -17 5 -32 11 -32 5 0
7 -5 3 -11 -3 -6 -17 -8 -30 -5 -22 6 -24 4 -18 -18 3 -15 -1 -38 -10 -57 -9
-17 -13 -35 -10 -40 3 -5 -2 -9 -10 -9 -11 0 -16 -9 -15 -27 1 -18 3 -22 6
-10 6 23 27 17 31 -9 7 -34 19 -36 17 -2 -1 18 -4 38 -6 44 -6 16 38 74 64 83
14 5 26 3 34 -5 16 -16 17 -28 1 -18 -8 5 -9 2 -4 -11 4 -11 0 -25 -10 -36
-16 -18 -16 -19 0 -19 9 0 16 -6 15 -12 -4 -35 3 -40 16 -14 9 16 13 36 10 43
-2 8 0 11 5 8 6 -4 10 15 10 49 0 34 4 56 11 56 6 0 8 7 5 16 -6 16 13 61 47
107 26 35 32 34 43 -5 7 -23 16 -33 29 -33 13 0 20 -7 20 -19 0 -30 20 -29 34
1 12 26 13 27 26 9 8 -10 29 -35 47 -55 53 -57 68 -94 63 -162 -2 -34 1 -59 6
-59 6 0 8 4 5 9 -3 4 -1 23 4 41 7 24 6 38 -3 48 -10 13 -8 14 13 7 14 -4 33
-15 43 -23 18 -16 17 -18 -15 -45 l-33 -28 33 16 c41 20 59 14 74 -22 l11 -28
6 30 c6 25 11 29 31 27 56 -6 65 -22 66 -118 2 -264 5 -319 14 -354 8 -32 6
-67 -15 -182 -32 -183 -45 -240 -59 -257 -6 -8 -11 -49 -11 -93 0 -43 -3 -78
-7 -78 -9 0 -31 -60 -35 -97 -3 -32 14 -55 26 -34 4 6 8 -23 9 -65 2 -42 5
-80 7 -84 3 -4 -2 -11 -11 -14 -13 -5 -15 -14 -9 -39 19 -88 7 -166 -29 -196
-9 -8 -16 -24 -16 -36 0 -12 -8 -33 -19 -46 -19 -25 -49 -104 -57 -149 -14
-88 -15 -109 -6 -148 17 -75 -16 -145 -71 -148 -10 -1 -23 -6 -28 -11 -14 -14
-14 -64 2 -100 19 -47 3 -87 -37 -91 -20 -2 -38 3 -48 14 -16 15 -19 15 -41
-6 -17 -16 -32 -21 -54 -18 -24 4 -31 0 -35 -18 -3 -12 -3 -30 0 -38 4 -11 0
-16 -15 -16 -22 0 -41 -27 -34 -47 3 -7 0 -13 -6 -13 -6 0 -11 -9 -11 -20 0
-21 -15 -27 -25 -10 -3 6 -17 10 -30 10 -32 0 -40 29 -20 76 8 20 14 39 12 41
-2 1 -20 -15 -41 -37 -37 -40 -66 -52 -66 -26 0 9 -8 12 -24 9 -28 -6 -38 17
-24 56 10 27 3 40 -13 24 -17 -17 -15 -91 3 -156 24 -83 16 -99 -60 -112 -49
-9 -68 -9 -94 3 -61 25 -167 -4 -152 -43 6 -16 -54 -26 -79 -13 -13 6 -17 5
-17 -7 0 -27 -64 -45 -160 -47 -68 -1 -90 -5 -90 -15 0 -8 12 -13 33 -13 l32
0 -35 -22 c-19 -12 -60 -27 -90 -33 -47 -10 -55 -15 -55 -34 0 -24 -47 -77
-76 -86 -11 -4 -20 -12 -20 -18 -1 -7 -2 -16 -4 -22 -1 -5 -3 -15 -3 -21 -1
-7 -18 -15 -38 -19 -46 -8 -114 -44 -114 -59 0 -7 11 -23 26 -37 24 -22 24
-24 7 -37 -10 -7 -40 -25 -67 -39 -41 -21 -47 -27 -33 -35 28 -15 19 -31 -41
-70 -43 -28 -61 -34 -74 -27 -22 12 -24 -4 -3 -21 12 -10 9 -16 -21 -36 -19
-13 -36 -24 -38 -24 -8 0 -125 -81 -136 -95 -10 -12 -9 -15 6 -15 11 1 30 7
44 15 33 19 91 19 126 0 16 -8 40 -15 52 -15 22 0 23 -4 20 -42 -2 -33 0 -42
11 -40 8 2 18 -3 22 -9 6 -10 11 -10 23 0 14 12 16 10 16 -12 0 -31 34 -42 64
-21 44 31 64 18 90 -60 4 -11 12 -16 21 -12 8 3 17 1 21 -5 3 -6 11 -8 17 -6
17 5 37 -18 37 -45 0 -13 9 -38 20 -56 11 -18 20 -44 20 -59 0 -27 40 -103 72
-137 10 -11 18 -33 18 -48 0 -23 6 -31 30 -39 20 -7 33 -22 42 -45 6 -19 19
-34 28 -34 27 -1 155 -83 236 -153 28 -24 39 -27 74 -23 23 3 52 1 65 -4 13
-5 45 -11 72 -13 27 -3 63 -12 81 -21 17 -9 40 -16 52 -16 11 0 20 -5 20 -10
0 -6 11 -15 25 -22 19 -8 28 -8 40 2 12 10 18 10 33 -1 36 -28 101 -102 112
-129 7 -16 20 -32 30 -35 9 -3 25 -14 35 -25 10 -11 24 -20 32 -20 8 0 23 -8
34 -18 16 -16 19 -30 17 -89 -2 -55 1 -75 14 -89 9 -11 20 -32 23 -47 4 -15
20 -41 36 -57 16 -15 29 -33 29 -37 0 -15 45 -53 63 -53 9 0 22 -9 29 -20 7
-11 17 -20 21 -20 5 0 20 -9 35 -20 18 -15 27 -17 33 -9 4 7 29 13 56 14 26 1
60 7 74 13 27 11 63 18 141 29 27 3 55 14 64 24 10 11 23 19 31 19 15 0 133
114 133 128 0 5 9 17 19 26 17 15 27 16 76 7 77 -14 119 -40 123 -74 2 -16 11
-29 24 -33 31 -9 54 -37 71 -85 32 -90 42 -114 55 -127 6 -8 17 -23 23 -34 6
-11 17 -17 24 -14 7 2 19 -2 25 -10 7 -8 18 -14 25 -14 7 0 24 -13 37 -28 35
-42 38 -42 113 -21 38 10 80 19 92 19 59 0 127 23 157 54 17 18 51 40 76 50
25 10 56 28 70 40 14 13 37 31 52 41 30 18 38 38 13 29 -21 -8 -18 16 5 46 11
14 20 29 20 33 0 11 63 107 86 133 26 27 44 61 44 79 0 8 4 15 10 15 5 0 9 10
9 22 -1 29 29 111 44 120 6 4 12 19 13 35 1 15 3 32 3 36 1 5 10 5 21 2 11 -4
20 -2 20 4 0 6 -5 11 -11 11 -16 0 -3 109 15 130 7 8 14 35 15 60 0 25 6 47
11 48 6 2 10 9 10 17 0 7 7 18 15 25 11 9 13 16 5 24 -13 13 -13 71 2 99 6 12
14 29 19 37 4 8 12 14 18 13 6 -2 22 22 36 51 14 30 53 83 85 118 33 35 60 66
60 71 0 4 9 7 19 7 13 0 21 8 23 22 2 14 16 29 35 38 87 41 147 104 168 178 9
31 23 60 30 64 7 5 11 17 8 27 -3 11 4 33 16 50 12 16 21 32 21 36 0 3 25 35
56 70 55 62 57 63 80 48 13 -8 24 -14 25 -12 0 2 2 24 4 47 2 24 5 46 8 48 2
2 18 -1 36 -7 25 -9 38 -9 57 2 20 10 29 11 42 1 30 -21 43 -25 53 -15 13 13
-36 46 -67 46 -13 0 -29 6 -35 13 -7 9 -8 14 -1 14 6 0 13 -6 15 -12 3 -8 6
-6 6 5 1 14 11 17 64 17 35 0 68 -5 73 -10 11 -11 84 14 84 29 0 11 -34 41
-47 41 -11 0 -53 42 -53 53 0 4 7 7 15 7 8 0 15 4 15 9 0 10 -73 21 -136 21
-49 0 -52 4 -27 32 17 19 16 19 -11 12 -25 -6 -28 -5 -22 14 6 17 3 20 -16 15
-19 -5 -21 -3 -11 8 16 16 17 29 2 29 -6 0 -19 10 -28 21 -15 18 -21 20 -39
10 -27 -15 -38 3 -24 40 14 38 5 49 -44 49 -47 0 -80 14 -102 43 -7 9 -23 17
-35 17 -16 0 -26 9 -34 31 -7 18 -17 29 -25 26 -7 -2 -23 0 -35 4 -25 9 -53 2
-53 -12 0 -5 10 -9 22 -9 19 0 16 -4 -18 -35 -21 -19 -59 -42 -84 -51 -25 -10
-50 -21 -56 -26 -11 -8 -34 30 -34 56 0 23 -42 44 -69 34 -20 -7 -22 -6 -12 6
9 11 4 15 -29 20 -42 7 -61 29 -41 49 21 21 13 47 -15 47 -19 0 -25 4 -20 15
5 13 2 14 -15 4 -11 -6 -23 -8 -27 -5 -3 3 0 6 7 6 7 0 11 13 9 34 -1 26 4 39
22 54 l23 19 -25 6 c-24 6 -65 1 -149 -21 -33 -8 -37 -7 -55 19 -21 31 -57 44
-98 33 -20 -5 -26 -2 -26 10 0 12 -7 16 -27 14 -22 -2 -29 2 -31 20 -4 26 -19
28 -50 6 -25 -17 -42 -11 -42 16 0 27 -17 34 -36 16 -20 -21 -27 -20 -48 3
-10 11 -25 17 -33 14 -8 -3 -19 0 -23 7 -6 10 -13 9 -31 -4 -13 -9 -35 -16
-49 -15 -14 0 -19 3 -12 6 22 9 13 20 -13 15 -32 -6 -34 19 -3 48 24 22 54 27
60 9 2 -7 18 2 35 20 17 17 28 31 23 31 -5 0 -12 -5 -15 -10 -5 -8 -11 -7 -21
1 -10 9 -28 4 -80 -20 -83 -39 -89 -39 -33 -1 44 28 99 83 99 97 0 3 -10 -2
-22 -13 -13 -11 -32 -26 -42 -34 -18 -14 -18 -13 -9 5 6 11 16 32 22 48 6 15
18 27 28 27 15 0 16 2 3 10 -8 5 -15 15 -15 22 0 20 -61 12 -92 -11 -32 -26
-65 -28 -62 -3 4 25 -10 72 -21 72 -6 0 -6 -9 0 -25 7 -18 6 -25 -3 -25 -9 0
-9 -2 1 -8 12 -8 7 -42 -7 -42 -15 1 -42 30 -37 39 4 6 1 21 -5 33 -7 13 -16
41 -20 63 -4 22 -19 85 -33 140 -14 55 -26 108 -26 118 0 11 -8 21 -18 24 -16
4 -21 22 -30 111 -7 59 -14 141 -17 182 -5 79 -15 185 -21 235 -7 60 -26 291
-26 315 0 14 6 46 13 73 10 37 10 52 0 70 -14 26 -16 252 -4 427 6 85 5 120
-4 138 -7 13 -13 40 -13 59 0 29 3 34 18 31 15 -4 17 1 13 39 -2 28 3 52 13
68 9 13 16 30 16 36 0 7 13 33 30 58 16 26 31 64 34 85 6 46 94 224 118 237
12 7 20 4 27 -8 9 -15 10 -15 11 -2 0 8 -5 20 -11 26 -7 7 1 24 25 57 20 25
36 50 36 54 1 19 50 64 73 66 37 4 34 -16 -5 -35 -22 -10 -35 -26 -40 -48 -7
-26 -13 -31 -28 -26 -15 5 -20 2 -20 -13 0 -16 5 -19 23 -15 12 3 27 10 34 15
7 5 14 5 18 -2 3 -5 11 -10 16 -10 5 0 2 11 -7 24 -12 19 -13 29 -5 43 9 15
10 13 11 -13 0 -34 26 -66 38 -47 8 12 42 13 42 1 0 -5 8 -8 17 -6 11 2 19 -6
23 -22 6 -22 8 -23 15 -7 4 9 12 16 19 15 6 -2 21 7 34 20 23 23 42 22 42 -3
0 -19 -21 -30 -30 -15 -5 8 -9 7 -14 -5 -3 -9 -4 -21 0 -26 3 -5 0 -9 -5 -9
-6 0 -11 5 -11 10 0 13 -27 13 -32 -1 -2 -5 -11 -7 -21 -4 -9 4 -15 11 -12 15
6 9 -31 21 -39 12 -3 -3 -6 -15 -6 -28 0 -12 -7 -24 -15 -28 -8 -3 -15 -11
-15 -18 0 -17 36 -49 45 -40 4 4 18 7 31 7 22 1 24 -2 17 -25 -4 -14 -7 -54
-5 -90 2 -53 6 -68 25 -83 12 -10 16 -16 10 -12 -16 8 -16 -1 2 -50 l14 -40 1
48 c0 26 5 47 10 47 6 0 10 -5 10 -12 0 -9 3 -9 11 -1 8 8 6 17 -10 34 -11 13
-21 18 -21 11 0 -6 -7 -9 -15 -6 -21 9 -19 50 5 74 34 34 53 23 25 -14 -28
-37 -15 -37 20 0 19 20 32 40 30 44 -3 5 1 10 7 13 10 3 10 8 -1 18 -12 12
-13 12 -6 -1 8 -13 7 -13 -9 -1 -12 10 -14 16 -5 22 8 5 10 23 5 58 -5 36 -3
51 5 51 12 0 7 88 -8 125 -5 15 -3 16 15 6 28 -15 85 -15 76 1 -4 7 -3 8 4 4
6 -4 9 -13 5 -22 -3 -8 3 -21 13 -29 22 -17 58 -20 49 -5 -4 7 2 9 18 5 17 -5
26 -2 30 9 9 23 25 20 30 -6 l4 -23 8 23 c4 12 12 22 18 22 6 0 0 11 -13 25
l-23 25 22 0 c21 0 30 11 35 45 1 10 13 26 27 36 17 13 21 21 12 27 -8 5 -9
13 -3 22 8 13 10 12 10 -2 0 -10 6 -18 13 -18 20 0 82 -60 79 -76 -2 -8 2 -14
8 -14 5 0 9 -3 8 -7 -4 -14 13 -53 23 -53 11 0 11 -21 0 -39 -8 -12 -12 -12
-26 3 -10 9 -24 15 -32 12 -8 -3 -19 -6 -24 -6 -5 0 -9 -4 -9 -10 0 -5 7 -10
15 -10 8 0 15 -9 15 -20 0 -14 -6 -20 -17 -18 -11 2 -19 -5 -21 -16 -4 -19 -3
-19 21 -3 17 11 36 15 56 11 17 -4 31 -8 31 -10 0 -1 -5 -15 -10 -30 -14 -35
5 -90 25 -74 14 12 31 -4 36 -34 7 -33 23 -27 41 14 16 38 17 39 55 33 36 -5
37 -5 18 10 -11 9 -26 17 -32 17 -22 0 -14 20 7 20 11 0 20 -7 20 -16 0 -8 5
-12 10 -9 6 4 8 10 5 15 -6 9 29 50 41 50 4 0 4 -13 2 -30 -3 -16 -1 -30 4
-30 4 0 8 5 8 12 0 27 23 -12 25 -44 l3 -33 -19 24 c-11 13 -22 21 -26 18 -7
-8 24 -57 37 -57 6 0 10 -7 10 -16 0 -8 4 -12 10 -9 6 3 10 15 10 26 0 10 5
19 11 19 6 0 8 -7 5 -16 -3 -9 -6 -25 -6 -35 0 -11 -4 -17 -10 -14 -13 8 -13
4 5 -39 12 -27 21 -36 39 -36 20 0 25 6 30 38 4 20 2 51 -4 67 -9 28 -9 28 -8
-15 1 -69 0 -72 -20 -61 -14 8 -16 19 -12 73 4 45 9 62 18 60 16 -3 8 13 -22
45 -25 27 -38 29 -29 6 5 -14 0 -13 -19 5 -23 21 -25 27 -16 55 5 18 12 43 14
57 4 22 2 20 -14 -8 -16 -29 -20 -31 -31 -18 -16 18 -24 116 -11 136 7 12 12
12 29 -5 25 -22 40 -12 23 15 -9 16 -9 18 2 14 8 -3 21 -22 30 -42 l16 -37 -5
39 c-4 39 19 91 36 80 5 -3 9 4 9 15 0 11 -9 25 -20 31 -11 6 -20 16 -20 22 0
7 5 6 15 -2 12 -10 15 -9 15 4 0 13 6 16 23 11 l22 -6 -22 17 c-32 23 -29 51
7 69 32 17 32 40 0 30 -15 -5 -17 -2 -13 15 4 13 14 20 30 20 18 0 24 -4 20
-14 -9 -23 18 -39 53 -31 27 6 43 25 21 25 -5 0 -12 9 -16 19 -4 13 -19 21
-51 26 -28 4 -44 11 -41 18 6 18 47 20 66 3 15 -14 17 -12 16 29 0 34 -6 50
-28 73 -18 19 -25 32 -18 37 15 8 -7 30 -39 40 -14 4 -35 14 -48 21 -19 12
-30 13 -70 2 -62 -18 -99 -12 -118 18 -17 26 -49 32 -57 12 -3 -8 -7 -6 -12 7
-3 11 -11 28 -16 38 -7 12 -6 19 3 21 38 12 59 13 64 5 4 -6 11 -6 19 1 9 8
25 6 56 -5 24 -9 54 -19 66 -22 12 -3 28 -11 34 -19 13 -16 33 -19 24 -5 -3 6
4 15 15 21 17 9 19 14 9 26 -8 10 -8 14 0 14 6 0 11 7 11 15 0 8 -5 15 -10 15
-6 0 -15 11 -20 25 -13 35 -61 34 -93 -1 -28 -30 -43 -19 -32 24 4 15 7 43 6
63 -2 22 4 40 13 48 29 24 17 32 -14 10 l-29 -22 -37 41 c-24 28 -47 44 -71
48 -23 4 -37 13 -40 25 -3 11 -14 19 -24 19 -11 0 -19 7 -19 15 0 21 -27 19
-39 -2 -5 -10 -13 -15 -16 -11 -4 4 7 27 24 52 37 54 38 63 6 88 -14 11 -25
29 -25 40 0 27 -37 78 -57 78 -9 0 -40 13 -68 29 -45 25 -57 28 -95 21 -25 -5
-62 -6 -84 -4 -21 2 -57 -1 -80 -7 -35 -9 -91 -13 -133 -10 -7 1 -10 8 -7 16
4 8 1 15 -5 15 -6 0 -11 -3 -11 -7 0 -10 -51 -10 -66 0 -7 4 -14 -2 -18 -16
-6 -21 -7 -21 -20 -4 -7 9 -17 17 -21 17 -14 0 -34 34 -35 58 0 12 4 22 10 22
6 0 6 9 1 22 -5 13 -17 23 -27 23 -13 0 -18 6 -17 20 2 22 -24 76 -35 73 -11
-2 -57 19 -73 34 -35 32 -109 78 -127 78 -12 0 -23 9 -27 20 -6 20 -7 20 -35
-2 -16 -13 -29 -29 -29 -35 -1 -21 -25 -15 -69 17 -44 31 -66 37 -77 20 -4 -6
-10 -8 -14 -5 -5 2 -6 -7 -3 -22 4 -23 2 -25 -19 -20 -30 6 -98 -16 -80 -27 9
-6 8 -11 -6 -22 -24 -18 -33 -17 -33 1 0 8 -9 24 -20 35 -17 17 -30 20 -80 16
-33 -3 -62 -1 -64 3 -3 4 -33 4 -67 -1 -66 -9 -75 -6 -81 27 -2 11 -10 20 -18
20 -16 0 -40 19 -40 31 0 3 7 1 15 -6 20 -17 29 -7 16 18 -7 13 -30 25 -62 32
-49 12 -55 11 -96 -11 -23 -13 -43 -29 -43 -35 0 -34 -92 -38 -117 -5 -9 11
-12 12 -13 3 0 -7 -5 -10 -10 -7 -6 3 -7 17 -4 31 4 15 2 24 -6 24 -7 0 -10
-7 -6 -16 5 -14 4 -15 -8 -5 -11 10 -23 8 -57 -9 -34 -18 -46 -20 -66 -11 -13
6 -40 11 -59 11 -31 0 -35 3 -29 20 8 26 -4 47 -17 29 -6 -9 -7 1 -3 29 6 39
3 53 -8 35z m88 -238 c25 -25 51 -45 58 -44 6 1 26 1 42 0 l30 -1 -30 -16
c-16 -8 -37 -22 -45 -31 -14 -14 -12 -15 15 -8 17 5 48 9 70 10 31 1 41 6 43
21 2 14 17 23 55 33 29 8 62 14 74 15 11 0 19 4 17 8 -3 4 5 12 17 18 18 10
25 8 50 -16 15 -15 26 -31 23 -36 -3 -4 2 -11 11 -14 12 -5 13 -9 4 -20 -6 -8
-8 -15 -3 -15 5 -1 15 -2 23 -3 8 0 24 -16 34 -34 17 -28 18 -40 10 -82 -6
-27 -6 -47 -1 -44 4 3 8 11 8 19 0 11 14 14 60 12 33 -1 60 -5 60 -8 0 -15
-28 -41 -41 -37 -8 3 -27 -6 -43 -19 -27 -22 -30 -23 -47 -7 -11 10 -34 16
-59 16 -28 -1 -40 3 -40 14 0 8 -6 13 -12 12 -7 -2 -14 7 -16 20 -4 26 -8 27
-46 7 -16 -9 -38 -14 -50 -13 -12 2 -21 -1 -21 -7 0 -5 17 -10 38 -9 34 1 37
-1 37 -27 0 -29 -14 -46 -25 -29 -3 5 -14 10 -23 10 -12 0 -13 -3 -4 -12 14
-14 16 -48 2 -48 -5 0 -21 23 -36 52 -39 76 -76 110 -111 102 -15 -4 -34 -13
-41 -21 -16 -15 -52 -18 -52 -3 0 6 10 10 23 10 13 0 34 11 47 25 22 24 16 37
-7 14 -6 -6 -26 -11 -44 -12 -29 -2 -34 -6 -37 -29 -5 -39 34 -47 89 -19 49
26 61 20 30 -13 -13 -14 -20 -29 -16 -35 9 -15 25 -14 25 2 0 7 5 18 11 24 9
9 17 6 30 -12 11 -13 19 -27 19 -32 0 -4 9 -19 20 -33 28 -36 25 -48 -16 -65
-45 -19 -44 -19 -44 5 0 11 -6 20 -12 21 -27 2 -73 10 -77 15 -2 2 0 20 6 39
11 36 6 44 -14 24 -12 -12 -49 17 -70 55 -10 18 -11 18 -51 0 -41 -19 -63 -45
-43 -52 6 -2 11 -8 11 -14 0 -6 -9 -3 -20 7 -11 10 -20 14 -20 10 0 -5 -3 -6
-6 -3 -3 4 2 18 11 32 11 17 13 26 6 26 -7 0 -19 -16 -27 -35 -8 -20 -22 -39
-32 -42 -27 -9 -42 -24 -36 -34 3 -5 15 -3 26 6 16 11 25 12 35 3 19 -15 16
-23 -12 -36 -40 -18 -50 -15 -71 26 -13 25 -28 38 -44 40 -14 2 -31 9 -37 14
-10 8 -13 6 -13 -6 0 -10 -7 -17 -17 -15 -34 3 -44 -1 -41 -18 2 -13 -5 -19
-24 -21 -16 -2 -28 -7 -28 -12 0 -5 15 -7 33 -3 17 3 37 6 42 7 6 0 11 -10 13
-24 2 -22 -6 -28 -54 -50 -36 -16 -61 -35 -70 -52 -8 -16 -20 -28 -26 -28 -7
0 -21 -11 -33 -24 -11 -13 -30 -27 -41 -30 -18 -6 -21 -3 -18 21 2 25 43 68
53 57 5 -5 71 57 71 67 0 4 -7 10 -16 13 -8 3 -12 2 -9 -4 6 -9 -52 -69 -67
-70 -20 0 -4 31 37 73 25 26 45 50 45 54 0 3 22 27 49 53 47 45 59 75 36 93
-5 5 1 5 14 2 22 -7 23 -5 17 19 -5 22 -1 29 35 51 27 18 39 31 35 42 -6 15
22 73 36 73 4 0 23 14 42 30 32 29 57 27 40 -2 -6 -10 -5 -10 7 -1 8 7 28 11
45 10 20 -1 29 3 29 13 0 17 14 30 32 30 7 0 33 -20 58 -45z m1303 -38 c24
-11 31 -33 7 -24 -14 6 -30 -8 -30 -27 0 -11 -37 -25 -47 -19 -11 6 -10 -15 1
-21 5 -4 21 -2 36 4 29 11 70 -3 59 -21 -3 -6 0 -10 7 -8 47 6 53 -22 12 -48
-16 -9 -33 -21 -38 -27 -6 -6 -26 -19 -44 -29 -34 -18 -35 -18 -59 7 l-25 24
-40 -26 c-26 -18 -42 -23 -44 -15 -3 9 -15 8 -45 -3 -51 -18 -48 -18 -48 11 0
14 5 25 12 25 6 0 8 3 5 6 -4 4 -13 2 -21 -5 -8 -7 -27 -16 -43 -20 -15 -5
-36 -12 -46 -16 -14 -6 -16 -4 -10 11 5 15 0 13 -26 -8 -18 -16 -36 -28 -41
-28 -5 0 -15 -3 -24 -6 -11 -4 -16 0 -16 11 0 10 -7 23 -16 30 -12 9 -15 20
-10 39 8 33 32 29 29 -6 -1 -21 3 -24 38 -25 21 -1 39 0 39 3 0 14 -32 64 -47
72 -14 8 -12 12 15 26 34 18 67 9 85 -20 4 -8 13 -14 18 -14 6 0 7 5 4 11 -8
12 22 49 39 49 13 0 66 44 66 54 0 4 -6 4 -12 -1 -7 -4 -23 -8 -35 -8 -18 -1
-20 2 -12 18 6 10 21 22 34 27 25 10 65 3 65 -11 0 -5 7 -9 16 -9 13 0 15 -7
9 -39 -4 -22 -2 -42 3 -45 15 -9 42 4 42 21 0 17 37 72 59 89 15 12 42 9 79
-9z m579 -320 c10 -10 10 -27 2 -75 -9 -51 -15 -62 -31 -62 -12 0 -18 -6 -16
-17 2 -11 -2 -17 -10 -15 -8 1 -29 -3 -48 -10 -32 -11 -39 -22 -36 -59 1 -9
-10 -21 -24 -28 -33 -14 -33 -14 -31 9 1 11 5 20 9 20 4 0 8 5 8 11 0 6 -7 9
-15 5 -9 -3 -15 0 -15 10 0 9 9 18 20 21 11 3 20 9 20 13 0 4 11 12 25 18 14
6 25 18 25 27 0 17 16 20 26 4 4 -7 10 -7 16 -1 7 7 5 16 -6 28 -16 15 -18 15
-39 -3 -26 -24 -56 -20 -35 4 10 13 8 18 -11 34 l-23 19 28 12 c22 10 28 10
32 0 4 -14 42 2 42 19 0 6 -4 7 -10 4 -14 -9 -13 3 2 19 15 15 77 11 95 -7z
m189 -39 c0 -14 -5 -16 -21 -11 -30 9 -39 9 -45 -1 -3 -5 21 -18 52 -29 54
-20 57 -22 55 -51 -3 -26 -7 -31 -27 -28 -23 2 -24 2 -8 -14 13 -13 20 -15 31
-6 21 18 29 1 10 -20 -19 -21 -82 -25 -101 -6 -9 9 -8 16 5 30 16 18 16 19 -4
24 -26 7 -53 60 -53 102 0 29 1 29 53 28 44 0 53 -3 53 -18z m-1148 -10 c-17
-11 17 -38 49 -38 14 0 23 -6 23 -15 0 -26 28 -28 65 -5 28 18 39 20 48 11 9
-10 6 -17 -13 -31 -14 -11 -33 -26 -42 -34 -10 -9 -29 -18 -43 -22 -16 -4 -31
-17 -37 -33 l-10 -26 -10 25 c-24 62 -42 88 -64 99 -19 8 -22 15 -15 33 4 13
6 28 4 35 -3 7 7 11 27 11 21 -1 27 -4 18 -10z m-630 -15 c-2 -11 10 -24 35
-38 33 -17 39 -18 47 -5 5 8 8 20 5 27 -2 7 1 15 7 19 17 11 3 -73 -16 -91 -9
-9 -16 -25 -16 -35 0 -10 -9 -34 -20 -53 -11 -19 -18 -42 -14 -51 7 -19 -5
-20 -41 -4 -14 6 -24 18 -23 27 2 13 -6 16 -39 16 -24 -1 -43 2 -43 6 0 4 -34
24 -75 45 -42 20 -74 42 -72 48 2 6 19 15 38 20 19 5 37 14 40 19 4 5 13 -1
22 -13 13 -18 22 -21 45 -17 33 7 47 -9 43 -50 -1 -11 3 -24 8 -28 7 -3 8 0 5
10 -4 8 -1 22 5 29 8 10 9 16 1 21 -12 7 -3 83 13 103 15 19 48 15 45 -5z
m430 -47 c3 -26 6 -27 38 -22 38 8 39 5 22 -26 -18 -31 -40 -48 -55 -43 -7 2
-13 0 -13 -5 0 -16 31 -40 53 -40 12 0 32 -3 44 -6 16 -5 21 -2 20 13 -1 10
-4 20 -7 23 -3 3 -11 18 -18 33 -17 39 6 32 33 -10 11 -17 27 -33 36 -36 51
-14 70 -137 35 -214 -13 -28 -26 -43 -38 -43 -10 0 -18 5 -18 10 0 6 -7 10
-15 10 -9 0 -20 11 -25 25 -10 26 -24 32 -35 14 -4 -6 1 -17 11 -24 15 -12 16
-16 6 -23 -11 -7 -10 -11 5 -17 10 -5 22 -9 26 -9 14 -2 47 -50 47 -71 0 -11
-7 -33 -15 -49 -8 -15 -12 -32 -9 -37 3 -5 -2 -9 -10 -9 -9 0 -16 -4 -16 -9 0
-17 -33 -22 -53 -8 -15 10 -21 25 -22 55 -1 23 1 42 4 42 3 0 15 -9 27 -21 15
-14 29 -19 43 -14 20 6 20 6 1 27 -12 13 -26 19 -39 15 -12 -3 -21 -1 -21 4 0
5 -20 9 -44 9 -25 0 -48 5 -51 10 -3 6 -15 10 -26 10 -19 0 -19 1 3 33 12 17
30 41 39 52 9 11 19 37 22 58 6 39 6 39 -12 18 -10 -12 -23 -21 -28 -21 -6 0
-8 -10 -6 -22 4 -24 -37 -78 -60 -78 -7 0 -28 11 -47 25 -19 14 -45 25 -59 25
-41 0 -71 -11 -71 -26 0 -8 -5 -14 -10 -14 -14 0 -5 68 20 155 12 39 25 92 30
118 13 70 25 81 62 59 22 -13 28 -22 23 -39 -7 -30 22 -59 74 -73 29 -8 47 -8
61 0 26 14 26 30 0 37 -19 5 -19 6 -3 18 13 10 15 16 6 27 -7 8 -10 25 -7 39
4 18 1 16 -10 -8 -8 -18 -20 -33 -26 -33 -16 0 -12 40 5 46 9 4 15 11 14 18
-1 6 -1 20 0 30 1 20 1 20 16 0 14 -18 14 -18 15 4 0 33 24 22 28 -12z m-995
-66 c32 -25 42 -25 53 1 9 19 14 16 67 -40 32 -34 64 -61 71 -61 7 0 38 -18
70 -40 42 -30 61 -38 74 -31 18 9 56 -1 67 -18 3 -6 15 -11 25 -11 10 0 32
-12 49 -26 24 -20 31 -34 31 -63 0 -20 4 -41 9 -46 18 -18 16 -121 -2 -149
-13 -19 -15 -31 -7 -51 9 -24 8 -25 -30 -25 -41 0 -46 7 -41 61 1 10 -18 25
-54 41 -42 19 -52 27 -39 32 9 4 24 0 33 -8 21 -18 81 -31 81 -17 0 6 -13 11
-29 11 -20 0 -35 8 -45 22 -22 31 -21 36 22 55 l37 17 -44 4 c-24 2 -49 -2
-54 -7 -15 -15 -43 -14 -59 2 -7 7 -25 18 -40 24 -15 7 -30 23 -34 37 -12 49
-121 55 -157 10 -10 -13 -27 -24 -37 -24 -30 0 -65 24 -65 45 0 14 -6 19 -20
18 -14 -1 -25 8 -35 30 -18 40 -19 63 -8 106 9 32 12 33 45 28 20 -4 43 -13
53 -22 16 -15 18 -14 24 1 4 10 -1 25 -12 38 -11 12 -25 31 -31 44 -7 12 -16
20 -22 17 -5 -4 -9 -1 -9 4 0 18 35 12 63 -9z m1490 -61 c32 -9 37 -13 31 -31
-5 -16 -3 -20 9 -15 18 7 29 -14 16 -34 -7 -12 -9 -12 -9 1 0 11 -5 9 -18 -6
-25 -32 -69 -39 -82 -15 -13 26 -13 41 3 41 6 0 23 9 37 20 l25 20 -44 0 c-36
0 -42 -3 -37 -16 4 -9 1 -23 -5 -30 -8 -10 -6 -22 8 -46 20 -34 58 -53 47 -24
-3 9 -1 16 5 16 19 0 13 -47 -7 -52 -11 -3 -27 -28 -40 -65 -27 -74 -43 -90
-76 -75 -33 15 -43 87 -16 123 14 19 16 29 8 37 -9 9 -8 18 2 37 7 14 11 28 7
31 -3 4 7 26 24 50 32 47 46 52 112 33z m891 -35 c15 -32 15 -38 1 -64 -14
-26 -14 -30 -1 -30 17 0 39 -34 29 -44 -20 -19 -93 3 -93 29 0 8 -4 15 -8 15
-5 0 -16 6 -26 13 -16 12 -17 16 -4 48 15 35 14 59 -4 59 -6 0 -8 -7 -4 -15 3
-8 3 -22 0 -30 -7 -18 -25 -20 -20 -2 3 6 7 23 10 37 5 23 9 25 54 22 45 -3
51 -7 66 -38z m-716 -158 c-1 -13 3 -31 11 -39 8 -10 11 -27 7 -41 -4 -15 -1
-26 7 -29 18 -8 -11 -26 -33 -20 -9 3 -24 -2 -32 -11 -9 -8 -19 -12 -22 -8 -4
3 -11 0 -15 -7 -11 -17 -51 -5 -51 15 0 19 -26 18 -34 -2 -3 -8 -10 -13 -15
-9 -6 3 -7 13 -4 22 4 11 3 14 -5 9 -21 -13 -33 3 -21 27 10 20 65 77 74 77 2
0 5 -10 8 -22 3 -22 4 -22 15 4 11 27 59 56 95 57 14 1 18 -5 15 -23z m802
-39 c0 -13 89 -97 102 -97 4 0 8 -7 8 -15 0 -8 5 -15 11 -15 6 0 9 -6 6 -14
-3 -8 5 -18 19 -25 23 -10 34 -41 14 -41 -5 0 -10 6 -10 14 0 16 -49 51 -58
41 -6 -6 10 -20 33 -28 21 -9 -7 -20 -44 -19 -24 1 -44 -4 -51 -13 -7 -8 -21
-15 -31 -15 -17 0 -19 8 -17 74 0 40 -2 78 -6 84 -3 6 -2 13 4 17 5 3 7 22 4
42 -4 24 -2 33 5 28 6 -3 11 -11 11 -18z m-1464 -120 c3 -8 0 -25 -5 -39 -8
-21 -6 -31 10 -49 10 -12 19 -26 19 -30 0 -5 27 -7 60 -4 71 5 71 -1 -7 -79
-29 -30 -43 -51 -35 -54 7 -2 20 -11 29 -20 9 -9 35 -18 57 -19 23 -1 49 -2
58 -2 11 -1 15 -6 12 -16 -4 -9 0 -15 9 -15 9 0 19 -4 22 -10 4 -6 -5 -10 -20
-10 -17 0 -28 7 -34 23 -9 21 -9 21 -16 2 -5 -11 -17 -28 -29 -37 -21 -17 -20
-18 17 -18 20 0 37 -4 37 -9 0 -17 -59 -33 -100 -26 -38 6 -41 5 -53 -25 -15
-34 -23 -30 -44 21 -9 20 -9 29 0 38 9 9 7 11 -8 8 -11 -1 -26 -6 -32 -10 -9
-6 -13 -2 -13 11 0 26 -11 34 -27 20 -11 -9 -15 -7 -20 10 l-5 21 -33 -24
c-17 -14 -40 -25 -50 -25 -26 0 -85 -22 -85 -32 0 -4 9 -8 20 -8 11 0 20 -4
20 -10 0 -15 14 -12 36 8 23 21 72 47 78 41 2 -2 7 -15 11 -28 6 -20 4 -23 -9
-18 -11 5 -16 1 -16 -13 0 -26 -15 -33 -39 -18 -17 10 -24 9 -46 -12 -14 -13
-25 -31 -25 -41 0 -10 -4 -21 -10 -24 -5 -3 -10 3 -10 14 0 12 -4 21 -10 21
-5 0 -9 -32 -8 -72 1 -91 -2 -130 -9 -105 -5 18 -23 24 -23 7 0 -5 -9 -10 -21
-10 -15 0 -19 -5 -15 -15 7 -18 -10 -20 -18 -2 -3 9 -9 7 -19 -5 -8 -10 -19
-18 -26 -18 -14 0 -15 -17 -1 -25 15 -9 1 -27 -16 -21 -8 3 -17 -1 -20 -9 -4
-8 -13 -15 -22 -15 -13 0 -12 3 3 20 16 18 16 20 2 20 -30 0 -18 37 21 70 26
22 31 30 16 26 -18 -6 -21 -3 -18 20 1 15 10 32 20 37 13 7 14 11 3 18 -8 4
-20 3 -28 -4 -12 -10 -14 -9 -8 6 4 10 7 23 7 28 0 5 7 9 16 9 8 0 13 4 10 8
-2 4 -1 14 5 22 7 12 9 10 9 -7 0 -13 5 -23 10 -23 18 0 11 -28 -15 -58 -15
-19 -21 -33 -15 -37 5 -3 14 -4 19 -1 5 3 11 -3 14 -14 7 -27 53 -27 67 1 10
19 10 20 -9 10 -35 -19 -40 -13 -36 40 2 28 6 53 9 56 2 3 1 16 -5 30 -5 13
-6 22 -1 19 10 -6 78 51 70 59 -4 4 -17 -4 -30 -19 -24 -28 -41 -25 -52 9 -4
16 4 30 34 59 22 21 40 44 40 52 0 8 6 13 13 12 6 -2 12 4 13 12 1 15 6 32 25
78 5 13 22 31 39 40 16 9 30 22 30 29 0 16 38 36 55 30 7 -3 18 0 25 6 10 10
10 7 0 -11 -6 -13 -9 -26 -6 -29 8 -9 36 24 36 43 0 27 48 84 66 77 12 -4 14
0 8 21 -6 27 12 38 22 13z m-1170 -33 c-21 -15 -13 -34 14 -34 14 0 18 -8 18
-35 0 -19 -4 -38 -9 -41 -5 -3 -9 0 -9 5 0 6 -9 11 -19 11 -11 0 -27 7 -35 16
-11 11 -25 14 -46 9 -24 -5 -27 -9 -17 -19 21 -21 50 -28 59 -14 6 10 8 9 8
-3 0 -21 27 -32 34 -16 9 18 0 -45 -9 -65 -4 -11 -3 -18 4 -18 6 0 11 6 11 13
0 6 10 23 21 37 l21 25 -5 -23 c-5 -22 -4 -23 12 -8 22 20 31 20 31 2 0 -8 16
-28 36 -45 36 -32 39 -60 4 -41 -10 5 -36 10 -58 10 -22 0 -56 7 -75 15 -27
11 -43 12 -62 5 -14 -5 -24 -6 -21 -1 9 14 -5 41 -21 41 -9 0 -13 6 -10 14 3
7 0 19 -6 25 -7 7 -7 11 -1 11 6 0 14 -3 18 -7 9 -10 46 -11 40 -2 -3 5 -21
11 -42 15 -20 4 -43 11 -50 17 -7 5 -15 7 -18 4 -3 -3 -14 2 -24 10 -18 16
-18 17 6 36 14 10 28 17 31 13 4 -3 1 -6 -5 -6 -7 0 -12 -4 -12 -10 0 -18 22
-11 27 9 4 17 37 34 68 35 6 1 12 4 15 7 9 9 75 26 84 21 5 -3 1 -11 -8 -18z
m1942 -34 c-14 -28 -20 -49 -13 -47 8 4 10 -3 7 -19 -5 -26 -14 -29 -42 -14
-16 8 -18 7 -14 -4 3 -8 26 -19 52 -25 37 -8 49 -6 68 7 31 23 50 61 49 99 -1
27 4 33 26 38 15 4 43 -1 63 -9 57 -24 51 -59 -23 -136 -53 -56 -64 -63 -100
-64 -41 -1 -46 -6 -43 -48 1 -14 -4 -16 -30 -11 -17 3 -39 14 -50 25 -10 10
-23 18 -29 18 -6 0 -22 9 -36 20 -14 11 -35 20 -45 20 -14 0 -18 5 -14 15 4
10 -1 15 -14 15 -11 0 -20 4 -20 9 0 5 9 7 20 4 13 -3 20 0 20 8 0 9 -12 14
-31 15 -38 1 -52 21 -34 47 7 11 11 27 7 36 -5 14 -3 14 10 3 18 -15 20 -53 3
-64 -6 -5 -3 -8 8 -8 10 0 20 7 23 15 3 8 15 17 25 20 11 4 18 14 17 23 -2 10
5 18 17 20 11 3 23 9 27 15 3 6 28 11 54 12 29 0 49 6 52 13 2 7 6 11 9 8 3
-3 -6 -28 -19 -56z m-2277 -53 c-6 -15 -15 -27 -20 -27 -12 0 -12 -68 0 -76 5
-3 9 8 9 24 0 33 39 119 48 106 4 -5 18 -10 32 -12 14 -1 36 -11 50 -21 14
-10 35 -21 48 -25 16 -5 22 -15 22 -35 0 -36 -17 -51 -56 -51 -17 0 -38 -7
-45 -16 -12 -14 -11 -16 6 -12 12 2 31 -7 46 -22 14 -14 34 -30 45 -37 15 -10
16 -14 5 -21 -19 -14 4 -25 35 -18 18 5 24 2 24 -9 0 -23 -42 -37 -56 -19 -16
20 -33 17 -27 -5 6 -23 -7 -32 -35 -24 -13 3 -19 10 -14 17 4 6 7 20 7 32 1
18 -4 20 -38 17 -31 -3 -38 -1 -34 10 6 15 -23 19 -34 4 -3 -5 -13 3 -22 16
-15 23 -15 26 1 45 9 10 35 29 58 40 23 11 49 33 59 49 l18 28 -26 -24 c-14
-13 -32 -21 -39 -18 -7 2 -21 0 -32 -5 -14 -8 -16 -7 -11 2 5 8 3 11 -6 8 -8
-3 -14 -14 -14 -25 -1 -21 -47 -83 -63 -83 -23 0 -43 39 -38 74 4 22 2 36 -4
36 -15 0 19 62 44 80 33 24 61 37 64 30 1 -4 -2 -19 -7 -33z m1798 12 c11 18
43 7 35 -12 -6 -18 40 -29 55 -14 8 8 11 7 11 -2 0 -7 4 -9 10 -6 5 3 20 1 32
-6 12 -7 38 -12 57 -13 48 -1 51 -22 4 -30 -21 -3 -47 -7 -58 -9 -106 -20
-120 -19 -147 11 -48 54 -65 103 -28 80 17 -11 22 -10 29 1z m-1195 -20 c-3
-5 -11 -9 -19 -9 -8 0 -17 -5 -21 -12 -5 -8 2 -9 23 -5 25 5 30 3 29 -11 -1
-17 15 -20 45 -8 17 7 20 -18 5 -43 -5 -7 -4 -17 2 -23 7 -7 13 -4 20 8 13 26
10 73 -6 83 -20 12 66 13 90 0 15 -8 19 -17 14 -39 -3 -20 -1 -30 10 -34 19
-7 11 -54 -13 -72 -21 -16 -24 -16 -42 -5 -10 7 -11 13 -1 31 11 20 10 21 -9
16 -12 -3 -29 -8 -38 -11 -10 -3 -31 6 -48 20 -29 23 -29 24 -7 25 13 0 20 4
17 10 -3 6 -15 10 -26 10 -10 0 -19 5 -19 10 0 6 -10 10 -22 10 -13 0 -31 6
-40 13 -9 7 -35 12 -58 11 -40 -2 -41 -1 -25 17 24 25 155 33 139 8z m-724
-58 c0 -19 -83 -97 -88 -82 -2 7 -13 6 -33 -4 -28 -15 -29 -16 -13 -40 21 -32
28 -32 20 -1 -4 16 -1 26 9 30 22 8 28 -10 15 -48 -6 -18 -8 -39 -5 -47 4 -10
-3 -15 -21 -17 -25 -2 -26 0 -20 31 5 29 4 30 -8 14 -10 -13 -12 -27 -6 -48 5
-16 5 -29 1 -29 -3 0 -15 -13 -24 -30 -26 -43 -4 -37 32 9 17 21 43 44 59 50
28 12 72 71 53 71 -6 0 -11 -4 -11 -9 0 -5 -7 -11 -15 -14 -10 -5 -9 2 6 26
10 18 26 46 34 62 8 17 14 25 15 18 0 -7 14 -28 30 -46 35 -40 37 -52 13 -67
-14 -9 -14 -10 -2 -7 9 3 22 1 30 -4 21 -13 -1 -43 -35 -47 -16 -2 -26 -9 -26
-20 0 -16 -51 -74 -95 -108 l-20 -16 20 6 c18 5 17 4 -3 -14 -15 -13 -35 -18
-54 -16 -25 2 -33 10 -43 40 -7 20 -18 43 -25 51 -7 8 -10 25 -7 37 8 28 -18
59 -41 51 -14 -5 -13 -2 3 16 11 13 29 27 40 31 12 4 31 28 44 53 15 30 35 52
57 62 36 17 46 38 17 33 -29 -5 -28 30 1 38 14 3 26 10 26 14 0 5 16 3 35 -3
20 -6 35 -17 35 -26z m1893 -20 c12 -25 17 -26 90 -26 l78 0 40 -42 c21 -23
45 -40 52 -37 12 4 77 -95 77 -117 0 -14 -73 19 -88 39 -7 9 -16 17 -20 17 -4
0 -6 6 -6 13 1 8 -12 12 -37 12 -21 0 -39 -4 -39 -10 0 -5 9 -10 19 -10 10 0
21 -6 24 -13 5 -13 86 -72 109 -79 6 -2 6 -12 0 -29 -6 -14 -7 -31 -2 -38 5
-9 9 -5 14 13 l6 25 26 -24 c31 -29 24 -45 -20 -45 -25 0 -35 -6 -44 -25 -15
-33 -15 -35 2 -35 11 0 12 -5 3 -25 -16 -33 -27 -31 -27 5 0 20 -4 28 -13 24
-12 -4 -56 33 -49 42 8 10 -11 63 -24 68 -9 3 -14 12 -11 19 2 6 0 20 -5 30
-5 11 -5 17 1 17 6 0 22 -22 36 -50 14 -27 30 -50 35 -50 14 0 14 0 -17 66
-24 54 -84 124 -104 124 -5 0 -9 5 -9 10 0 6 14 10 31 10 19 0 28 4 24 11 -4
6 -33 9 -74 6 -76 -5 -113 5 -105 28 5 12 0 14 -25 9 -29 -6 -31 -4 -31 21 0
20 4 26 15 21 18 -6 20 5 3 22 -9 9 -9 18 1 38 11 26 12 26 32 8 11 -10 25
-29 32 -43z m-995 -177 c-16 -8 -28 -19 -28 -25 0 -6 7 -6 19 1 11 5 38 10 60
10 21 0 41 5 43 11 2 6 13 2 26 -9 13 -11 20 -26 16 -35 -3 -8 0 -18 6 -22 8
-5 8 -11 -1 -21 -14 -17 -5 -44 15 -44 13 0 14 -4 3 -27 -6 -16 -15 -31 -20
-34 -13 -9 -87 29 -94 49 -4 9 -24 34 -45 54 -21 21 -38 45 -38 54 0 10 -5 14
-15 10 -20 -7 -19 3 2 26 9 10 29 18 47 18 l31 -1 -27 -15z m-368 -30 c17 -20
29 -43 26 -50 -3 -8 3 -28 14 -46 15 -25 16 -33 6 -44 -14 -14 -59 -8 -50 7 3
5 1 9 -4 9 -6 0 -12 -6 -15 -14 -6 -15 -71 -26 -89 -15 -12 8 -12 6 37 99 19
35 33 66 30 68 -2 2 -13 -1 -24 -8 -17 -8 -21 -8 -21 3 0 41 50 36 90 -9z
m1333 -818 c10 10 0 -52 -12 -74 -6 -11 -8 -28 -5 -37 4 -10 1 -21 -6 -25 -11
-7 -11 -12 -2 -23 13 -15 10 -278 -3 -311 -4 -10 -4 -21 2 -25 12 -8 14 -49 2
-56 -15 -10 -10 -32 7 -39 9 -4 28 1 42 10 14 9 21 11 17 3 -5 -8 -4 -10 4 -5
6 4 9 16 6 25 -3 10 1 24 9 31 13 10 15 7 11 -20 -2 -18 -11 -40 -19 -49 -18
-20 -21 -47 -6 -56 6 -4 10 5 10 19 0 14 5 26 10 26 6 0 10 -31 10 -74 0 -41
-4 -78 -10 -81 -6 -4 -10 5 -10 19 0 14 -4 26 -10 26 -11 0 -3 -54 12 -84 6
-10 7 -37 4 -60 -3 -22 -8 -68 -12 -101 -7 -67 -22 -107 -25 -65 -1 14 -3 107
-4 207 l-1 182 -26 20 -26 21 1 -48 c0 -77 -3 -93 -12 -88 -17 11 -33 107 -20
122 6 7 8 17 5 23 -4 5 1 16 9 25 14 14 14 18 0 45 -12 25 -13 32 -1 43 18 18
13 134 -8 173 -9 17 -16 45 -16 64 0 25 -4 32 -15 27 -8 -3 -15 -1 -15 4 0 6
9 10 20 10 11 0 20 -7 20 -16 0 -8 5 -12 10 -9 11 7 8 67 -4 96 -4 10 0 23 9
33 12 12 16 30 13 66 -3 44 -1 47 13 34 9 -8 18 -11 22 -8z m-86 -666 c13 -34
6 -58 -18 -65 -15 -5 -18 -11 -13 -23 5 -10 8 -64 9 -122 0 -58 4 -111 9 -119
7 -11 5 -13 -7 -8 -23 9 -21 -5 3 -26 21 -18 30 -84 9 -71 -6 3 -8 15 -6 25 5
17 1 19 -28 13 l-33 -6 4 184 c4 202 11 271 25 263 5 -4 9 13 10 37 l1 43 12
-50 c7 -27 18 -61 23 -75z m1363 -2075 c0 -6 17 -28 38 -47 l38 -35 37 29 36
29 9 -33 c7 -27 5 -36 -12 -50 -12 -9 -23 -14 -26 -11 -3 3 1 8 8 10 27 10 1
18 -48 14 -41 -2 -50 -6 -47 -20 2 -9 10 -14 18 -12 32 9 54 5 54 -9 0 -8 4
-21 8 -27 9 -15 -10 -56 -23 -48 -5 3 -11 19 -15 35 -10 44 -29 38 -20 -6 6
-33 4 -36 -12 -29 -10 4 -26 10 -35 12 -21 6 -24 19 -6 25 7 3 9 12 5 22 -4 9
-11 15 -16 12 -4 -3 -16 3 -26 14 -21 24 -43 25 -71 6 -23 -16 -54 -6 -32 10
30 23 67 33 72 21 5 -9 7 -9 12 1 3 6 12 12 20 12 8 0 14 5 14 10 0 16 -120 5
-132 -11 -6 -10 -8 -7 -6 11 2 14 9 24 15 23 7 -2 10 4 7 12 -5 11 1 15 21 15
29 0 85 29 85 43 0 5 7 4 15 -3 8 -7 15 -18 15 -25z m-1758 -345 c9 -17 24
-30 33 -30 8 0 15 -9 15 -20 0 -11 5 -20 11 -20 5 0 7 5 4 10 -3 6 1 10 9 10
9 0 16 -5 16 -12 0 -9 3 -9 12 0 10 10 10 15 -2 23 -13 9 -12 10 2 5 10 -3 20
0 24 5 4 6 20 8 38 5 21 -4 26 -3 17 3 -12 8 -11 13 9 29 32 26 49 15 102 -66
23 -35 52 -68 65 -73 20 -8 22 -11 11 -29 -7 -10 -26 -22 -43 -26 -16 -3 -40
-12 -52 -20 -17 -11 -22 -11 -19 -2 1 7 1 10 -1 6 -3 -5 -12 -8 -21 -8 -15 0
-15 -2 -2 -10 13 -9 7 -14 -12 -11 -5 0 -8 -5 -8 -13 0 -26 -23 -30 -40 -8
-12 14 -25 19 -41 16 -17 -4 -20 -3 -10 4 7 5 11 14 7 20 -3 6 2 13 12 16 25
8 63 126 40 126 -4 0 -8 -10 -8 -22 0 -45 -21 -59 -50 -34 -8 8 -22 16 -30 19
-10 4 -7 6 8 6 12 1 22 6 22 12 0 8 -12 10 -35 6 -46 -7 -160 4 -125 13 14 3
25 11 25 18 0 7 6 16 13 21 11 7 11 9 -1 14 -15 6 -32 -18 -28 -38 1 -5 -3 -4
-11 3 -11 11 -10 14 1 21 7 5 10 14 7 20 -4 6 -4 11 1 10 20 -3 25 2 13 16 -7
8 -9 15 -4 15 5 0 17 -14 26 -30z m1481 -34 c-1 -20 1 -35 6 -32 13 9 22 -66
9 -81 -8 -10 -6 -17 8 -27 23 -17 23 -17 -43 -49 l-52 -25 4 27 c2 14 7 36 11
49 3 12 2 22 -4 22 -14 0 -37 -61 -34 -90 2 -20 1 -22 -7 -10 -6 8 -11 35 -12
60 0 25 -4 56 -8 70 -13 45 18 87 45 60 6 -6 10 -3 11 11 1 12 -7 23 -20 29
l-22 9 22 0 c12 1 24 5 27 9 2 4 17 7 33 6 26 -1 28 -4 26 -38z m682 -296 c3
-5 14 -10 24 -10 14 0 17 -6 13 -30 -4 -27 -12 -35 -34 -31 -5 0 -8 -6 -8 -14
0 -11 7 -14 24 -9 18 4 25 1 29 -16 3 -12 2 -33 -3 -46 -7 -17 -6 -24 2 -24 6
0 8 -3 5 -7 -4 -3 -18 4 -32 17 l-25 23 0 -21 c0 -14 -6 -22 -17 -22 -10 0
-31 -9 -48 -20 -37 -25 -56 -26 -49 -2 5 15 5 15 -5 0 -7 -10 -19 -14 -31 -11
l-20 5 20 18 c26 23 25 33 -2 25 -23 -7 -23 -7 -3 9 l20 17 -20 -3 c-11 -2
-23 -7 -26 -12 -10 -13 -34 7 -34 29 0 11 12 28 28 38 15 11 27 22 27 26 0 3
15 13 33 22 17 8 50 25 72 36 48 25 52 26 60 13z m-1989 -140 c8 0 14 -8 14
-18 0 -10 20 -39 45 -65 l45 -47 -48 0 c-26 0 -56 -3 -68 -6 -12 -3 -27 1 -37
10 -20 20 -37 21 -37 1 0 -8 5 -15 12 -15 6 0 9 -2 6 -5 -6 -7 -58 15 -58 25
0 3 5 11 11 17 13 13 3 36 -12 27 -5 -3 -7 -9 -4 -14 11 -18 -19 -22 -32 -5
-13 18 -13 18 -27 -1 -14 -18 -15 -16 -13 18 l2 36 49 -5 c38 -5 50 -3 58 10
6 12 18 15 41 11 29 -4 30 -3 10 7 -18 9 -20 15 -11 29 10 15 14 16 25 4 8 -8
21 -14 29 -14z m2027 -76 c9 -4 17 -11 17 -18 0 -6 3 -21 6 -33 7 -27 -26 -50
-129 -89 -66 -25 -107 -27 -53 -3 14 7 26 16 26 21 0 17 -5 23 -17 20 -7 -2
-13 3 -13 10 0 19 37 20 44 2 3 -8 18 -14 34 -14 21 0 32 7 40 25 14 29 10 31
-23 9 -14 -9 -25 -12 -25 -6 0 6 5 14 10 17 6 3 10 11 10 17 0 6 -10 2 -23
-10 -13 -12 -27 -19 -30 -15 -14 13 -48 13 -53 -1 -3 -8 -1 -23 5 -34 8 -15 7
-21 -4 -26 -18 -6 -30 10 -13 18 7 3 4 4 -8 1 -12 -3 -27 1 -34 10 -7 8 -19
15 -26 15 -23 0 -16 -37 12 -59 l27 -21 -24 0 c-24 0 -66 36 -55 48 3 3 1 11
-5 19 -9 9 -8 13 0 13 6 0 11 6 11 14 0 17 27 29 35 16 4 -6 11 -10 17 -10 7
0 7 4 0 13 -17 20 33 40 52 21 8 -8 19 -14 24 -14 10 0 62 23 102 44 14 8 30
12 35 10 6 -2 18 -7 28 -10z m-2110 -93 c14 -6 29 -20 32 -33 4 -13 13 -26 19
-31 8 -5 5 -12 -7 -21 -17 -13 -16 -14 3 -19 11 -3 20 -13 20 -24 0 -10 5 -24
12 -31 6 -6 8 -15 4 -19 -4 -4 -11 -2 -15 5 -11 19 -61 -35 -61 -66 0 -20 -3
-22 -14 -13 -8 7 -26 9 -43 6 l-28 -6 24 20 c19 17 21 24 11 36 -6 8 -9 19 -5
25 4 7 -1 14 -12 16 -15 4 -19 12 -15 32 7 35 18 42 55 31 34 -9 51 -3 27 11
-85 47 -90 112 -7 81z m1249 -193 c5 -13 18 -17 48 -16 22 1 40 4 40 8 0 4 12
6 28 4 94 -10 119 -27 57 -38 -37 -7 -58 -26 -28 -26 11 0 24 -5 31 -12 9 -9
16 -7 32 7 21 19 77 28 86 13 3 -4 0 -17 -6 -29 -9 -16 -8 -24 4 -38 9 -10 13
-21 9 -25 -5 -4 -8 -13 -8 -19 0 -7 -16 -12 -41 -12 -22 0 -48 -6 -56 -12 -8
-7 -18 -10 -21 -6 -4 3 -7 -3 -7 -15 0 -27 12 -28 35 -2 17 19 57 22 82 7 6
-4 18 -5 26 -1 25 9 28 -24 4 -41 -20 -14 -22 -14 -28 2 -4 12 -8 13 -13 4 -5
-7 -1 -20 9 -31 11 -12 13 -20 6 -25 -6 -3 -11 -14 -11 -24 0 -9 -14 -30 -31
-47 -48 -45 -129 -144 -129 -157 0 -7 9 -1 19 12 10 13 23 21 30 17 6 -4 11
-2 11 4 0 10 32 48 92 112 28 28 50 40 29 14 -12 -14 -2 -27 31 -39 16 -6 16
-10 -2 -59 -16 -46 -17 -55 -4 -69 20 -22 18 -29 -17 -69 -37 -41 -79 -105
-79 -120 0 -5 9 -10 20 -10 14 0 18 -5 13 -16 -4 -12 -2 -15 8 -12 10 4 13 19
11 52 -2 49 10 58 31 24 15 -23 -21 -102 -66 -148 -21 -21 -45 -59 -53 -84
-18 -51 -45 -74 -63 -52 -8 10 -8 16 3 25 17 14 28 51 15 51 -5 0 -12 -8 -16
-17 -3 -10 -15 -26 -25 -36 -18 -18 -18 -20 -3 -37 16 -18 15 -20 -16 -35 -87
-42 -99 -50 -99 -63 0 -15 -56 -72 -71 -72 -6 0 -5 9 1 20 6 11 15 20 21 20
14 0 39 26 39 39 0 18 -26 13 -45 -9 -18 -20 -41 -28 -30 -11 13 23 -15 19
-33 -4 -21 -27 -37 -20 -25 11 4 12 3 15 -5 10 -7 -4 -12 -1 -12 9 0 8 -7 18
-16 22 -15 6 -15 7 1 19 9 7 32 27 51 43 18 17 38 31 44 31 5 0 10 5 10 10 0
15 -14 12 -36 -7 -21 -19 -36 -25 -69 -28 -26 -2 -58 -16 -68 -29 -5 -6 -5 5
-2 24 10 50 39 78 75 74 17 -2 30 1 30 6 0 6 9 10 20 10 11 0 20 5 20 10 0 6
7 10 15 10 8 0 15 4 15 8 0 5 16 9 35 10 43 2 44 -11 5 -48 -18 -16 -28 -34
-24 -43 3 -8 -1 -21 -8 -28 -20 -20 -29 -49 -23 -71 8 -23 25 -15 19 10 -5 20
31 70 42 59 4 -4 -3 -15 -14 -26 -20 -17 -30 -41 -17 -41 3 0 21 18 41 40 20
22 42 40 49 40 7 0 16 7 19 16 5 13 2 15 -14 10 -66 -20 -62 -21 -49 8 7 14
16 26 21 26 5 0 27 9 48 19 22 11 49 17 60 14 14 -4 20 0 20 10 0 9 8 20 17
26 10 5 14 13 9 18 -5 4 -11 3 -13 -4 -2 -6 -27 -19 -55 -29 -39 -13 -52 -14
-58 -4 -4 7 -13 9 -19 6 -6 -4 -11 -3 -11 3 0 15 18 23 25 12 6 -11 55 7 55
20 0 18 -18 16 -70 -7 -30 -13 -62 -23 -70 -24 -8 0 -27 -7 -43 -14 -25 -14
-27 -14 -17 4 14 26 13 36 -7 55 -12 13 -14 21 -6 34 5 9 8 21 6 28 -6 16 -33
5 -33 -13 0 -8 -16 -34 -35 -60 -19 -25 -35 -54 -35 -65 0 -10 -7 -19 -15 -19
-9 0 -15 -6 -13 -13 2 -10 -38 -97 -45 -97 -1 0 -2 20 -2 45 0 25 3 45 8 45 4
0 7 6 7 13 0 7 14 21 32 32 29 17 30 19 12 26 -10 4 -30 8 -43 8 -20 1 -22 4
-13 13 20 20 14 31 -13 24 -20 -5 -25 -3 -25 14 0 11 -5 20 -11 20 -5 0 -7 5
-4 10 3 6 13 10 21 10 8 0 13 -4 10 -9 -3 -5 1 -14 8 -21 12 -9 18 -6 32 15
13 19 19 23 25 13 7 -10 11 -10 21 0 10 10 10 16 0 33 -16 26 -3 44 46 65 19
8 32 17 29 21 -4 3 2 13 14 21 11 8 23 11 27 7 3 -3 0 -10 -8 -15 -8 -5 -12
-12 -9 -15 4 -3 24 10 45 29 38 34 38 36 21 53 -14 14 -17 15 -12 2 3 -9 -3
-23 -16 -35 -20 -17 -22 -17 -16 -1 8 21 3 21 -29 1 -29 -20 -42 -13 -19 10 9
9 13 16 9 16 -4 0 1 9 11 20 10 11 24 20 30 20 7 0 18 7 25 15 7 9 19 14 26
11 15 -6 26 20 19 45 -5 14 6 21 52 38 75 28 87 34 127 64 53 39 53 39 22 32
-17 -3 -35 -13 -40 -21 -16 -21 -230 -107 -234 -94 -2 5 -8 8 -13 4 -5 -3 -9
2 -9 11 0 11 -5 15 -14 12 -9 -4 -15 3 -18 22 -3 24 2 31 44 57 50 31 62 46
28 37 -41 -11 -14 32 49 77 24 17 28 35 6 26 -8 -3 -15 -1 -15 4 0 18 -64 10
-99 -11 -39 -24 -55 -15 -36 21 11 19 14 21 15 8 0 -21 1 -21 35 -6 14 6 25
18 25 27 0 9 14 27 32 41 47 37 88 76 88 84 0 3 -7 6 -15 6 -8 0 -15 -5 -15
-12 0 -6 -2 -9 -5 -7 -2 3 -2 15 1 27 7 25 26 25 36 0z m-1077 -325 c-11 -17
-11 -21 -2 -10 19 23 30 22 17 -3 -6 -11 -20 -20 -30 -20 -11 0 -20 -4 -20
-10 0 -20 26 -9 66 30 23 21 44 36 48 33 10 -10 7 -43 -4 -43 -6 0 -5 -10 2
-25 12 -27 -2 -55 -29 -55 -13 0 -13 3 -2 18 13 16 12 16 -4 3 -10 -8 -25 -27
-32 -41 -8 -15 -29 -42 -47 -61 -50 -53 -64 -73 -72 -104 -4 -16 -23 -43 -42
-61 -19 -18 -34 -38 -34 -44 0 -6 -4 -8 -10 -5 -5 3 -10 -1 -10 -10 0 -9 -5
-13 -11 -10 -6 4 -8 13 -5 20 2 7 -2 16 -10 19 -23 9 -31 7 -48 -10 -15 -14
-16 -14 -16 5 0 12 5 22 10 22 6 1 15 2 20 3 6 0 10 4 10 9 0 4 0 11 0 17 0 5
-8 7 -17 3 -16 -6 -15 -3 2 17 11 14 26 31 34 39 9 11 10 16 2 19 -19 6 -12
22 9 22 14 0 20 6 18 18 -4 21 31 18 48 -6 10 -14 13 -13 30 6 17 20 19 21 26
5 5 -14 7 -13 8 7 1 27 31 70 49 70 6 0 11 5 11 10 0 6 -4 10 -9 10 -5 0 -7
10 -4 23 3 16 2 18 -5 9 -8 -12 -14 -12 -36 0 l-27 14 39 35 c86 75 107 83 77
32z m43 -150 c-24 -27 -28 -53 -6 -53 6 0 8 6 5 14 -4 10 4 17 24 21 17 4 32
5 35 2 2 -2 -12 -21 -31 -41 -41 -44 -60 -76 -46 -76 6 0 14 7 19 16 5 9 14
14 21 10 14 -9 15 -43 1 -51 -5 -3 -10 -14 -10 -24 0 -22 -35 -55 -52 -48 -7
2 -21 0 -30 -4 -13 -7 -18 -3 -24 24 -6 27 -8 29 -14 13 -3 -11 -9 -15 -13
-10 -10 17 42 66 66 62 12 -2 21 -9 20 -15 -2 -7 4 -10 12 -7 21 9 18 21 -7
27 -18 5 -19 8 -8 21 11 15 7 20 -12 17 -5 0 -8 3 -8 9 0 5 -7 7 -15 4 -21 -9
-19 10 5 31 11 10 20 23 20 30 0 6 11 18 25 25 14 7 25 17 25 22 0 4 5 8 12 8
6 0 0 -12 -14 -27z"/>
<path d="M1583 7584 c-37 -40 -58 -45 -47 -12 6 19 5 21 -8 11 -8 -7 -17 -10
-20 -8 -3 3 -20 -8 -38 -25 -18 -17 -30 -34 -26 -37 3 -4 12 2 19 12 8 10 19
16 26 14 6 -2 -12 -24 -41 -49 -50 -41 -99 -110 -79 -110 5 0 22 17 39 38 33
39 92 80 92 63 0 -6 11 -11 25 -11 16 0 25 -6 25 -15 0 -20 16 -19 24 1 3 8
10 12 16 9 5 -3 10 -1 10 4 0 6 -4 11 -10 11 -20 0 -9 16 23 33 18 10 41 15
50 11 10 -3 17 -1 17 5 0 30 -65 18 -105 -19 -11 -11 -26 -16 -32 -12 -8 5 7
23 43 50 50 39 64 63 38 68 -5 0 -23 -14 -41 -32z"/>
</g>
</svg>
