<?xml version="1.0" standalone="no"?>
<!DOCTYPE svg PUBLIC "-//W3C//DTD SVG 20010904//EN"
 "http://www.w3.org/TR/2001/REC-SVG-20010904/DTD/svg10.dtd">
<svg version="1.0" xmlns="http://www.w3.org/2000/svg"
 width="522.000000pt" height="702.000000pt" viewBox="0 0 522.000000 702.000000"
 preserveAspectRatio="xMidYMid meet">
<metadata>
Created by potrace 1.15, written by Peter Selinger 2001-2017
</metadata>
<g transform="translate(0.000000,702.000000) scale(0.100000,-0.100000)"
fill="#000000" stroke="none">
<path d="M3057 6975 c-13 -26 -15 -50 -11 -94 8 -76 0 -109 -32 -123 -22 -10
-28 -9 -38 3 -15 21 -54 41 -60 31 -3 -5 4 -16 15 -26 13 -11 19 -27 18 -45
-2 -17 5 -38 19 -55 19 -24 21 -38 18 -87 -6 -70 -10 -79 -36 -72 -22 6 -43
-28 -21 -35 19 -6 -18 -42 -44 -42 -11 0 -30 7 -41 15 -10 8 -38 15 -62 15
-26 0 -41 4 -37 10 3 6 -5 10 -19 10 -20 0 -27 7 -35 38 -15 50 -14 52 14 78
14 13 25 34 25 48 0 14 4 37 10 51 7 19 6 40 -6 78 -21 65 -42 85 -61 57 -12
-17 -11 -22 6 -39 26 -26 18 -105 -15 -144 -13 -16 -27 -41 -30 -55 -8 -40
-22 -72 -32 -72 -4 0 -17 6 -28 14 -16 13 -17 18 -6 35 7 12 9 21 4 21 -4 0
-12 10 -17 22 -6 12 -15 23 -21 25 -16 5 -25 -52 -14 -83 6 -14 10 -36 10 -50
0 -13 6 -24 13 -24 6 0 41 -21 77 -45 56 -39 65 -49 66 -77 1 -18 4 -77 7
-132 4 -67 3 -105 -5 -120 -7 -11 -11 -26 -10 -33 2 -6 -14 -23 -34 -37 l-38
-25 -18 40 c-13 30 -15 46 -8 59 13 25 13 30 -5 30 -8 0 -15 9 -15 20 0 23
-19 60 -39 76 -10 8 -12 25 -7 70 20 180 21 168 -13 206 -17 20 -31 43 -31 52
0 9 -5 16 -10 16 -6 0 -8 10 -4 24 4 17 -1 34 -17 55 l-23 31 -12 -22 c-10
-19 -10 -26 2 -39 8 -8 14 -23 14 -33 0 -9 7 -30 15 -45 8 -16 17 -47 21 -69
6 -37 4 -40 -26 -56 -18 -9 -34 -16 -34 -16 -1 0 0 18 2 41 4 38 1 44 -47 91
-32 31 -57 48 -66 44 -21 -8 -19 -29 5 -44 15 -9 19 -19 14 -37 -4 -18 -1 -27
10 -31 23 -9 20 -28 -11 -58 -39 -40 -63 -31 -80 29 -8 28 -18 73 -21 100 -8
53 -42 119 -67 129 -8 3 -15 11 -15 18 0 7 -5 30 -11 51 -9 33 -13 36 -35 31
-13 -3 -31 -1 -39 6 -8 6 -19 9 -25 5 -21 -13 -9 -42 26 -61 22 -12 46 -36 61
-64 20 -38 23 -53 17 -95 -12 -83 -10 -126 4 -147 8 -10 20 -17 27 -14 8 3 15
-8 19 -32 9 -56 7 -69 -10 -87 -10 -9 -14 -24 -11 -37 7 -23 -8 -56 -32 -75
-21 -16 -48 14 -57 65 -12 64 -40 108 -81 126 -61 27 -68 33 -66 52 1 10 -3
22 -8 25 -19 11 -81 -18 -106 -50 -25 -32 -25 -32 -44 -12 -11 11 -19 31 -19
45 0 17 -11 32 -32 47 -50 34 -152 130 -163 152 -14 29 -32 32 -40 7 -5 -17 2
-31 31 -61 21 -21 45 -41 54 -44 24 -8 49 -67 43 -99 -4 -20 -1 -31 11 -38 9
-5 16 -13 16 -18 0 -18 -34 -10 -72 16 -43 30 -43 30 -52 -8 -5 -23 -3 -28 18
-34 14 -3 32 -14 42 -25 9 -10 23 -19 29 -19 7 0 15 -6 18 -14 6 -16 72 -30
90 -19 6 4 22 6 35 4 14 -1 22 3 22 13 0 9 13 22 29 31 27 13 33 13 73 -5 47
-21 63 -41 91 -115 45 -118 46 -204 4 -267 -13 -18 -33 -65 -46 -103 -31 -98
-35 -104 -60 -81 -18 16 -25 36 -48 136 -8 32 -66 90 -91 90 -20 0 -94 46
-100 61 -6 16 -72 10 -72 -6 0 -20 69 -95 87 -95 19 0 83 -64 83 -83 0 -12
-12 -14 -67 -9 -38 3 -78 12 -91 20 -29 19 -40 8 -17 -18 26 -29 3 -25 -25 5
-13 14 -18 25 -11 25 7 0 9 5 6 11 -5 7 -12 6 -23 -4 -10 -8 -24 -17 -32 -19
-11 -4 -7 -9 13 -18 15 -7 27 -16 27 -20 0 -14 77 -39 112 -36 28 3 38 0 41
-13 4 -13 5 -13 6 3 1 16 6 18 44 12 23 -4 45 -10 49 -14 4 -4 9 -29 13 -55 7
-62 68 -154 135 -205 46 -35 65 -72 38 -72 -7 0 -24 -12 -40 -27 -34 -32 -94
-54 -126 -46 -32 8 -75 51 -87 88 -7 21 -23 36 -52 50 -24 12 -48 26 -54 32
-9 9 -18 7 -37 -8 -30 -23 -47 -13 -57 34 -4 18 -21 57 -38 87 -18 30 -30 59
-29 64 5 16 -20 59 -55 94 -26 25 -41 32 -66 30 -32 -2 -97 28 -97 45 0 5 -14
7 -30 5 -21 -3 -29 -1 -26 7 2 6 -4 17 -14 23 -14 8 -19 8 -23 -1 -5 -14 40
-63 49 -54 3 3 15 -4 27 -14 65 -59 72 -62 96 -49 19 10 20 7 18 -46 l-2 -56
-35 -3 c-20 -1 -54 -14 -77 -29 -29 -19 -48 -26 -60 -21 -10 4 -44 9 -76 11
-58 4 -106 27 -107 52 0 6 -10 12 -22 12 l-23 -1 23 -19 c13 -11 21 -24 18
-29 -8 -12 70 -80 111 -97 28 -12 39 -12 78 2 25 8 55 12 65 9 13 -4 22 -1 26
9 3 9 10 14 14 11 5 -3 12 0 15 5 4 6 19 9 35 5 23 -5 29 -2 34 17 l7 23 9
-23 c6 -13 14 -21 19 -18 5 3 9 -9 9 -27 0 -18 9 -48 20 -67 11 -19 23 -49 27
-67 3 -17 13 -37 21 -44 17 -14 18 -52 3 -80 -6 -11 -12 -29 -14 -41 -8 -38
-22 -46 -68 -36 -23 5 -52 9 -65 9 -13 -1 -32 3 -41 9 -14 7 -23 5 -36 -10
-10 -11 -21 -17 -26 -14 -10 6 -39 -49 -39 -76 0 -22 33 -29 46 -9 5 8 27 9
73 4 157 -20 202 -5 241 80 11 24 24 47 30 50 5 3 10 17 10 31 0 36 42 33 69
-5 12 -16 21 -32 21 -36 0 -4 12 -27 28 -51 31 -49 69 -70 147 -80 53 -7 89
-15 112 -26 12 -6 33 -8 48 -6 36 7 57 -30 29 -53 -17 -14 -43 8 -36 31 6 20
-8 6 -22 -22 -11 -22 -42 -28 -158 -31 -21 -1 -38 -6 -38 -12 0 -11 54 -46 85
-55 13 -4 20 -14 20 -30 0 -38 -59 -48 -122 -20 -29 13 -49 17 -51 10 -2 -5
-9 -10 -15 -10 -7 0 -18 -9 -25 -20 -14 -23 -2 -26 29 -7 17 10 22 9 35 -8 11
-14 28 -21 62 -22 70 -3 98 5 110 32 7 14 19 25 27 25 9 0 20 11 24 24 15 39
142 63 156 29 7 -19 -26 -53 -51 -53 -8 0 -14 -6 -14 -12 0 -7 -12 -22 -27
-32 -20 -15 -30 -17 -44 -8 -11 7 -20 8 -24 2 -3 -6 -19 -10 -35 -10 -16 0
-33 -6 -37 -13 -12 -20 -58 -48 -66 -40 -4 3 -35 6 -70 6 -34 0 -70 4 -80 9
-9 5 -59 11 -110 14 -59 4 -98 11 -108 20 -8 8 -21 14 -27 14 -7 0 -12 7 -12
15 0 8 -6 15 -12 15 -7 0 -29 17 -48 36 -53 54 -140 94 -140 64 0 -5 12 -13
26 -16 16 -4 23 -11 20 -21 -6 -14 95 -123 113 -123 5 0 25 -19 44 -42 l35
-42 -20 -28 c-10 -15 -26 -28 -34 -28 -8 0 -14 -6 -14 -13 0 -8 -15 -18 -33
-24 -32 -10 -48 -7 -105 20 -31 15 -125 14 -130 -1 -2 -7 -10 -12 -17 -12 -17
0 -46 -40 -39 -52 3 -4 10 -6 15 -3 5 4 9 1 9 -4 0 -6 5 -11 11 -11 6 0 8 8 4
19 -5 18 -3 19 24 8 16 -6 28 -14 25 -19 -3 -4 -11 -5 -19 -1 -8 3 -15 0 -15
-6 0 -14 27 -15 35 -1 3 6 19 10 35 10 16 0 41 5 55 12 21 10 29 8 48 -9 13
-12 43 -23 76 -27 l54 -7 48 54 c46 52 124 103 134 87 2 -4 31 -17 64 -29 33
-12 70 -30 82 -40 21 -17 22 -21 10 -49 -17 -42 -95 -112 -123 -112 -13 -1
-34 -7 -48 -15 -14 -8 -38 -14 -53 -15 -15 0 -45 -8 -67 -19 -23 -11 -44 -15
-52 -10 -7 4 -23 6 -36 2 -25 -6 -37 -2 -144 53 -37 19 -75 34 -85 34 -10 0
-31 7 -47 15 -40 21 -64 19 -121 -13 -54 -29 -68 -58 -39 -79 16 -12 17 -15 4
-23 -36 -23 16 -9 57 16 42 24 48 25 94 14 51 -12 63 -32 37 -58 -10 -10 -10
-17 0 -32 17 -28 16 -34 -19 -54 -27 -16 -32 -16 -42 -2 -10 13 -15 13 -31 1
-38 -29 -8 -35 125 -25 10 1 21 18 29 43 18 57 20 58 62 46 29 -8 41 -19 59
-54 13 -25 29 -45 36 -45 22 0 26 -28 9 -64 -12 -26 -14 -41 -6 -60 8 -21 5
-30 -13 -49 -12 -13 -30 -21 -39 -19 -11 2 -18 -3 -18 -12 0 -9 -7 -16 -16
-16 -11 0 -14 6 -9 20 4 11 2 20 -4 20 -6 0 -11 -4 -11 -9 0 -23 -95 -4 -111
22 -11 16 -81 24 -114 14 -37 -12 -65 -35 -65 -54 0 -8 -9 -26 -20 -40 -11
-14 -20 -34 -20 -43 0 -12 -11 -20 -35 -24 -37 -7 -46 -21 -17 -28 39 -9 75 6
83 36 10 35 73 97 77 75 1 -8 24 -29 50 -47 26 -18 63 -46 81 -62 18 -17 45
-37 59 -44 67 -35 87 -90 67 -183 -11 -50 12 -41 35 13 11 25 20 55 20 65 0
11 5 29 10 39 9 17 3 25 -40 57 -49 37 -72 76 -54 93 9 8 67 18 129 23 19 1
31 8 33 19 2 10 15 31 30 47 15 16 32 36 39 44 13 16 31 83 35 131 2 23 9 31
30 37 22 6 30 2 43 -17 13 -21 23 -24 65 -23 27 1 53 5 58 8 14 9 32 48 32 69
0 28 37 36 50 11 14 -26 30 -24 27 2 -3 31 15 32 37 3 13 -18 19 -45 20 -93 2
-59 -1 -69 -18 -77 -11 -5 -24 -18 -30 -29 -6 -11 -17 -24 -23 -28 -7 -4 -13
-16 -13 -25 0 -9 -13 -32 -29 -51 -30 -37 -82 -49 -102 -24 -6 7 -15 13 -20
13 -16 0 -9 -27 11 -45 11 -10 20 -15 20 -10 0 4 7 2 15 -5 8 -6 19 -9 25 -5
6 4 17 1 25 -5 12 -10 22 -9 49 4 29 13 35 23 41 59 4 23 12 53 18 67 l10 25
8 -30 c5 -16 6 -39 3 -51 -4 -14 4 -40 23 -71 15 -26 26 -50 23 -53 -3 -3 7
-6 23 -8 23 -3 27 0 27 23 0 14 -5 36 -12 48 -6 12 -17 42 -23 67 -12 44 -12
46 20 80 52 56 53 99 5 194 -32 64 -37 83 -29 103 5 14 7 33 5 42 -7 24 34 66
89 90 58 26 59 26 52 1 -4 -16 0 -20 19 -20 17 0 24 -6 24 -20 0 -11 6 -20 13
-20 8 0 17 -26 24 -72 7 -45 17 -74 27 -80 13 -7 13 -12 4 -28 -10 -15 -9 -22
5 -38 9 -10 17 -28 17 -39 0 -25 27 -79 37 -75 5 2 10 -4 11 -14 2 -9 0 -14
-7 -10 -5 4 -15 -3 -21 -14 -8 -15 -7 -27 6 -51 10 -20 14 -43 10 -61 -4 -19
-1 -30 7 -34 9 -3 12 -16 9 -34 -3 -23 0 -30 12 -30 17 0 21 -25 10 -55 -5
-13 -8 -14 -15 -3 -5 7 -7 -28 -4 -80 2 -51 0 -103 -4 -115 -5 -13 -5 -30 0
-39 7 -12 2 -27 -16 -54 -14 -21 -25 -51 -25 -71 0 -35 -16 -72 -37 -86 -7 -4
-13 -15 -13 -23 0 -8 -15 -28 -34 -45 -19 -16 -35 -38 -35 -47 1 -28 -18 -92
-32 -108 -8 -10 -21 -13 -42 -8 -25 5 -29 4 -24 -10 9 -22 -6 -20 -28 4 -10
11 -13 20 -7 20 16 0 15 15 -1 32 -13 13 -17 20 -17 36 0 4 -7 -2 -16 -13 -11
-15 -26 -19 -69 -19 -57 1 -65 -10 -15 -21 29 -6 52 -25 30 -25 -6 0 -8 -10
-4 -24 5 -22 3 -24 -33 -22 -21 1 -48 9 -61 17 -20 12 -24 12 -32 -1 -5 -8 -6
-18 -4 -22 10 -15 -14 -8 -40 13 -37 29 -42 18 -10 -20 14 -18 23 -35 19 -39
-3 -4 -12 1 -19 10 -9 13 -25 17 -53 16 -40 -1 -40 -1 -33 -34 9 -39 2 -50
-16 -26 -13 16 -14 15 -20 -5 -3 -12 -15 -25 -25 -28 -10 -4 -19 -11 -19 -16
0 -6 4 -7 10 -4 6 3 7 -1 4 -10 -4 -9 -13 -14 -21 -11 -8 3 -19 6 -24 6 -5 0
-9 11 -9 25 0 16 -4 23 -14 19 -7 -3 -21 7 -31 22 -14 22 -15 26 -2 21 8 -3
19 -1 25 5 6 6 12 6 16 -1 10 -16 23 -13 23 4 0 11 -11 15 -37 15 -36 0 -70
23 -70 48 0 7 -5 12 -11 12 -7 0 -9 -10 -4 -27 17 -72 18 -93 0 -93 -9 0 -25
5 -36 10 -15 8 -19 7 -19 -4 0 -8 13 -17 29 -21 29 -6 71 -39 71 -55 0 -6 -16
-10 -35 -10 -19 0 -35 -4 -35 -9 0 -20 -61 23 -106 74 -26 30 -53 55 -59 55
-7 0 -15 7 -19 15 -3 8 -10 15 -15 15 -9 0 -3 -30 14 -73 6 -13 3 -16 -9 -11
-22 8 -20 -12 2 -34 10 -10 16 -24 14 -30 -2 -7 3 -12 11 -12 7 0 22 -9 32
-20 16 -17 16 -20 2 -26 -24 -9 -60 -1 -65 15 -3 10 1 12 17 8 11 -3 21 -1 21
4 0 13 -18 11 -69 -7 -24 -8 -50 -13 -58 -10 -20 8 -85 -26 -79 -41 9 -22 -16
-14 -46 14 -21 20 -31 24 -40 15 -9 -9 -9 -18 0 -37 7 -14 12 -34 12 -43 -1
-9 -7 -2 -15 16 -19 43 -32 41 -27 -4 4 -34 3 -35 -17 -25 -11 7 -21 18 -21
25 0 8 -7 16 -15 20 -8 3 -15 12 -15 19 0 24 -25 40 -38 24 -8 -10 -4 -24 18
-58 29 -42 40 -89 21 -89 -4 0 -21 12 -37 27 -28 27 -92 38 -110 20 -13 -12 4
-19 22 -9 14 8 26 4 56 -19 24 -19 35 -35 31 -45 -4 -11 -9 -12 -16 -5 -14 14
-107 14 -107 1 0 -5 3 -9 8 -9 25 4 62 -3 62 -11 0 -7 -24 -10 -61 -8 -36 2
-63 -1 -66 -7 -2 -6 14 -10 37 -10 51 0 73 -20 46 -41 -28 -20 -56 -17 -83 8
-30 28 -31 3 -1 -29 17 -19 18 -23 6 -23 -9 0 -19 6 -22 13 -5 10 -7 9 -12 0
-3 -7 -13 -13 -21 -13 -9 0 -13 -6 -10 -14 3 -7 0 -19 -6 -25 -8 -8 -7 -11 6
-11 11 0 17 -8 17 -25 0 -23 -4 -25 -42 -26 -95 -3 -107 -4 -114 -12 -5 -4 -2
-12 5 -16 8 -5 9 -11 3 -15 -5 -3 -17 6 -27 20 -15 24 -18 24 -29 9 -11 -15
-16 -16 -35 -5 -44 23 -91 -6 -60 -37 9 -9 5 -20 -15 -43 -14 -17 -26 -35 -26
-40 0 -4 -14 -13 -30 -20 -37 -15 -35 -30 8 -50 31 -15 42 -30 22 -30 -5 0
-10 -7 -10 -15 0 -9 -9 -15 -22 -15 -29 -1 -101 -34 -92 -43 4 -3 15 -2 26 4
14 7 22 6 34 -6 8 -8 25 -15 36 -15 16 0 18 -4 12 -17 -14 -33 -14 -113 1
-113 10 0 11 -8 3 -37 -6 -21 -13 -67 -17 -103 -7 -63 -6 -66 24 -93 16 -15
31 -23 33 -17 2 5 9 10 16 10 6 0 17 12 24 28 7 15 23 45 35 67 l21 40 12 -45
c19 -75 24 -84 52 -98 25 -12 29 -11 54 20 27 31 28 32 43 13 8 -11 20 -28 26
-38 5 -9 15 -17 21 -17 6 0 17 -8 25 -17 13 -17 14 -16 8 5 -10 34 12 27 31
-10 9 -18 26 -43 37 -56 18 -20 19 -24 7 -32 -14 -9 -7 -14 13 -11 11 2 9 -17
-3 -24 -17 -11 -12 -90 8 -108 50 -47 63 -57 71 -57 5 0 22 -7 37 -15 16 -8
37 -15 46 -15 9 0 21 -7 26 -16 7 -13 13 -14 31 -5 14 8 21 8 21 1 0 -6 10 -8
23 -5 16 4 29 -1 46 -19 13 -13 30 -22 37 -19 8 3 23 -2 33 -11 31 -28 90
-130 99 -172 11 -48 67 -129 90 -129 10 0 20 -13 26 -30 5 -16 15 -43 22 -60
6 -16 14 -39 16 -50 2 -13 12 -21 30 -23 18 -2 28 -11 32 -28 5 -17 13 -24 32
-24 36 0 113 42 168 92 72 65 146 100 146 68 0 -5 11 -12 25 -16 21 -5 29 -18
46 -78 24 -81 46 -106 97 -106 20 0 44 -8 55 -18 15 -12 21 -14 24 -4 7 19 26
14 43 -11 43 -61 56 -229 25 -311 -17 -45 -15 -94 11 -270 8 -52 44 -81 119
-96 33 -7 89 -21 124 -31 71 -21 119 -24 171 -9 19 5 38 6 43 1 9 -9 42 19 70
62 9 15 26 27 37 27 11 0 20 7 20 16 0 8 -4 12 -10 9 -20 -12 -9 22 13 41 34
30 100 78 122 90 32 18 113 124 109 142 -8 31 88 70 98 41 3 -8 10 -9 23 -2
11 6 37 18 58 27 22 9 41 26 47 42 6 14 17 32 25 40 13 14 13 17 0 30 -14 15
-13 42 2 84 3 8 7 23 8 34 1 10 25 40 54 67 38 36 61 49 82 49 16 0 29 -4 29
-9 0 -5 9 -12 19 -16 13 -4 23 -22 31 -56 11 -43 17 -52 48 -64 21 -10 54 -13
84 -11 31 3 46 1 42 -5 -3 -6 3 -13 15 -16 13 -3 29 -23 40 -49 21 -48 59 -66
92 -45 10 6 26 11 34 11 9 0 33 9 55 20 22 11 53 20 69 20 20 0 35 8 45 22 14
20 19 21 47 11 20 -8 39 -9 55 -2 14 5 40 9 57 9 60 0 78 19 99 95 24 94 50
177 59 195 24 48 69 150 69 157 0 5 18 26 39 47 22 21 42 48 45 60 3 12 17 29
32 36 38 21 47 45 49 140 4 132 17 188 54 224 56 56 81 87 81 99 0 11 37 41
52 42 4 0 13 6 20 14 11 11 11 13 -1 6 -9 -5 -12 -3 -9 6 3 8 15 13 27 12 12
-2 38 4 58 12 34 14 35 17 29 52 -4 21 -9 47 -12 58 -3 11 5 2 18 -19 25 -44
38 -48 53 -19 9 17 15 18 39 10 24 -8 32 -6 43 9 7 10 13 26 13 36 0 22 8 23
31 2 17 -15 73 -27 123 -25 29 0 39 16 27 40 -9 15 -8 25 1 40 10 17 8 23 -15
41 -37 29 -26 40 37 40 29 0 68 5 85 11 47 17 24 33 -50 35 -33 1 -65 6 -72
13 -8 8 -6 11 9 12 35 1 87 9 92 14 3 3 -1 16 -8 30 -9 18 -19 23 -34 20 -12
-3 -42 -7 -68 -9 -48 -3 -48 -3 -26 15 11 11 30 19 40 19 10 0 33 7 50 16 16
9 50 16 74 16 26 0 42 4 38 10 -3 5 3 12 15 15 12 3 21 9 21 14 0 5 -10 7 -22
4 -13 -3 -55 -7 -94 -8 -52 -1 -77 -7 -91 -20 -35 -31 -38 -18 -3 18 l34 35
-22 20 c-17 16 -26 18 -41 10 -26 -13 -31 -13 -31 4 0 8 9 18 20 21 11 3 20
10 20 15 0 14 -42 34 -64 31 -10 -1 -29 0 -43 4 -18 4 -23 10 -18 25 4 12 0
22 -13 29 -24 13 -122 20 -129 9 -7 -12 -58 43 -65 70 -4 15 1 29 19 44 13 13
28 33 34 46 8 20 14 22 44 16 33 -6 35 -5 35 20 0 19 5 26 20 26 11 0 20 5 20
11 0 7 -10 9 -27 4 -26 -7 -63 -16 -143 -34 -19 -4 -50 -15 -68 -25 -19 -10
-36 -15 -39 -12 -4 3 -12 -2 -19 -12 -7 -9 -13 -12 -14 -7 0 17 17 38 27 32 5
-3 20 12 34 33 13 22 29 38 36 35 7 -2 15 0 18 5 3 4 -1 10 -7 13 -10 3 -9 9
3 21 14 15 19 15 60 1 l44 -15 -27 24 c-15 13 -33 26 -40 28 -11 4 -11 8 1 21
12 15 11 17 -9 17 -20 0 -21 2 -9 18 13 16 13 16 -6 2 -11 -8 -26 -21 -33 -27
-22 -21 -37 -15 -38 15 -1 15 1 22 3 15 6 -15 33 -5 33 13 0 7 12 20 28 28 26
15 26 15 -22 9 l-49 -6 6 34 7 34 -25 -28 c-41 -47 -71 -21 -40 33 17 30 19
50 5 50 -5 0 -10 -7 -10 -15 0 -8 -4 -15 -9 -15 -5 0 -11 -9 -14 -21 -7 -24
-33 -20 -31 5 2 24 -12 20 -34 -11 l-20 -28 8 43 c8 46 2 53 -18 22 -9 -15 -9
-20 0 -20 6 0 9 -2 6 -5 -3 -3 -29 4 -58 15 -37 15 -56 18 -64 10 -7 -7 -5
-10 6 -10 9 0 23 -6 31 -14 7 -8 24 -16 37 -18 18 -2 24 -10 25 -30 0 -23 -4
-28 -22 -28 -15 0 -27 8 -31 20 -10 28 -59 59 -83 53 -11 -3 -22 -17 -25 -32
-3 -14 -7 -32 -10 -38 -2 -8 5 -13 17 -13 16 0 19 4 14 18 -11 29 -11 33 7 45
14 9 22 7 43 -13 31 -29 32 -40 1 -40 -13 0 -29 -7 -36 -15 -7 -8 -16 -12 -21
-9 -5 3 -6 -1 -3 -9 11 -29 -18 -29 -47 -1 -28 27 -31 28 -40 11 -14 -24 -29
-12 -29 24 0 18 4 28 10 24 18 -11 10 4 -16 30 -20 20 -29 23 -44 15 -13 -7
-20 -6 -22 2 -3 8 -21 8 -71 -2 -38 -7 -70 -10 -74 -7 -3 3 10 15 28 27 l34
21 -32 -6 c-37 -7 -43 4 -17 30 12 12 19 13 24 5 6 -9 9 -9 15 0 6 9 9 9 16
-1 11 -18 23 -4 15 17 -3 9 -12 14 -21 10 -18 -7 -18 2 0 34 21 36 19 60 -3
29 -21 -32 -38 -48 -80 -78 -33 -23 -92 -45 -91 -33 3 21 -3 24 -16 6 -8 -10
-15 -14 -15 -8 0 20 29 37 72 41 46 4 78 26 78 55 0 10 5 18 10 18 6 0 10 6
10 14 0 15 -82 32 -101 20 -8 -4 -7 0 1 15 16 30 23 98 10 106 -5 3 -29 -5
-53 -19 -24 -15 -47 -26 -50 -26 -13 0 -7 46 9 68 14 21 14 22 -5 22 -12 0
-21 4 -21 9 0 5 -8 8 -17 7 -32 -2 -21 38 15 56 47 23 52 32 14 25 -38 -8
-102 -53 -102 -73 0 -7 -5 -16 -12 -20 -7 -4 -8 -3 -4 4 4 7 2 12 -3 12 -6 0
-11 -4 -11 -10 0 -5 -5 -10 -11 -10 -16 0 -2 46 23 75 25 29 43 33 34 8 -4
-10 7 -2 24 17 20 23 33 31 38 24 5 -8 13 -3 26 14 l19 25 -34 -7 c-29 -5 -63
-25 -125 -71 -26 -19 -25 5 3 56 34 64 87 119 113 119 11 0 20 5 20 10 0 38
-122 -46 -142 -97 -6 -18 -16 -33 -20 -33 -4 0 -8 -7 -8 -15 0 -8 -9 -15 -20
-15 -11 0 -20 -5 -20 -11 0 -5 5 -7 10 -4 18 11 10 -22 -9 -39 -23 -21 -44
-12 -36 15 4 11 2 19 -4 19 -6 0 -11 -7 -11 -15 0 -15 -19 -22 -21 -7 0 4 -2
19 -4 35 -4 26 -3 27 18 12 29 -20 40 -19 28 3 -7 13 -6 23 1 30 7 7 9 14 6
17 -3 3 -13 -2 -23 -11 -17 -17 -18 -17 -30 0 -14 18 -32 5 -20 -14 4 -6 1
-17 -5 -25 -10 -12 -14 -12 -29 3 -21 20 -36 72 -21 72 5 0 10 7 10 15 0 19 9
19 29 1 14 -12 18 -12 29 0 7 8 9 14 5 15 -4 0 -20 2 -35 4 -16 2 -33 -3 -43
-15 -16 -18 -18 -18 -39 7 -27 31 -40 25 -57 -24 -9 -28 -9 -38 0 -41 6 -2 11
-13 11 -24 0 -15 5 -18 20 -13 12 4 20 2 20 -5 0 -6 -4 -8 -10 -5 -5 3 -10 2
-10 -4 0 -5 5 -13 10 -16 6 -3 10 -20 10 -36 0 -19 -4 -28 -11 -24 -6 4 -8 13
-5 20 9 25 -20 49 -58 48 -45 -1 -93 -20 -100 -39 -8 -21 -36 -17 -36 6 0 14
5 18 18 14 16 -5 16 -5 0 9 -10 8 -18 18 -18 22 0 5 -7 16 -16 26 -13 15 -20
16 -41 6 -19 -9 -26 -8 -34 4 -5 8 -7 20 -4 26 2 7 7 35 11 61 5 41 3 50 -11
56 -9 3 -21 4 -26 0 -5 -3 -22 4 -38 15 -31 23 -46 27 -36 11 3 -5 1 -10 -5
-10 -7 0 -10 6 -7 13 2 6 -3 20 -11 30 -9 10 -19 45 -23 78 -5 46 -13 66 -34
86 -19 19 -25 34 -22 51 3 14 -6 48 -19 77 -17 37 -23 63 -19 91 2 21 0 41 -6
44 -6 5 -4 28 7 69 15 52 16 66 5 83 -17 28 -25 95 -11 103 5 3 10 14 10 25 0
10 7 20 15 24 8 3 19 16 24 29 8 21 15 23 55 20 42 -3 46 -1 52 22 3 14 11 25
18 26 6 0 29 3 52 5 32 4 44 0 59 -16 10 -11 13 -20 7 -20 -15 0 -16 -32 -2
-46 14 -14 3 -40 -26 -59 -13 -8 -24 -13 -24 -10 0 3 -9 1 -20 -5 -13 -7 -20
-21 -20 -40 0 -27 -3 -30 -33 -30 -18 0 -41 6 -52 14 -22 15 -53 8 -73 -17
-10 -12 -10 -18 3 -31 19 -18 31 -20 40 -6 8 13 52 13 60 0 3 -5 12 -7 20 -3
8 3 15 1 16 -3 2 -27 9 -48 18 -57 6 -6 11 -21 11 -33 0 -27 16 -40 24 -19 3
8 13 15 21 15 14 0 14 3 -1 29 -16 26 -16 35 -4 70 8 27 21 43 39 51 15 6 38
21 52 34 14 13 35 27 47 30 18 6 25 1 38 -27 14 -30 23 -35 60 -41 71 -9 100
13 47 36 -31 13 -72 56 -73 75 0 7 -10 18 -22 24 -33 17 -60 47 -48 54 6 3 10
10 10 14 0 14 -42 56 -52 53 -6 -2 -8 4 -5 11 4 10 -10 22 -41 38 -61 30 -81
49 -53 49 11 0 28 10 38 23 10 12 30 30 45 40 29 18 63 23 54 8 -5 -8 40 -26
56 -23 4 1 15 -10 25 -26 9 -15 35 -49 56 -75 34 -41 43 -47 67 -42 22 5 29 1
38 -20 7 -15 20 -25 32 -25 31 0 24 -30 -10 -42 -60 -21 -91 -128 -48 -168 16
-14 18 -20 7 -21 -8 0 2 -6 21 -14 19 -7 34 -18 32 -24 -1 -6 6 -11 16 -11 10
0 41 -12 70 -26 37 -18 56 -23 68 -16 13 7 22 6 32 -5 13 -12 17 -11 34 6 19
21 44 29 33 11 -3 -5 7 -13 22 -16 24 -7 25 -8 8 -14 -11 -4 -24 -4 -28 0 -9
8 -29 -1 -74 -30 -44 -29 -22 -84 48 -120 19 -10 41 -26 48 -34 8 -9 17 -16
22 -16 16 0 9 29 -10 39 -25 14 -43 61 -39 102 3 31 7 34 46 42 31 6 42 13 42
27 0 27 12 31 53 18 42 -13 96 7 138 52 34 37 97 48 133 25 14 -10 33 -15 41
-11 21 8 19 36 -3 36 -10 0 -22 4 -28 10 -12 12 -73 16 -97 6 -14 -7 -16 -5
-10 10 4 12 -9 6 -42 -19 -54 -41 -79 -46 -109 -18 -12 10 -45 26 -73 37 -51
17 -54 17 -90 -1 -21 -10 -40 -19 -43 -20 -3 -1 -13 -5 -24 -10 -25 -11 -69 6
-76 30 -3 11 -11 20 -19 20 -8 0 -19 8 -25 18 -13 20 5 37 38 37 11 0 30 10
44 22 20 20 35 23 109 25 48 1 97 -3 109 -7 13 -5 26 -5 29 -1 2 5 -5 12 -18
16 -18 5 -10 9 37 21 60 14 148 53 154 67 7 14 24 7 18 -8 -3 -9 0 -15 10 -15
22 0 29 29 10 48 -22 22 -119 21 -164 -2 -18 -9 -49 -16 -70 -16 -20 1 -48 1
-62 2 -14 0 -32 -1 -40 -3 -8 -2 -15 3 -15 11 0 8 -6 19 -12 23 -7 4 -13 19
-13 32 0 19 -4 23 -17 18 -16 -6 -16 -5 -4 11 23 27 51 40 64 27 6 -6 21 -11
33 -11 13 0 25 -8 29 -18 9 -30 49 -44 68 -25 11 11 20 13 29 6 7 -5 27 -10
45 -11 53 -3 78 40 52 90 -8 15 -8 23 1 32 8 8 9 6 4 -9 -4 -12 -3 -17 2 -12
9 8 35 109 30 115 -2 1 -10 0 -19 -3 -15 -6 -30 -39 -28 -61 1 -6 -6 -17 -14
-24 -8 -7 -15 -18 -15 -25 0 -8 -12 -22 -27 -33 l-27 -20 -43 44 c-38 40 -45
44 -78 38 -25 -4 -35 -2 -30 5 3 6 1 11 -4 11 -6 0 -11 7 -11 15 0 8 -3 15 -7
15 -5 0 -24 23 -43 50 -19 28 -45 53 -57 56 -13 3 -23 12 -23 20 0 18 -14 18
-29 0 -9 -11 -4 -19 24 -40 32 -25 35 -31 32 -73 -3 -42 -6 -48 -31 -54 -15
-4 -34 -5 -41 -3 -7 3 -16 1 -20 -5 -8 -14 -21 -14 -37 2 -22 21 -62 35 -96
32 -17 -2 -32 1 -32 6 0 5 7 9 15 9 8 0 15 5 15 10 0 10 -3 11 -32 14 -17 1
-37 85 -27 113 5 14 4 23 -3 25 -7 3 -2 17 12 37 24 31 26 32 85 27 33 -3 89
-12 124 -21 59 -14 64 -14 78 2 14 17 14 17 9 1 -7 -22 16 -24 33 -4 7 8 28
17 47 21 30 5 42 1 86 -30 55 -40 88 -36 44 6 -14 13 -26 34 -26 46 0 15 -5
21 -13 17 -24 -9 -13 62 14 91 13 13 28 25 33 25 5 0 20 12 33 26 13 14 26 24
29 21 11 -10 65 15 75 35 10 19 9 20 -12 15 -13 -3 -42 -2 -63 3 -61 13 -89
-7 -126 -89 -6 -13 -18 -30 -28 -37 -14 -11 -15 -16 -4 -33 14 -25 6 -27 -18
-6 -16 14 -22 14 -66 -1 -64 -22 -86 -21 -122 5 -36 25 -53 89 -28 103 14 8
14 12 -2 35 -16 26 -16 27 2 20 13 -5 17 -3 13 6 -9 25 28 46 70 41 26 -4 34
-3 24 4 -18 13 10 29 68 38 22 4 41 11 41 16 0 6 -7 7 -16 4 -11 -4 -15 -2
-11 8 3 7 2 30 -3 50 -5 21 -4 38 2 42 5 3 5 11 -2 19 -8 10 -8 19 -1 34 6 11
11 28 11 39 0 11 12 27 26 37 15 9 23 12 19 5 -5 -8 -3 -11 6 -8 8 3 15 12 17
21 4 19 -21 14 -49 -10 -9 -7 -23 -11 -32 -7 -12 4 -18 -2 -23 -21 -4 -17 -11
-24 -20 -21 -14 5 -19 -10 -16 -46 1 -10 -3 -18 -8 -18 -6 0 -27 -18 -47 -40
-39 -42 -72 -51 -93 -25 -8 9 -29 15 -54 15 -22 -1 -52 -1 -65 -1 -14 1 -34
-7 -45 -18 -48 -43 -106 -31 -112 23 -4 41 -11 58 -25 67 -12 8 -12 11 2 22
18 14 31 57 17 57 -5 0 -8 10 -6 22 5 34 51 47 88 24 33 -19 112 -21 191 -3
42 9 47 8 73 -17 22 -19 35 -24 55 -20 36 9 51 24 23 24 -27 0 -29 20 -2 27
11 3 20 9 20 13 0 4 9 10 20 13 11 3 20 10 20 16 0 19 -26 12 -48 -14 -21 -24
-62 -35 -62 -16 0 5 -2 16 -5 23 -4 9 7 21 28 33 28 15 34 24 35 53 1 20 10
44 22 57 26 28 25 38 -2 29 -37 -11 -83 -54 -88 -83 -3 -14 -11 -27 -18 -27
-6 -1 -25 -2 -42 -3 -23 -1 -33 -8 -46 -36 -9 -19 -20 -35 -25 -35 -5 0 -31 9
-57 21 -108 48 -135 54 -174 38 -16 -6 -31 -9 -34 -6 -10 10 21 48 44 54 18 4
20 8 11 19 -16 20 10 28 46 14 19 -7 32 -7 38 -1 6 6 9 13 6 15 -5 5 -53 14
-82 15 -10 1 -17 7 -14 14 2 6 14 11 25 9 22 -3 30 12 12 23 -16 10 -11 31 8
32 9 1 38 6 64 12 27 6 54 8 61 5 7 -2 25 6 39 19 13 13 29 22 34 20 5 -2 10
16 11 38 2 23 7 47 11 53 5 6 12 19 16 30 5 14 2 17 -9 12 -10 -4 -15 1 -15
16 0 20 -1 20 -19 4 -11 -10 -23 -31 -26 -47 -4 -16 -12 -29 -18 -29 -6 0 -20
-9 -31 -19 -12 -11 -39 -21 -61 -23 -35 -3 -41 0 -49 23 -5 15 -5 35 -1 45 5
11 7 25 6 32 -1 8 10 25 25 38 24 23 30 24 55 13 26 -10 33 -9 64 12 33 23 53
59 33 59 -5 0 -21 -9 -34 -19 -38 -30 -88 -5 -96 47 -3 21 -9 16 -46 -37 -29
-41 -41 -68 -37 -80 3 -11 -1 -26 -10 -34 -8 -9 -15 -21 -15 -27 0 -7 -6 -24
-13 -38 -37 -74 -57 -118 -57 -128 0 -6 -11 -21 -25 -34 -14 -13 -29 -38 -33
-54 -7 -27 -13 -31 -43 -31 -33 0 -34 1 -32 35 4 85 26 121 69 112 17 -3 24 0
24 12 0 9 -4 16 -9 16 -6 0 -3 20 6 45 8 25 18 45 23 45 14 0 70 54 70 67 0
20 -35 15 -55 -7 -10 -12 -24 -19 -31 -16 -12 5 -54 -33 -54 -50 0 -5 11 5 25
21 13 17 24 24 25 17 0 -16 -45 -62 -60 -62 -6 0 -9 4 -5 9 3 6 -2 14 -12 19
-15 9 -13 13 12 36 15 14 35 26 44 26 16 0 81 59 81 73 0 11 -35 8 -47 -4 -8
-8 -17 -8 -31 0 -14 7 -29 8 -46 1 -29 -11 -35 -29 -10 -26 9 0 19 -5 21 -11
6 -15 -16 -17 -51 -3 -18 7 -24 14 -19 26 6 17 -6 17 -69 -2 -16 -5 -18 2 -18
46 0 28 -5 60 -10 71 -6 10 -9 19 -8 19 2 0 29 4 61 10 62 10 98 32 131 81 15
22 38 36 81 50 56 19 135 82 135 108 0 5 3 16 6 25 12 32 -24 16 -45 -20 -19
-33 -24 -35 -54 -28 -17 4 -38 7 -44 7 -7 0 -13 4 -13 8 0 4 -6 14 -14 21 -7
8 -17 28 -20 45 -6 27 -3 34 19 49 25 16 26 19 10 30 -15 11 -15 14 0 44 12
24 15 45 10 79 -8 64 -10 111 -5 145 7 42 -13 43 -33 1z m-663 -740 c9 -9 21
-35 27 -58 6 -23 14 -49 18 -57 5 -8 3 -23 -3 -32 -7 -12 -7 -26 0 -45 8 -23
6 -34 -13 -65 -13 -21 -23 -44 -23 -52 0 -8 -5 -16 -12 -18 -14 -5 -37 -84
-46 -161 -4 -32 -11 -56 -17 -55 -5 2 -9 10 -8 19 1 9 -9 27 -22 39 -14 13
-25 33 -25 45 0 13 -15 32 -40 51 -27 20 -42 39 -46 61 -3 18 -12 37 -20 44
-19 15 -30 -34 -15 -67 6 -14 8 -37 5 -52 -4 -20 -3 -23 5 -12 8 12 13 12 35
0 31 -16 34 -30 7 -30 -11 0 -23 -4 -26 -10 -3 -5 -33 -10 -65 -10 -32 0 -61
-4 -64 -8 -3 -5 8 -22 24 -37 28 -26 32 -27 79 -18 53 11 61 9 61 -15 0 -8 15
-32 34 -53 42 -45 73 -139 46 -139 -5 0 -7 -6 -4 -14 8 -22 -14 -91 -36 -111
-19 -18 -20 -17 -20 3 0 12 -4 22 -8 22 -5 0 -14 10 -21 23 -6 12 -25 31 -41
42 -23 15 -30 28 -30 52 0 26 -10 40 -61 84 -74 64 -88 93 -59 124 11 12 20
26 20 32 0 15 31 81 58 125 13 21 21 41 18 46 -2 4 0 28 5 53 12 51 49 94 89
102 32 7 44 39 35 91 -8 42 10 57 71 61 25 2 48 6 51 9 10 10 21 7 37 -9z
m561 -115 c3 -5 0 -18 -7 -29 -10 -17 -9 -24 11 -45 l23 -24 -49 -37 c-54 -41
-68 -67 -51 -94 9 -14 7 -23 -5 -42 -10 -13 -17 -31 -17 -41 0 -9 -8 -23 -19
-30 -10 -7 -20 -22 -22 -32 -2 -11 -10 -21 -16 -24 -19 -6 -28 28 -14 49 6 11
14 42 16 70 3 28 10 60 16 70 5 10 7 19 3 19 -3 0 -1 7 6 15 14 17 8 31 -9 20
-6 -3 -11 -17 -11 -31 0 -20 -4 -23 -23 -19 -16 4 -28 -1 -42 -18 -38 -45 -48
-71 -46 -121 1 -58 -4 -68 -39 -86 -15 -8 -20 -15 -12 -18 13 -4 -11 -44 -56
-94 -29 -32 -82 -39 -82 -12 0 8 -11 30 -24 47 -44 58 -34 134 24 198 30 33
46 42 76 45 29 3 46 11 64 34 14 17 30 30 36 30 7 0 19 15 29 33 9 17 23 43
30 56 15 27 45 48 45 31 0 -5 5 -10 11 -10 5 0 8 4 5 8 -3 5 10 15 29 22 19 8
35 20 35 27 0 8 15 20 33 28 39 17 44 18 52 5z m-11 -446 c9 -3 16 -12 16 -20
0 -8 5 -14 10 -14 13 0 3 -46 -16 -77 -7 -12 -23 -23 -34 -25 -12 -2 -20 -7
-20 -11 0 -4 -6 -15 -15 -23 -8 -9 -15 -22 -15 -30 0 -8 -6 -14 -12 -14 -96
-3 -160 -11 -178 -22 -11 -7 -32 -37 -46 -66 -26 -55 -108 -151 -119 -140 -25
24 23 178 55 178 70 1 137 63 124 116 -10 41 41 83 124 99 17 4 32 11 32 16 0
5 7 9 15 9 8 0 15 4 15 9 0 5 10 12 23 14 12 2 23 5 24 6 1 0 8 -2 17 -5z m29
-386 c10 9 16 2 25 -32 8 -32 18 -45 34 -50 37 -9 107 -7 126 5 17 10 63 -4
103 -33 18 -12 49 -5 49 12 0 5 -7 10 -15 10 -8 0 -15 5 -15 10 0 6 9 10 19
10 25 0 61 -50 61 -84 l0 -27 -89 6 c-109 6 -136 -3 -157 -52 -9 -21 -21 -48
-27 -60 -21 -47 -121 -93 -103 -48 8 23 -14 33 -52 24 -39 -8 -72 9 -72 38 0
7 -5 13 -11 13 -6 0 -9 6 -7 13 3 6 30 15 62 18 39 4 61 12 71 25 12 16 12 19
-1 22 -8 2 -21 -1 -27 -7 -16 -13 -61 -8 -81 9 -19 15 -21 37 -4 42 11 4 14
65 4 75 -11 11 -36 -20 -31 -37 3 -11 -16 -50 -52 -104 -31 -47 -58 -84 -59
-83 -2 1 3 34 9 72 13 77 29 106 99 176 46 47 47 47 87 37 29 -7 45 -7 54 0z
m-193 -2463 c-12 -15 0 -22 14 -8 3 4 14 8 22 9 14 2 14 0 -1 -16 -11 -12 -13
-20 -5 -25 8 -5 8 -11 -1 -21 -8 -10 -9 -18 0 -27 6 -8 8 -17 4 -20 -3 -4 -1
-7 6 -7 7 0 15 9 18 20 6 24 16 25 37 5 18 -19 26 -19 26 -1 0 21 22 25 39 8
13 -13 16 -12 21 4 6 17 8 17 19 -4 7 -12 17 -20 22 -16 6 3 8 9 5 12 -9 8 15
33 25 26 5 -3 0 -18 -11 -34 -13 -19 -17 -31 -10 -35 6 -4 7 -12 3 -19 -4 -7
-1 -5 7 4 23 25 44 29 57 11 9 -11 12 -12 13 -3 0 7 5 10 10 7 8 -5 7 -11 -1
-21 -17 -21 -2 -17 30 7 17 13 34 18 42 14 9 -6 11 -3 6 8 -4 11 -1 17 8 17 8
0 15 5 15 10 0 6 -11 8 -27 4 l-28 -6 30 21 c28 19 30 19 36 3 3 -9 -1 -30
-11 -47 -30 -56 -19 -103 16 -68 17 17 18 17 11 1 -4 -12 -2 -18 8 -18 17 0
20 -16 5 -25 -6 -4 -8 -10 -5 -15 3 -4 -3 -6 -12 -4 -14 4 -22 -6 -35 -41 -12
-35 -13 -45 -3 -41 7 2 16 -5 19 -17 5 -17 8 -19 15 -8 6 9 16 11 27 7 14 -5
15 -9 5 -15 -7 -5 -18 -19 -24 -31 -17 -33 -31 -34 -47 -5 -7 14 -18 25 -23
25 -5 0 -3 -7 4 -16 12 -15 11 -16 -11 -10 -17 5 -21 4 -11 -2 9 -7 10 -12 2
-16 -8 -5 -8 -13 0 -27 8 -16 7 -25 -5 -38 -22 -25 -8 -34 16 -11 15 13 19 26
14 44 -3 14 -2 28 4 31 5 3 10 0 10 -8 0 -8 6 -26 13 -41 14 -25 14 -25 35 -6
14 14 23 16 28 9 5 -8 10 -6 16 5 5 9 14 16 20 16 18 0 38 34 27 47 -7 8 -4
15 12 23 16 9 20 9 14 1 -4 -7 -1 -19 6 -27 10 -12 8 -18 -10 -35 -18 -17 -20
-24 -10 -35 8 -10 15 -11 24 -4 8 7 12 5 12 -5 0 -8 -6 -16 -14 -19 -7 -3 -13
-1 -13 4 0 6 -5 10 -11 10 -6 0 -9 -7 -5 -15 8 -21 -28 -20 -49 2 -11 10 -19
12 -23 6 -4 -5 -14 -13 -22 -16 -12 -4 -11 -6 3 -6 21 -1 40 -43 23 -53 -7 -5
-1 -17 17 -36 26 -27 37 -72 18 -72 -5 0 -11 -10 -13 -22 -5 -34 -55 -34 -55
-1 0 22 1 23 17 8 17 -15 19 -15 25 5 4 12 4 24 1 27 -3 4 -6 1 -6 -5 0 -21
-16 -13 -29 14 -10 22 -9 28 6 39 10 8 14 17 10 21 -4 5 -12 2 -17 -6 -7 -11
-10 -8 -10 13 0 33 -17 70 -29 62 -5 -3 -5 -22 0 -42 4 -21 6 -48 3 -59 -3
-12 0 -25 6 -29 7 -4 9 -18 5 -35 -5 -23 -2 -32 14 -42 12 -7 21 -23 21 -35 0
-12 5 -25 10 -28 15 -9 2 -25 -15 -19 -7 3 -11 12 -8 19 2 8 0 20 -6 27 -6 7
-21 26 -32 41 -12 16 -27 26 -35 23 -8 -3 -14 1 -14 9 0 8 -4 15 -10 15 -5 0
-10 -7 -10 -15 0 -10 -6 -12 -17 -8 -16 6 -16 5 -4 -11 8 -10 23 -15 33 -12
13 3 23 -3 31 -21 10 -22 8 -27 -13 -43 l-23 -18 22 -11 c12 -7 29 -11 39 -10
23 4 62 -10 62 -21 0 -5 -7 -7 -15 -4 -8 4 -15 1 -15 -6 0 -6 5 -8 10 -5 12 8
13 -15 1 -34 -5 -7 -14 -10 -20 -7 -6 4 -9 12 -5 17 5 8 -30 49 -42 49 -2 0 6
-21 16 -46 11 -25 20 -55 20 -66 0 -19 -1 -19 -20 5 -11 14 -20 34 -20 44 0
11 -8 28 -18 39 -10 11 -16 26 -14 33 3 8 0 11 -7 7 -6 -4 -11 -14 -11 -22 0
-23 -36 -16 -54 11 -9 14 -23 25 -31 25 -11 0 -9 -8 9 -34 12 -19 28 -48 35
-64 7 -17 19 -33 27 -36 12 -4 12 -2 4 14 -6 11 -8 25 -4 31 3 6 12 -1 20 -17
13 -24 12 -29 -2 -45 -9 -10 -20 -16 -25 -14 -4 3 -10 1 -14 -5 -3 -5 -16 -9
-28 -9 -17 1 -18 2 -4 6 9 2 17 9 17 14 0 6 -8 9 -17 7 -13 -2 -17 3 -15 15 3
15 -1 17 -17 12 -11 -3 -30 -1 -42 5 -19 11 -20 10 -14 -10 5 -15 2 -26 -6
-31 -8 -5 3 -6 26 -2 36 6 39 5 26 -10 -7 -10 -19 -17 -26 -17 -8 0 -11 -19
-10 -62 2 -79 -10 -126 -42 -155 -29 -28 -35 -29 -31 -5 2 11 -3 17 -14 16
-10 -1 -18 3 -18 8 0 7 16 8 40 5 44 -6 55 9 15 19 -14 3 -29 12 -33 20 -6 10
-15 9 -49 -6 -48 -21 -62 -16 -30 11 24 20 20 22 -33 19 -32 -2 -101 -50 -71
-50 20 0 12 -26 -9 -27 -11 -1 -18 2 -15 8 4 5 1 9 -5 9 -13 0 1 30 26 54 8 9
11 16 5 16 -6 0 -20 -10 -32 -22 -16 -17 -20 -18 -16 -6 8 22 -19 13 -27 -8
-7 -18 -26 -9 -26 11 0 9 6 12 15 9 8 -4 15 -1 15 5 0 6 19 20 42 32 37 19 40
23 25 34 -9 7 -17 23 -17 36 0 29 -16 56 -26 46 -4 -4 -7 -21 -7 -37 0 -17 -4
-30 -9 -30 -4 0 -8 11 -8 25 0 17 -4 23 -14 19 -15 -6 -16 11 -3 34 5 6 5 17
2 22 -4 6 -8 39 -10 75 -3 48 0 65 11 69 8 3 14 1 14 -4 0 -6 4 -10 8 -10 4 0
8 9 8 20 0 11 -5 20 -11 20 -7 0 -7 3 0 8 14 10 35 59 35 82 0 11 -9 24 -20
30 -12 7 -22 25 -26 51 -8 45 -18 43 -20 -4 -1 -33 22 -71 37 -61 16 10 9 -6
-12 -27 -16 -16 -23 -18 -35 -9 -9 8 -27 10 -50 5 -35 -6 -36 -5 -30 18 4 17
0 29 -11 38 -15 12 -16 12 -10 -4 9 -23 -25 -57 -58 -57 -14 0 -25 5 -25 10 0
6 5 10 10 10 6 0 10 7 10 15 0 8 5 15 10 15 6 0 10 5 10 11 0 8 -5 7 -15 -1
-9 -7 -19 -10 -22 -6 -4 4 -1 12 7 17 11 8 8 8 -10 3 -22 -6 -23 -5 -11 10 11
14 11 16 -2 16 -17 0 -30 27 -21 41 3 6 11 5 20 -2 12 -10 20 -7 44 16 17 16
33 25 37 20 5 -4 2 -10 -5 -12 -7 -3 -25 -16 -39 -29 -20 -18 -22 -24 -9 -24
9 0 16 -7 16 -16 0 -9 5 -14 12 -12 18 6 22 28 4 28 -10 0 -13 6 -10 15 7 18
34 20 34 3 0 -6 3 -8 7 -5 3 4 15 0 25 -10 17 -15 18 -15 18 5 0 15 8 22 30
27 27 6 28 8 14 22 -12 13 -20 14 -41 4 -31 -14 -51 0 -28 19 18 15 20 30 2
30 -7 0 -23 11 -34 24 -17 20 -19 26 -7 30 7 3 23 -5 35 -17 l21 -22 -11 22
c-6 12 -7 24 -2 27 5 3 12 -1 15 -10 5 -14 9 -14 23 -3 15 12 16 11 11 -8 -4
-16 -2 -23 8 -23 8 0 14 8 15 18 0 9 7 -1 15 -23 8 -22 13 -48 12 -59 -2 -10
3 -21 10 -23 6 -3 12 0 12 6 0 6 7 8 15 5 20 -8 19 6 -2 22 -17 13 -17 14 0 8
12 -4 17 -1 17 10 0 10 -7 16 -17 14 -14 -2 -18 6 -21 46 l-3 49 31 -7 c38 -7
74 19 49 35 -8 5 -21 6 -29 4 -24 -7 -61 30 -74 72 -6 18 -4 22 8 17 8 -3 15
-9 14 -12 -3 -27 3 -31 32 -21 17 6 30 17 30 24 0 15 -25 37 -33 29 -3 -3 -11
-3 -18 2 -9 5 -7 11 6 20 18 13 18 15 -3 37 -21 22 -21 24 -5 39 24 21 63 32
63 19 0 -6 -9 -11 -19 -11 -25 0 -37 -18 -22 -33 7 -7 17 -5 32 9 22 19 22 19
15 -1 -4 -11 -9 -27 -10 -34 -2 -8 -8 -17 -14 -19 -17 -5 -15 -22 3 -22 8 0
15 -6 15 -14 0 -8 5 -18 10 -21 6 -4 10 -3 9 2 -3 20 2 27 11 13 7 -12 10 -11
15 5 4 11 11 28 16 38 5 10 7 22 4 27 -3 6 2 21 12 35 17 23 34 33 32 18 -3
-21 2 -46 8 -39 10 9 11 46 2 46 -4 0 -17 14 -29 31 l-22 30 21 6 c11 3 21 12
21 19 0 17 -12 18 -27 3 -8 -8 -15 -4 -27 12 -14 21 -14 23 7 35 31 17 42 17
27 -1z m1360 -115 c25 0 39 -4 35 -10 -3 -5 -15 -10 -26 -10 -12 0 -17 -4 -14
-11 4 -6 19 -7 37 -4 21 5 28 4 24 -4 -4 -6 -13 -11 -21 -11 -7 0 -16 -7 -19
-16 -9 -22 -8 -24 9 -18 11 5 13 2 9 -11 -6 -13 -1 -16 22 -14 53 4 66 0 60
-19 -4 -11 2 -22 15 -30 25 -16 37 -8 20 12 -15 18 -5 38 17 34 10 -1 22 1 29
5 17 11 35 -27 27 -58 -4 -18 -2 -25 9 -25 8 0 18 -11 21 -25 4 -14 11 -25 17
-25 6 0 8 9 4 21 -7 20 -4 21 29 17 26 -3 36 0 36 10 0 8 -7 11 -19 7 -10 -3
-28 2 -41 13 -20 16 -21 20 -7 25 11 4 20 -1 27 -14 6 -11 15 -17 21 -14 5 4
18 3 29 0 16 -5 18 -10 10 -25 -8 -15 -5 -30 12 -64 23 -46 38 -58 38 -32 0 8
14 21 30 30 28 13 30 13 30 -4 0 -10 -5 -22 -10 -25 -6 -4 -8 -15 -5 -26 5
-15 1 -19 -14 -19 -12 0 -21 -4 -21 -10 0 -13 26 -13 52 1 16 9 23 7 35 -10 8
-12 25 -21 39 -21 27 0 32 -21 9 -40 -21 -18 -19 -32 5 -25 11 4 20 2 20 -4 0
-6 -7 -11 -15 -11 -21 0 -19 -20 3 -20 15 -1 15 -2 -3 -16 -13 -9 -19 -24 -17
-42 1 -15 -2 -34 -8 -42 -9 -13 -11 -13 -19 0 -5 8 -7 19 -3 25 3 5 -2 4 -11
-4 -15 -12 -20 -11 -40 8 -27 24 -52 28 -43 6 3 -9 0 -15 -9 -15 -8 0 -15 9
-15 20 0 11 -7 20 -15 20 -24 0 -18 44 10 74 13 14 31 26 40 26 17 0 21 35 5
45 -16 10 -40 -9 -63 -50 -13 -23 -32 -41 -46 -45 -14 -3 -26 -11 -29 -18 -4
-14 14 -16 23 -2 10 17 25 11 25 -9 0 -11 5 -23 10 -26 6 -3 10 -12 10 -19 0
-17 -72 -27 -82 -12 -4 6 -9 4 -14 -7 -3 -9 -15 -17 -25 -17 -19 0 -23 11 -19
63 2 39 -16 33 -40 -14 -25 -48 -52 -50 -60 -4 -6 37 -36 42 -32 5 2 -19 0
-22 -8 -10 -9 13 -10 13 -10 0 0 -12 -2 -12 -9 -2 -9 15 -20 15 -38 1 -19 -16
-7 60 13 82 9 11 14 22 11 25 -3 4 -17 -6 -30 -20 -29 -31 -35 -32 -54 -8 -12
16 -13 15 -11 -8 2 -18 10 -26 27 -28 19 -3 21 -6 10 -13 -12 -8 -12 -10 1
-19 11 -7 12 -12 3 -21 -15 -15 -34 -3 -26 16 3 9 -1 15 -11 15 -9 0 -16 4
-16 8 0 5 -11 14 -25 20 -15 7 -25 8 -25 2 0 -6 -4 -10 -10 -10 -23 0 -8 32
19 41 16 6 32 17 35 25 3 8 12 14 21 14 8 0 15 4 15 8 0 21 -16 20 -48 -4 -32
-25 -34 -25 -27 -5 5 17 2 21 -15 21 -17 0 -19 3 -11 19 8 13 18 17 38 13 23
-4 26 -2 16 9 -17 18 -16 29 2 29 8 0 15 -9 15 -20 0 -24 18 -27 27 -5 8 23
-23 51 -73 65 -44 13 -75 8 -34 -5 13 -4 19 -12 16 -20 -3 -9 0 -12 10 -8 20
7 18 -7 -3 -23 -25 -19 -43 -17 -44 4 -1 16 -2 16 -6 0 -2 -10 -9 -18 -14 -18
-5 0 -8 4 -6 9 1 5 -7 17 -18 25 -15 12 -17 18 -7 24 9 6 6 12 -13 22 -14 7
-25 16 -25 20 0 4 18 15 40 26 44 21 53 38 16 28 -14 -3 -27 -1 -31 7 -10 15
33 48 63 49 13 0 20 4 17 10 -3 6 -18 10 -32 10 -18 0 -24 4 -19 15 4 11 -1
15 -19 15 -16 0 -23 -5 -19 -13 2 -7 -9 -26 -26 -42 -16 -16 -30 -35 -30 -42
0 -20 9 -16 37 17 13 17 30 30 36 30 6 0 0 -11 -13 -25 -19 -20 -21 -27 -10
-40 11 -13 10 -14 -4 -9 -12 5 -19 1 -22 -13 -6 -21 -47 -24 -65 -6 -7 7 -19
9 -28 7 -9 -3 -1 3 17 13 27 14 32 22 27 40 -4 18 -1 23 14 23 10 0 24 7 31
15 10 12 9 16 -4 21 -35 13 -11 64 31 64 13 0 23 5 23 10 0 6 7 10 15 10 8 0
15 4 15 8 0 4 15 13 33 21 21 8 27 15 18 18 -10 4 -8 9 10 18 20 11 27 10 50
-6 16 -11 44 -19 69 -19z m-2726 -246 c-13 -19 -14 -28 -5 -33 6 -4 9 -15 5
-24 -3 -9 -1 -17 4 -17 6 0 13 9 17 19 6 20 31 35 39 23 12 -19 -8 -64 -33
-73 -14 -6 -29 -16 -33 -22 -11 -17 -10 -39 1 -32 5 3 12 -4 16 -15 3 -11 13
-20 21 -20 8 0 14 -7 14 -15 0 -8 -4 -15 -10 -15 -5 0 -10 5 -10 10 0 6 -4 10
-9 10 -5 0 -7 -9 -4 -20 4 -16 2 -19 -13 -14 -15 6 -14 3 4 -14 23 -20 23 -21
3 -19 -11 1 -24 8 -27 17 -12 27 -14 50 -4 50 6 0 10 5 10 11 0 6 -9 8 -20 4
-16 -5 -20 -2 -20 19 0 13 7 32 16 40 18 18 11 21 -17 6 -11 -6 -19 -21 -19
-35 0 -34 -15 -39 -29 -9 -8 19 -8 30 -1 39 7 9 5 21 -7 44 -16 28 -16 33 -3
41 23 15 29 12 42 -15 6 -14 14 -25 18 -25 8 0 21 33 25 63 1 10 11 24 21 32
26 20 27 19 8 -11z m2779 -741 c-9 -16 -23 -34 -32 -40 -11 -10 -11 -13 -2
-13 11 0 11 -3 1 -15 -18 -21 -8 -28 23 -16 30 12 44 -1 22 -19 -21 -17 -87
-50 -102 -50 -7 0 -13 -4 -13 -10 0 -5 -7 -10 -15 -10 -8 0 -15 -5 -15 -11 0
-7 10 -9 24 -5 25 6 51 -14 28 -22 -7 -2 -12 -8 -12 -13 0 -6 4 -8 9 -5 13 8
42 -4 36 -15 -3 -4 -13 -5 -22 -2 -13 5 -15 2 -10 -17 4 -15 1 -27 -8 -34 -11
-8 -12 -15 -4 -26 9 -13 10 -12 5 3 -7 21 2 21 28 2 29 -22 31 -55 5 -55 -17
0 -19 -3 -10 -14 9 -11 6 -18 -16 -35 -23 -18 -24 -20 -5 -11 29 14 39 6 21
-16 -13 -16 -12 -17 7 -12 26 7 49 -6 40 -21 -4 -6 -12 -9 -17 -5 -6 3 -17 -2
-25 -12 -9 -11 -13 -14 -10 -8 3 7 -1 15 -10 18 -25 10 -34 7 -28 -9 4 -9 -1
-18 -11 -21 -12 -5 -13 -9 -5 -14 18 -11 -7 -45 -49 -65 -25 -12 -31 -19 -21
-25 15 -9 40 -2 40 12 0 5 5 6 10 3 15 -9 12 -19 -11 -34 -17 -10 -23 -10 -29
0 -11 17 -42 2 -38 -18 2 -10 9 -19 16 -19 6 -1 15 -2 19 -3 3 0 -3 -11 -14
-23 -11 -13 -24 -34 -28 -47 l-7 -24 -19 24 c-10 13 -19 32 -19 42 0 9 -4 17
-10 17 -5 0 -10 7 -10 16 0 8 -4 13 -9 9 -6 -3 -6 -17 -1 -35 5 -17 6 -30 2
-30 -3 0 3 -6 14 -14 19 -14 19 -15 -5 -48 -13 -18 -20 -30 -16 -26 4 4 15 2
22 -4 12 -9 14 -9 13 3 -5 30 1 39 25 39 16 0 25 -6 25 -16 0 -12 6 -15 25
-10 28 7 30 2 14 -44 l-12 -33 -18 24 c-10 13 -19 32 -19 42 0 9 -4 17 -10 17
-5 0 -10 -9 -10 -20 0 -11 -8 -24 -17 -27 -10 -4 -22 -13 -26 -20 -11 -18 -28
-6 -20 14 4 11 3 14 -6 9 -6 -4 -10 -14 -9 -21 3 -15 2 -15 -44 -14 -33 0 -33
0 -8 12 14 6 28 15 31 20 10 14 -2 47 -17 47 -18 0 -18 -5 4 -26 16 -17 16
-17 -3 -10 -11 5 -27 9 -35 10 -41 5 -49 36 -9 36 10 0 19 5 19 11 0 5 -4 7
-10 4 -5 -3 -17 -2 -26 3 -20 11 -1 27 21 18 14 -5 21 12 16 38 -3 14 21 56
31 56 4 0 8 -9 8 -21 0 -11 4 -18 9 -14 11 6 8 65 -4 85 -6 10 -4 12 8 7 10
-3 17 -2 17 3 0 18 -20 20 -44 5 -24 -16 -28 -15 -39 17 -5 15 0 16 46 12 29
-2 46 -2 40 2 -19 9 -16 37 3 30 9 -3 20 -6 25 -6 6 0 7 -4 4 -10 -3 -5 -2
-10 3 -10 5 0 12 8 16 18 3 9 9 24 12 32 5 11 2 11 -13 -2 -11 -10 -23 -18
-26 -18 -14 0 -7 27 11 43 14 13 21 14 30 5 9 -9 12 -8 12 5 0 18 -34 24 -44
8 -3 -5 -15 -7 -26 -4 -27 7 -9 29 31 38 29 7 37 19 19 30 -7 4 -6 14 1 28 9
15 9 22 1 25 -6 2 -8 10 -5 18 6 16 -22 20 -32 3 -4 -5 -12 -8 -18 -6 -7 2
-20 -2 -29 -11 -10 -8 -18 -11 -18 -5 0 21 36 48 63 47 29 -1 44 10 28 20 -5
3 -7 15 -4 26 3 11 0 20 -6 20 -6 0 -11 -6 -11 -14 0 -20 -25 -37 -43 -30 -13
5 -13 8 5 26 16 16 18 22 7 29 -10 6 -6 11 14 18 15 6 27 13 27 17 0 3 -6 4
-13 1 -9 -3 -13 4 -12 22 0 14 -6 29 -14 32 -9 3 1 15 33 35 27 17 44 34 41
42 -3 9 1 11 15 7 11 -4 20 -2 20 4 0 6 -9 11 -19 11 -10 0 -21 7 -25 15 -6
18 10 20 20 3 5 -8 10 -6 15 8 6 17 8 16 18 -10 7 -16 10 -35 7 -43 -4 -10 1
-12 22 -7 15 4 33 10 40 14 7 3 26 4 42 2 21 -3 27 -8 23 -20 -4 -10 -2 -13 5
-8 19 11 10 48 -10 43 -11 -3 -18 0 -18 9 0 14 17 18 55 14 11 -1 17 1 12 6
-8 8 20 44 35 44 5 0 1 -12 -9 -27z m-1777 -495 c4 -7 4 -10 0 -6 -9 8 -48
-28 -65 -60 -10 -18 -9 -22 4 -22 10 0 13 5 9 12 -5 8 -2 9 9 5 10 -3 17 -2
17 3 0 6 8 10 18 10 10 0 23 5 29 11 8 8 14 5 23 -10 6 -12 8 -26 5 -31 -3 -6
-1 -10 4 -10 6 0 11 7 11 15 0 8 3 15 8 15 4 0 18 3 32 6 l25 6 -22 -20 c-15
-13 -18 -23 -12 -33 8 -11 15 -8 38 19 15 17 33 32 39 32 7 0 12 5 12 10 0 6
10 4 23 -5 13 -8 27 -12 30 -8 4 3 7 -1 7 -10 0 -9 -4 -19 -10 -22 -22 -14 -8
-23 21 -15 26 8 31 6 38 -13 5 -12 7 -25 4 -29 -2 -5 3 -8 11 -8 9 0 18 -11
22 -25 3 -13 15 -27 25 -30 25 -8 24 -18 -3 -30 -27 -12 -37 -45 -14 -45 9 0
16 7 16 15 0 9 8 19 18 22 9 4 20 11 24 17 6 8 8 8 8 0 0 -6 -9 -19 -20 -29
-11 -10 -20 -24 -20 -32 0 -7 -5 -13 -10 -13 -6 0 -9 -5 -8 -12 2 -7 -2 -12
-9 -13 -22 0 -26 -15 -4 -15 12 0 19 -4 16 -10 -3 -6 0 -13 8 -16 9 -3 13 -13
10 -25 -3 -10 -10 -16 -16 -12 -6 3 -7 1 -3 -6 4 -6 -6 -31 -23 -56 -17 -25
-27 -45 -22 -45 4 0 14 11 21 25 13 25 38 29 32 5 -1 -7 3 -19 10 -28 10 -12
10 -14 1 -8 -7 4 -13 2 -13 -3 0 -6 -9 -20 -20 -31 -26 -26 -6 -26 31 1 16 11
29 16 29 10 0 -5 -6 -14 -12 -18 -7 -4 -13 -17 -13 -28 0 -15 -7 -20 -26 -21
-15 -1 -35 -5 -45 -9 -11 -4 -28 -9 -38 -10 -16 -2 -15 2 8 22 20 17 23 23 11
23 -9 0 -13 4 -10 10 15 24 -13 7 -33 -20 -17 -22 -31 -30 -53 -30 -20 0 -28
4 -23 12 4 7 3 8 -4 4 -20 -12 -13 -36 10 -36 17 0 13 -5 -20 -30 -23 -16 -44
-41 -48 -55 -7 -27 9 -55 32 -55 19 0 29 -21 13 -30 -11 -7 -11 -13 1 -34 12
-23 11 -28 -5 -46 -22 -25 -42 -26 -49 -2 -3 9 -4 4 -2 -11 2 -19 0 -27 -9
-23 -7 2 -18 -1 -24 -7 -18 -18 -12 -28 9 -15 17 11 22 10 30 -2 15 -24 12
-36 -12 -37 -25 -2 -40 -22 -33 -44 7 -22 -20 -46 -28 -25 -3 8 -3 17 1 19 4
2 1 2 -6 0 -8 -1 -29 -3 -48 -3 -19 0 -34 -4 -34 -10 0 -5 14 -8 30 -6 17 2
33 0 36 -5 3 -5 -15 -9 -39 -9 -34 0 -49 6 -67 26 -16 16 -21 28 -14 32 16 10
36 52 26 52 -5 0 -19 -13 -32 -30 -24 -31 -44 -38 -56 -18 -4 6 4 20 19 33 31
24 36 41 8 24 -21 -14 -56 -5 -46 12 4 5 0 18 -8 27 -13 15 -13 19 -1 30 11
10 14 10 15 0 0 -7 5 0 11 15 8 24 7 32 -11 51 -15 16 -18 25 -10 33 6 6 17 9
24 7 7 -3 15 4 18 15 5 22 -16 30 -28 11 -15 -24 -24 3 -10 30 20 39 20 39
-17 55 -31 13 -32 14 -8 15 14 1 19 4 13 7 -18 7 -16 23 2 23 8 0 15 -4 15
-10 0 -15 29 -12 46 4 21 21 18 24 -26 24 -22 0 -44 3 -49 6 -5 4 -12 0 -15
-6 -6 -14 0 17 10 53 4 16 3 19 -6 14 -9 -6 -11 -4 -6 4 5 7 11 10 14 7 3 -3
11 -1 17 4 7 6 24 11 39 12 29 3 34 13 11 22 -8 3 -15 15 -15 26 0 12 -4 19
-9 15 -22 -13 -18 14 4 35 25 24 33 50 15 50 -5 0 -7 7 -4 15 4 8 12 15 19 15
6 0 20 9 30 20 15 17 16 20 3 20 -9 0 -21 7 -28 15 -9 10 -9 15 -1 15 6 0 11
4 11 10 0 5 -7 7 -15 4 -21 -8 -19 3 5 28 11 12 20 30 20 41 0 15 5 18 24 13
29 -7 43 9 26 30 -11 12 -14 12 -27 -3 -12 -16 -13 -15 -1 7 7 14 13 35 15 48
1 12 9 29 17 38 15 14 17 21 15 42 0 4 10 10 23 14 13 3 24 6 25 7 1 1 5 -5 9
-11z m314 -659 c0 -3 -11 -14 -24 -25 -14 -10 -23 -21 -20 -26 3 -4 0 -17 -6
-28 -7 -13 -7 -20 0 -20 5 0 10 -11 10 -25 0 -23 -1 -24 -32 -11 -20 9 -40 11
-54 6 -15 -6 -31 -3 -53 11 -38 23 -38 29 -5 59 21 20 27 22 34 10 7 -11 11
-9 19 12 5 15 17 30 25 35 18 10 106 11 106 2z"/>
<path d="M4206 2517 c-20 -16 -30 -18 -33 -9 -11 29 -22 8 -19 -35 3 -52 14
-59 33 -22 11 21 12 19 7 -23 -6 -45 -5 -47 21 -54 21 -5 31 -2 41 11 8 10 17
15 21 12 4 -4 1 -13 -5 -19 -21 -21 -14 -55 12 -62 13 -3 26 -15 29 -25 5 -22
38 -24 72 -4 19 11 19 13 3 29 -10 10 -31 17 -50 16 -18 -1 -40 3 -48 8 -12 8
-11 10 8 10 12 0 31 9 42 20 11 11 24 20 29 20 5 0 14 7 21 15 11 13 8 13 -21
3 -19 -6 -38 -17 -44 -23 -11 -13 -45 -28 -45 -19 0 2 7 15 16 29 14 22 14 24
-3 33 -13 7 -24 6 -37 -4 -23 -16 -36 -10 -36 18 0 16 5 19 21 15 18 -5 19 -4
7 11 -7 9 -13 29 -12 45 0 15 1 27 0 26 -1 0 -14 -10 -30 -22z"/>
</g>
</svg>
