<?xml version="1.0" encoding="UTF-8" standalone="no"?>
<svg
   xmlns:dc="http://purl.org/dc/elements/1.1/"
   xmlns:cc="http://creativecommons.org/ns#"
   xmlns:rdf="http://www.w3.org/1999/02/22-rdf-syntax-ns#"
   xmlns:svg="http://www.w3.org/2000/svg"
   xmlns="http://www.w3.org/2000/svg"
   id="svg10"
   preserveAspectRatio="xMidYMid meet"
   viewBox="0 0 422.000000 679.000000"
   height="679.000000pt"
   width="422.000000pt"
   version="1.0">
  <defs
     id="defs14" />
  <metadata
     id="metadata2">
Created by potrace 1.15, written by Peter Selinger 2001-2017
<rdf:RDF>
  <cc:Work
     rdf:about="">
    <dc:format>image/svg+xml</dc:format>
    <dc:type
       rdf:resource="http://purl.org/dc/dcmitype/StillImage" />
    <dc:title></dc:title>
  </cc:Work>
</rdf:RDF>
</metadata>
  <g
     id="g8"
     stroke="none"
     fill="#000000"
     transform="translate(0.000000,679.000000) scale(0.100000,-0.100000)">
    <path
       id="path4"
       d="m 2050.0266,6742.2848 c -10.6291,-26.8873 31.6025,-49.457 34.6025,-105.457 C 2096.2582,6506.2253 2059,6452 2049.7418,6626.0329 2027.7418,6653.0329 2029,6569 2041,6526 c 6,-17 14,-50 18,-74 l 8,-42 -23,25 c 71.4349,-168.4641 -22.6236,106.2287 -63.7152,-0.3177 -5,-14 4.7152,35.3177 -9.9139,100.0924 -11,31 -15.2848,-69.4633 -15.2848,-110.4633 0,-26 22.4304,-144.8937 -60.7747,19.3177 C 1788.8481,6423.6557 1915,6409 1934,6355 c 16,-44 10,-62 -32,-107 -21,-22 -25,-37 -24,-77 1,-36 -3,-51 -15,-55 -8,-4 -13,-13 -9,-21 3,-8 8,-53 12,-100 7,-96 46,-47 0,0 -20,20 -39.8544,32.6886 -52.8544,87.6886 -22,91 -49.1456,104.3114 -27.1456,18.3114 15,-58 20,-68 30,-58 3,3 -3,46 -15,95 -12,49 -21,101 -21,114 0,14 -11,42 -25,62 -17,25 -24,49 -23,76 1,26 -5,47 -17,60 -9,10 -15,26 -12,34 4,9 2,18 -4,21 -9,6 -7,41 6,101 4,19 2,41 -4,53 -10,18 -8,27 9,51 12,16 16,31 11,35 -19,11 -46,-48 -48,-105 -3,-108 -9,-113 -53,-43 -31,49 -37,82 -19,100 7,7 7,13 1,17 -15,9 -33,-19 -34,-52 -1,-16 69.0329,-154.3506 79.0329,-174.3506 55.9671,-3.6494 59.2253,-116.0798 47.2253,-146.0798 -9,-21 21.5165,-37.4569 30.5165,-77.4569 13,-59 1.2253,-98.1127 14.2253,-89.1127 6,3 6,-8 0,-28 -7,-25 -4,-53 10,-108 25.543,-36.5962 68.3443,-102.9405 101.3443,-117.9405 l -9.6025,-255.1316 -71.7747,-8.1988 c -45.8143,86.771 -104.4687,82.0483 -197.7481,179.7215 0,0 -54.2316,151.5228 -52.2316,160.5228 5,19 118.4101,16.7684 99.4101,16.7684 -20,0 -11.3975,55.2582 -11.3975,85.2582 0,33 -8,38 -26,16 -8,-10 -8,-21 -1,-41 13,-34 9,-39 -16,-21 -17,13 -18,18 -6,63 7,26 20,61 28,77 8,16 14,44 14,63 0,19 10,57 21,84 12,27 19,52 16,56 -7,6 -67,13 -67,7 0,-1 5,-15 10,-30 8,-20 8,-36 -1,-57 l -12,-29 -21,25 c -55,66 -53,61 -40,92 10,24 9,37 -4,70 -9,22 -20,43 -25,46 -5,4 -7,19 -6,35 2,16 -1,31 -6,34 -17,8 -17,-40 -2,-73 24,-50 30,-83 18,-106 -14,-25 -45,-17 -38,10 5,20 -8,26 -18,9 -4,-6 14,-32 40,-58 54,-54 70,-81 79,-139 8,-57 -19,-116 -39,-83 -3,6 -15,10 -27,10 -16,0 -19,5 -16,25 6,29 -9,45 -18,21 -8,-20 -26,-10 -22,11 2,9 -3,18 -9,20 -8,3 -13,-5 -13,-20 0,-32 43,-77 74,-77 36,0 44,-46 16,-101 -12,-23 -19,-51 -17,-63 3,-11 10,-37 15,-57 9,-34 8,-35 -18,-31 -15,2 -49,-4 -75,-13 l -48,-16 -34,33 c -54,52 -65,83 -49,143 14,53 7,93 -20,116 -19,16 -18,28 5,47 20,18 40,109 21,97 -5,-3 -10,-15 -10,-26 0,-23 -28,-69 -42,-69 -6,0 -7,13 -3,31 5,20 3,29 -3,25 -22,-14 -19,-49 9,-103 29,-55 36,-96 20,-122 -7,-11 -13,-10 -33,3 -33,22 -44,8 -13,-16 14,-11 25,-29 25,-41 0,-30 28,-69 86,-124 47,-45 48,-45 106,-40 32,3 61,1 64,-4 3,-5 10,-7 15,-3 5,3 25,-10 43,-30 18,-20 37,-36 43,-36 15,0 128.6025,-152.0329 128.6025,-168.0329 0,-20 -20.1987,-53.1456 -42.1987,-31.1456 -13,13 -86.4038,119.1785 -113.4038,119.1785 -26,0 -47,7 -59,19 -26,26 -61,37 -61,19 0,-15 61.0595,-36.1127 77.0595,-47.1127 17,-12 -47.0595,-50.8873 -88.0595,-50.8873 -19,0 -40,5 -46,11 -8,8 -13,8 -18,-1 -4,-6 1,-18 11,-26 23,-17 90,-12 134,11 38,20 59.4835,37.8013 59.4835,17.8013 0,-8 34.5165,-32.8013 39.5165,-32.8013 5,0 13,-26 17,-57 3,-32 10,-62 14,-68 11,-16 29,-96 24,-110 -6,-14 42.3443,-53.6886 20.3443,-40.6886 15.8873,24.3443 -143.8146,47.2449 -148.8146,61.2449 -136.6126,-47.2568 -81.4524,77.9666 -132.5759,109.2184 37.1306,-71.6434 47.5946,-159.143 -98.8677,-14.7677 C 1237.4836,5436.7754 1246,5600 1240,5600 c -13,0 -42.0595,96.8943 -30.0595,117.8943 6,8 31.788,75.576 11.788,75.576 -35,0 -51.7285,32.5297 -51.7285,62.5297 0,13 -5,26 -10,29 -14,9 3.9734,-56.6025 13.9734,-77.6025 78.0484,-59.6983 4.1781,-95.9602 -4.788,-64.7551 C 1145.3842,5741.4835 1148,5781 1130,5770 c -11,-7 18.7019,-29.9867 40.7019,-57.9867 15,-20 13.1987,-23.2848 17.1987,-23.2848 5,0 3.0994,-19.7285 7.0994,-45.7285 4,-27 11,-53 16,-59 5,-6 0.6424,-61.2316 -3.3576,-70.2316 -6,-15 -53.4171,14.5164 -149.4171,29.5164 -44,6 -35.2253,62.7152 -52.2253,129.7152 -8,31 -23,70 -32,87 -15,25 -16,33 -5,53 10,18 10,30 2,45 -18,34 -13,49 19,55 19,4 37,18 50,39 26,44 15,50 -18,10 -30,-35 -46,-42 -38,-14 3,9 2,31 -3,47 -7,21 -10,24 -10,10 -1,-12 -10,-38 -20,-59 -11,-21 -18,-43 -16,-49 16,-54 15,-67 -5,-67 -24,0 -25,-14 -4,-71 18,-48 34,-150 23,-143 -4,2 -11,0 -14,-6 -4,-7 -11,-8 -18,-2 -14,11 -46,10 -65,-2 -7,-4 -37,-10 -67,-13 -53,-6 -54,-5 -74,28 -23,39 -87,93 -95,81 -3,-5 7,-22 22,-39 15,-17 49,-57 76,-88 41,-48 53,-56 75,-52 14,3 48,11 76,16 40,9 51,9 57,-3 5,-8 24,-20 43,-26 19,-6 35,-15 35,-20 0,-12 97.1722,-45.6158 166.1722,-42.6158 67,3 67.4968,-12.7285 93.4968,-48.7285 23,-33 35.331,-40.6557 -9.669,-37.6557 -20,1 -54,-7 -79,-19 -25,-12 -53,-22 -62,-22 -10,0 -21,-4 -24,-10 -6,-10 -23.5135,-44.6523 -49.5135,-19.6523 -7,6 -31.4865,59.6523 -37.4865,59.6523 -15,0 -37,31 -38,51 0,24 -25.83422,20.5225 -44.71531,27.991 -4.64948,1.8391 -16.45696,-31.0809 -2.28469,-18.991 28.50412,24.3159 47.5964,-24.009 44.5964,-42.009 C 971.78019,5359.991 948,5335 944,5323 c -4,-14 -2,-23 5,-23 5,0 7.11891,63.1208 27.11891,44.1208 L 1030.8991,5262.2667 1064,5255 c 18,14 35,25 38,25 3,0 32.8721,22.6613 31.8721,3.6613 -1,-19 -35.6613,-61.2757 -29.6613,-63.2757 6,-2 6.7982,-16.991 -0.2018,-25.991 -7,-7 3.1838,-26.2937 3.1838,-35.2937 0,-20 -16.5225,-60.5784 -31.7513,-26.6144 -24.2018,7.991 -57.6703,-1.2018 -37.6703,-4.2018 89.1298,-18.3856 -21.2577,-32.1748 -32.2577,-39.1748 -9.99999,-6 14.6892,3.3492 36.6793,2.6883 C 1072.1099,5090.8991 1122,5128 1124,5176 c 0,21 6,45 13,51 6,7 13,17 15,23 2,6 18.009,44.4685 47.009,47.4685 47,4 245.8066,16.0392 146.9057,-47.0167 -9.2752,-5.9135 46.8335,-171.7611 -45.0811,-0.2692 -4.7622,-12.8162 67.0025,-99.6601 -16.6678,-82.2745 -28,1 -94.955,-1.8991 -94.955,-6.8991 0,-11 93.5514,13.1658 121.5424,-12.2018 9,3 75.1771,-36.9808 31.2847,-76.928 -14.9507,-13.6068 -59.0668,-43.8503 -83.1028,48.3406 -77.814,56.4094 50.5306,-74.9517 -36.0379,-55.4216 -49.6908,-14.5307 -122.5585,-11.4216 -119.764,-32.1009 35.8668,-2.6973 123.3226,52.4973 190.6271,-18.1549 20.2667,-5.5045 71.7448,16.4383 74.901,12.5604 104.6472,-128.5773 14.9171,-53.3676 -5.3496,-90.0199 62.5514,2.009 98.5784,-19.0919 105.3027,-32.6054 28.8811,-9 44.1838,-22.3946 56.1838,-24.3946 11,-2 44.6793,-23.1838 47.6793,-27.1838 3,-5 13.9081,-11.1099 33.9081,-26.1099 73.1657,-82.6495 71.7155,-92.1408 77.2127,-135.3406 3,-17 -100.5983,15.5514 -104.5983,13.5514 -10,-7 -105,22 -154,46 -28,13 -47,33 -64,64 -13,25 -43,66 -66,90 -23,25 -39,45 -36,45 3,1 -6,7 -21,15 -37,20 -54,81 -31,107 18,20 10,39 -9,20 -17,-17 -25,-15 -31,9 -6,21 -4,27 27,85 14,29 14,32 0,38 -23,9 -27,8 -20,-9 3,-8 0,-14 -6,-12 -18,3 -32,-97 -19,-133 8,-26 7,-31 -10,-40 -26,-14 -24,-34 2,-27 22,6 62,-29 52,-45 -2,-5 -35,-8 -72,-8 -74,0 -87,7 -100,56 -4,15 -13,30 -20,32 -11,4 2.3856,-15.6883 7.3856,-43.6883 4,-20 -11.3856,-24.3117 -15.3856,-24.3117 -11,0 -96.991,77.4126 -104.991,99.4126 20.77119,44.5784 -36.22881,54.4036 -65.22881,54.4036 -12,0 -42.78019,22.1838 -45.78019,29.1838 -2,6 -7,9 -11,6 -4,-4 0,-14 9,-23 15,-15 14,-16 -18,-12 -32,4 -79,-15 -67,-28 3,-2 45.8901,39.4595 74,4 83,10 103.5964,-3.991 95.5964,-34.991 -3,-12 5.19279,-21.5045 11.19279,-24.5045 5,-3 44.16579,-50.8631 44.16579,-59.8631 1,-21 71.04502,-70.6414 97.04502,-70.6414 11,0 29,-5 40,-11 12,-6 45,-11 74,-10 39,1 53,-3 58,-15 3,-8 10,-13 15,-9 5,3 12,1 15,-3 6,-11 -31.6054,-35.5964 -58.6054,-35.5964 -24,0 -42.8901,-14.1009 -26.8901,-27.1009 C 1155.3946,4826.4036 1158,4797 1190,4811 c 52,23 53,22 100,-68 17,-34 50.0919,-91.4775 63.0919,-99.4775 31,-20 14.9081,-18.5225 -32.0919,-42.5225 -20,-10 -49,-25 -65,-34 -26,-14 -32,-14 -59,-1 -16,9 -48,35 -71,58 -42,44 -49,71 -31,132 -16.4775,-11.5694 2.1009,32.6883 -18,17 11.4685,-94.8091 -29,2 -43,26 -10,17 -24,31 -31,31 -19,0 44.1388,-29.2757 19,-46 39,-45 62,-101 43,-108 -17,-6 -72,8 -111,28 -22,11 -39,32 -53,66 -11,27 -21,53 -21,59 0,6 -7,11 -15,11 -8,0 -15,7 -15,15 0,8 -10.71698,20.957 -10,15 3.67929,-30.5694 -11,-28 9,-42 16,-11 41,-73 41,-100 0,-16 -21,-7 -51,23 -24,24 -34,28 -40,17 -5,-9 -27,-13 -64,-12 -38,1 -55,-2 -52,-10 2,-7 24.3027,16.973 67,-9 57,2 65,-1 92,-28 16,-16 27,-33 23,-39 -4,-6 5,-8 23,-4 18,4 34,1 43,-8 8,-8 28,-19 44,-26 44,-19 141.4415,-92.8631 145.4415,-119.8631 3,-22 -50.4505,-29.3946 -100.4505,-32.3946 -29,-2 -97.56939,15.4865 -114.56939,21.4865 -25,8 -8.93512,25.7802 -60.93512,9.7802 C 782.48649,4491.009 763,4500 727,4515 c -7.21981,11.8991 -29.8072,13.8072 -29.8072,30.8072 0,17 -39.76219,64.8541 -16.1928,15.1928 -7,-12 -19.3946,-10.7982 -38.3946,9.2018 -45.46848,14.2018 -65.87208,17.2108 -79.78019,28.3027 -61.48649,15.991 18.43247,-20.5874 65.43247,-35.5874 19,-7 71.78019,-37.991 91.78019,-58.991 15.72431,-11.3297 65.23782,-27.1459 89.23782,-17.1459 C 849.04687,4471 798,4468 794,4455 c -6,-14 26.67029,9.1748 43.67029,14.1748 11,4 5.018,26.2757 9.018,20.2757 3,-5 8.00901,4.3856 22.00901,4.3856 13,0 122.00185,-31.0739 21.3027,-73.8361 -5.52268,-2.3452 13,-5 33,3 60.35858,70.937 57.98199,32.5784 69.98199,27.5784 C 1008.982,4444.5784 989,4421 963,4421 c -17,-1 -35,-6 -39,-12 -3,-6 -78.23967,-62.0469 -91.23967,-59.0469 -27.6054,-14.6793 -83.82521,-36.8072 7.97484,-12.3657 -90.06792,-88.9218 -146.69583,0.8628 -190.45048,-19.8811 C 586.74631,4314.1374 542.48527,4207.9983 582,4263 c 12.7982,36.5784 61.86308,42.2847 36.3946,9.9171 28.40181,-6.7564 -11.20807,46.0964 44.2108,34.2757 15,0 73.96399,-21.3856 86.96399,-30.3856 C 788.66128,4288.973 807,4278 849,4321 c 37,37 83,56 164,70 34,5 152.5244,45.3676 170.5244,48.3676 17,3 -38.1298,-74.5244 -38.1298,-79.5244 C 1145.3946,4341.8432 1006,4306 980,4309 c -55,7 -32.43962,-10.8162 -88.68829,-2.8991 -19,-14 35.24867,-9.9171 56.24867,-7.9171 40,3 88.07392,-12.8901 19.74232,-47.5694 C 960.16886,4246.9939 958,4248 943,4244 c -56,-12 -5.55853,-9.7063 -60,-27 5,-15 90.65228,25.964 124.6523,44.964 1.1639,44.0919 80.054,43.4216 94.054,40.4216 17,-3 31.2937,-49.3856 17.2937,-58.3856 -5,-3 -9,-13 -9,-23 0,-9 -2.8072,-19.8072 -13.8072,-32.8072 -19,-20 -90.7904,-10.8892 -119.45948,-16.8991 -42.93452,-9.0003 5.63426,16.5874 -54.72432,20.7622 44.93697,-10.8072 16.96399,-40.1838 40.65228,-36.7892 8,-2 -23.45047,-17.5784 -31.92796,-47.2397 67.55137,81.3316 94.93698,56.3586 115.93698,49.3586 60,-20 71.4576,30.1928 108.3297,72.6144 5,35 1.7153,65.8901 21.7153,74.8901 32.6793,14.0919 26.576,63.2487 38.2937,77.6523 7.9073,9.7198 32.7892,17.3207 46.7892,39.3207 14,22 27.2018,11.1369 31.2018,21.1369 19.86,43.9738 99.3437,33.3561 104.6324,65.6703 0,4 42.973,-4.982 61.973,2.018 19,7 40.3946,4.3117 40.3946,8.3117 0,4 22.3946,37.6793 43.3946,49.6793 31,17 39.6054,-1.6793 71.6054,-8.6793 35.4865,-8.4955 78.0829,-20.8901 104.0829,-23.8901 50,-8 63.9171,-19.1099 74.9171,-53.1099 4,-13 12,-23 17,-23 5,0 9,-15 9,-34 0,-18 7,-39 15,-46 8,-6 14,-15 13,-18 0,-4 1,-9 2,-12 1,-3 3,-26 5,-53 2,-35 -2,-50 -14,-57 -9,-5 -11,-10 -6,-10 15,0 12,-217 -4,-270 -7,-25 -11,-68 -9,-97 4,-48 2,-56 -33,-101 -20,-27 -40,-59 -43,-69 -4,-11 -15,-28 -25,-37 -15,-14 -17,-22 -8,-54 13,-51 5,-79 -38,-124 -43,-45 -51,-47 -50,-10 0,15 -5,37 -13,49 -8,13 -12,29 -9,37 8,20 -26,61 -42,51 -7,-4 -11,-16 -8,-26 7,-27 -17,-139 -32,-148 -7,-5 -24,-6 -38,-3 -22,4 -25,9 -20,37 5,31 -6,55 -26,55 -5,0 -7,-13 -5,-30 3,-18 0,-31 -9,-34 -7,-3 -13,-19 -13,-35 0,-28 -1,-29 -31,-21 -17,5 -37,14 -44,20 -21,17 -34,-17 -28,-73 6,-48 -9,-67 -22,-27 -4,11 -11,18 -16,15 -5,-4 -9,3 -9,14 0,11 -11,28 -25,39 -14,11 -25,27 -25,36 0,9 -4,16 -9,16 -5,0 -8,-44 -6,-100 3,-102 -2,-115 -34,-86 -32,28 -77,75 -98,103 -20,24 -25,26 -36,13 -6,-8 -17,-16 -22,-16 -6,-1 -22,-4 -37,-8 -18,-4 -28,-2 -28,5 0,14 42,93 53,97 4,2 7,10 7,18 0,9 -11,14 -30,14 -23,0 -30,-4 -30,-20 0,-11 -4,-20 -10,-20 -5,0 -10,-7 -10,-14 0,-18 -43,-66 -59,-66 -6,0 -11,7 -11,15 0,14 28,85 51,127 15,29 11,30 -21,8 -27,-19 -30,-20 -30,-4 0,25 -17,6 -25,-28 -6,-22 -4,-28 9,-28 20,0 20,1 0,-67 -9,-30 -14,-63 -11,-74 7,-26 -7,-24 -21,4 -14,28 -13,80 1,89 6,4 8,10 4,15 -11,10 -35,-7 -55,-40 -14,-23 -15,-30 -4,-48 19,-30 11,-32 -48,-15 -46,14 -55,14 -81,0 -36,-18 -38,-27 -3,-14 19,8 36,5 74,-13 27,-12 50,-25 50,-29 0,-3 -13,-11 -30,-17 -16,-5 -30,-14 -30,-20 0,-5 -3,-17 -7,-27 -6,-16 -4,-15 16,3 20,18 97,40 108,30 9,-10 -10,-33 -40,-47 -25,-12 -31,-20 -29,-40 1,-13 -4,-41 -13,-62 -8,-21 -11,-38 -6,-38 5,0 11,7 15,15 3,8 9,15 14,15 12,0 25,-81 15,-91 -8,-7 -106,21 -120,34 -12,13 -33,-16 -33,-44 0,-15 -5,-31 -12,-35 -6,-4 -47,-7 -90,-7 -95,1 -99,-3 -83,-99 l 12,-70 -25,-9 c -13,-5 -56,-8 -94,-7 -59,3 -72,0 -84,-16 -9,-13 -10,-23 -4,-31 12,-14 -27,-25 -89,-25 -59,0 -81,-10 -81,-35 0,-24 6,-27 106,-61 47,-16 51,-20 42,-39 -5,-11 -32,-36 -59,-55 -63,-43 -72,-54 -64,-80 6,-20 13,-21 83,-19 l 77,4 v -29 c 1,-39 19,-43 50,-12 42,42 67,28 40,-23 -14,-28 -21,-71 -11,-71 3,0 16,4 30,10 31,12 31,10 6,-41 -16,-30 -18,-44 -10,-59 9,-16 15,-18 30,-10 26,14 40,13 40,-4 0,-7 7,-19 15,-26 8,-7 15,-23 15,-36 0,-13 9,-38 20,-56 11,-18 20,-40 20,-50 0,-9 4,-18 8,-20 13,-5 40,-201 32,-224 -5,-11 -5,-26 0,-34 6,-9 6,-205 0,-205 -1,0 -3,-44 -5,-98 l -4,-98 37,-17 c 20,-9 38,-20 40,-24 2,-5 8,-8 14,-8 12,0 132,-82 137,-94 6,-14 92,-99 123,-121 24,-17 34,-38 37,-78 1,-4 9,-7 18,-5 14,2 28,-18 58,-79 27,-56 46,-82 58,-83 9,0 17,-4 17,-10 0,-16 70,-24 95,-10 14,7 29,9 37,4 39,-25 187,-4 265,37 30,16 61,29 67,29 19,0 82,78 116,144 51,99 130,173 170,161 22,-6 121,-17 149,-16 14,1 35,8 48,17 13,8 48,17 78,19 47,4 56,1 72,-18 10,-12 29,-27 43,-33 26,-12 77,-103 100,-177 6,-21 22,-49 36,-64 28,-31 48,-93 34,-107 -14,-14 -12,-26 3,-23 18,3 21,-203 3,-338 -16,-127 -10,-175 25,-205 13,-11 28,-19 32,-20 5,0 25,-13 45,-29 23,-18 59,-34 97,-41 33,-7 83,-23 111,-36 64,-30 143,-32 188,-5 31,19 133,47 150,42 16,-4 140,32 166,48 13,9 25,15 27,14 26,-22 131,115 152,198 7,24 23,82 37,129 14,47 32,105 39,129 11,38 11,48 -1,65 -21,31 -18,43 26,89 23,23 43,52 47,65 3,13 23,41 44,64 21,23 45,56 54,75 27,56 52,172 64,293 7,63 17,133 23,155 7,22 11,89 10,150 l -1,109 67,105 c 37,57 88,127 115,156 26,29 47,57 47,63 0,6 20,41 45,78 25,37 55,88 66,113 25,58 53,88 95,101 30,10 34,15 34,48 0,45 -18,114 -28,108 -5,-3 -6,11 -4,30 3,21 0,34 -7,34 -6,0 -11,5 -11,11 0,5 5,7 10,4 6,-3 10,4 10,17 0,13 -9,29 -20,36 -13,8 -20,8 -20,1 0,-5 -4,-7 -10,-4 -5,3 -10,-3 -10,-15 0,-18 -3,-19 -20,-10 -15,8 -20,8 -20,-1 0,-8 -4,-8 -15,1 -18,15 -19,59 -1,83 18,23 40,23 31,0 -17,-42 -17,-53 -1,-53 9,0 16,4 16,9 0,5 8,8 18,7 11,-1 16,5 15,19 -1,11 -3,38 -4,60 -4,82 -31,96 -76,40 -15,-19 -31,-35 -35,-35 -16,0 -8,59 10,69 15,9 15,10 -4,11 -12,0 -25,7 -28,16 -4,11 -14,15 -30,12 -31,-6 -48,22 -45,74 3,31 -1,42 -16,50 -15,9 -22,7 -34,-11 -45,-64 -57,-72 -85,-60 -21,10 -26,19 -26,51 0,28 -5,40 -17,45 -10,3 -27,14 -38,24 -34,29 -67,28 -95,-5 l -25,-30 -5,110 -5,109 -17,-32 c -10,-17 -26,-34 -37,-38 -10,-3 -21,-15 -24,-25 -3,-12 -14,-20 -25,-20 -11,0 -22,-4 -24,-9 -1,-4 -13,-12 -26,-16 -21,-6 -23,-4 -21,22 2,15 -1,58 -5,96 -7,55 -12,67 -26,67 -20,0 -50,-50 -50,-83 0,-11 -3,-17 -7,-14 -3,4 -17,0 -30,-8 -14,-9 -23,-11 -23,-5 0,6 -4,9 -9,5 -12,-7 -71,96 -71,124 0,14 -9,25 -27,32 -22,8 -32,6 -54,-11 -16,-11 -41,-20 -57,-20 -24,0 -31,5 -35,28 -13,59 -27,139 -32,177 -9,60 -14,72 -33,80 -11,4 -22,-1 -32,-16 -19,-27 -70,-79 -79,-79 -3,0 -23,15 -43,33 -65,58 -49,96 39,97 17,0 34,4 37,9 9,15 -83,17 -116,4 -35,-15 -54,-8 -37,14 30,36 134,66 114,32 -4,-5 -1,-9 5,-9 6,0 10,12 8,28 -3,24 -6,27 -38,23 -19,-1 -48,-10 -63,-18 -33,-17 -46,-11 -27,12 20,24 5,29 -31,11 -59,-29 -66,-13 -19,41 17,18 30,40 30,48 0,7 6,16 13,18 9,4 9,6 -1,6 -6,1 -20,-7 -30,-16 -10,-10 -26,-25 -36,-33 -16,-13 -18,-12 -16,10 4,42 1,45 -22,20 -17,-18 -23,-20 -27,-9 -5,16 -42,51 -48,46 -2,-2 4,-20 12,-40 8,-20 15,-47 15,-60 0,-13 5,-28 11,-34 7,-7 9,-19 5,-28 -5,-13 -17,-7 -65,32 -33,26 -60,53 -60,58 -1,6 -10,16 -21,23 -13,8 -20,23 -20,42 0,33 18,116 30,141 5,9 6,55 4,102 -4,70 -2,87 10,87 17,0 16,31 -3,46 -16,13 -32,158 -25,229 3,28 12,65 21,84 11,26 12,35 3,41 -16,10 23,37 74,51 47,13 87,6 161,-26 31,-14 70,-25 88,-25 28,0 37,-7 66,-52 19,-29 34,-59 34,-67 0,-22 31,-48 65,-56 17,-3 36,-13 43,-21 6,-8 23,-14 38,-14 52,0 67,-11 94,-68 50,-105 64,-125 93,-139 l 29,-14 -31,28 c -28,26 -54,71 -54,94 0,5 11,7 25,3 15,-4 25,-2 25,5 0,10 -8,12 -54,15 -20,1 -28,13 -42,60 -7,21 -25,37 -74,63 -83,45 -99,62 -106,117 l -6,44 h 46 c 26,0 53,5 60,11 10,8 24,7 52,-5 21,-9 41,-19 44,-23 13,-17 58,-38 68,-32 7,4 31,5 55,1 23,-3 62,-2 86,2 27,5 45.7285,6.543 49.7285,1.543 3,-6 20.543,-35.3443 32.7285,-76.9468 14.5266,43.498 -24.3105,104.2667 47.8145,47.2316 56.8475,-83.8607 26.9405,-22.3841 1.6291,-68.6886 39.4038,18.9868 30.7747,1.457 59.0329,-15.1721 -7.2582,32.1456 -39.8341,61.4766 -10.8341,61.4766 53,0 59.2848,10.6158 85.2848,-33.3842 8,-14 47.6158,-53.0595 94.6158,-56.0595 52,-4 65,-8 78,-29 -3.7995,50.1034 -93.3877,19.7697 -130.1987,58.7551 -23,25 -54.245,57.7019 -42.245,69.7019 10,10 36.9867,23.4436 64.9867,17.4436 21,-5 41.457,-13.9006 49.457,-8.9006 13,8 12,9 -6,10 -12,0 -43.8537,9.622 -49.6158,8.7285 C 3543.6424,4437.9139 3588,4462 3550,4443 c -19,-10 -45,-17 -58,-15 -24,4 -110.7285,71.8278 -110.7285,90.8278 0,6 19.7285,30.1722 45.7285,42.1722 39,18 51.6424,23.8146 103.6424,18.8146 55,-6 41.3842,-5.2716 64.0994,4.0993 -3.5298,27.2715 70.2183,39.9007 53.2183,39.9007 -30.7298,-2.5953 -49.6718,-12.6526 -64.7019,-31.0861 -27.3443,-7.1722 -65.6886,-1.9007 -79.6886,1.0993 -19,4 -50.8873,1.2849 -18.0133,36 41.9683,75.546 -13.0254,-1.634 -40.543,-2.7284 0,0 14.9867,-34.0994 -46.0133,-49.0994 -32,-8 -59,-35.1589 -59,-30.1589 0,12 -37.1722,-25.6025 -64.5297,5.9007 -12,-8 -30.914,-7.7285 -59.914,-3.7285 -38,6 -41.1854,26.2582 -40.1854,42.2582 1,12 14,27 29,35 15,8 25.4569,26.6291 25.4569,32.6291 29.2432,85.8569 48.3799,48.782 61.0861,89.0994 7,13 46.0595,12.7551 83.9336,-12.5032 26.7019,32.2317 43.1455,40.8608 -4.1589,19.2583 C 3321.0266,4785.4703 3352,4802 3395,4786 c 35,-14 60,-16 125,-10 55,4 80,11 80,19 0,9 -8,11 -22,7 -15,-4 -35.5297,-9.6291 -29.5297,-0.6291 4,7 32.5297,18.6291 42.5297,15.6291 11,-3 30,6 49,24 24,23 39,29 75,29 25,0 45,5 45,10 0,6 -28,10 -65,10 -37,0 -38.2981,-5.2715 -38.2981,-11.2715 0,-6 -23.3576,-23.0861 -43.3576,-32.0861 -21,-10 -47,-11.0133 -58,-20.0133 -24,-20 -45.2253,-34 -95.1854,-31.4437 -3,5 -33.9174,8.5132 -26.6026,27.3576 13.8695,35.7303 25.1722,44.3443 78.576,60.6159 -32.9944,9.4782 -74.1345,-11.779 -78.1323,-27.1589 -39,-70 -36,-29 -65,-31 -50,-3 -183,-70 -199,-101 -7,-13 -20.9139,-53.4304 -36.9139,-58.4304 C 3039.408,4623.5817 3138.8783,4565.4511 3025,4619 c -48,23 -90,27 -100,11 -9,-15 -55,-12 -55,4 0,21 -2.3649,12.4947 33.126,39.1854 0,0 88.874,20.8146 55.874,29.8146 -91.119,-45.1323 6.1978,85.0504 -14.7019,66.4171 -48.4899,-43.2317 -5.1589,5.2715 -30.5892,21.9867 C 2898.6672,4801.2906 2928,4736 2899,4709 c -45,-42 -68,-44 -130,-16 -30,14 -74,28 -99,31 -69,10 -36.8544,1.7418 -16.8544,43.7418 22,46 22.8544,68.086 71.8544,52.086 28,-9 30.2848,-12.8145 51.2848,-3.8145 36.4437,-5.2582 36.8146,15.6291 72.3576,12.9734 30.9006,10.1589 59.9867,-5.9272 102.3177,-30.3576 6.457,-20.6158 7.9272,-58.9468 56.2582,-56.3177 55.9735,28.6886 -43.8474,-17.3975 -19.9202,66.5032 3,8 40.2449,4.8278 47.2449,4.8278 7,0 31.0861,8.2715 48.0861,17.2715 20,10 37.3709,18.0861 69.3709,15.0861 26,-3 50,-1 53,4 4,6 -9,10 -29,10 -40,0 -44.8146,-7.1722 -28.8146,38.8278 1.914,40.3444 32.48,53.5383 41.4437,61.5165 10,8.9006 69.4457,-41.1356 50.7152,-16.6025 -20.7622,27.1943 -18.2316,19.7285 4.0266,35.7152 8,3 15.3576,22.4436 15.3576,22.4436 -33.2952,-12.7237 -33.0861,-40.4171 -65.1722,-26.8012 -41,-12 -44.5563,-14.0994 -68.5563,-51.0994 -42,-63 -67,-77 -121,-69 -51,7 -66.2848,31.9139 -50.2848,61.9139 5,10 0.7417,44.702 8.7417,44.702 8,0 34.1722,49.874 45.1722,64.874 11,15 10.2981,23.2847 29.2981,34.2847 29,16 61.0728,-28.7746 93.0728,-37.7746 31,-8 47,-7 77,6 21,9 55.9006,33.8013 66.9006,32.8013 11,0 6.3842,-15.6159 15.3842,-7.6159 24,20 92.7152,8.8146 96.7152,-19.1854 7,-50 58.8013,-5.1854 32.3975,-71.7152 24.6753,46.8013 30.2391,7.9063 44.5892,26.7152 17.539,22.9887 -55.1456,-14.6158 -19.9139,20.0861 C 3403.6424,5004.0133 3386,5035 3427,5026 c 34,11 0.6956,15.5563 63,36 10.4517,3.4295 -21.6424,7.457 -35,-2 -9,-15 -41.4147,-48.3785 -68.8013,8.8146 0,0 -18.1126,8.5563 -54.1987,12.1854 -10,-2 -75.5759,-8.7152 -7,18 6,21 -9,29 -20,11 -4,-6 -33,-24 -64,-40 -52,-26 -62,-28 -95,-18 -20,6 -52.5297,44.2449 -52.5297,48.2449 0,4 3.2981,39.4437 39.2981,65.4437 L 3242,5173 l 82,-8 c 60.338,2.2582 10.1329,-0.5563 121.126,2.457 33.0572,-13.4169 114.2715,71.0993 121.8607,-9.0665 35.1217,-2.2739 -27.3596,40.0324 22,40.5234 C 3572.2981,5214.0861 3606,5217 3608,5237 c 2,22 -78.8342,-99.3373 -57.5032,16.8146 -20.7284,-72.6754 -60.8677,-64.7418 -77.5962,-63.8146 -54.0662,2.9968 69.3772,70.0968 21.4748,49.2445 -47.9024,-20.8523 -42.0178,-33.4033 -48.6602,-54.6616 -71.4038,-4.4569 -176.5442,-15.0678 -247.2582,30.3177 C 3172.7883,5231.3753 3242,5339 3253,5343 c 7,3 37,1 67,-4 44,-7 60,-15 81,-40 22,-27 24.9139,-23.6424 51.9139,-17.6424 35.8279,13.8146 30.0133,3.1259 -4.543,14.4702 -28,-5 -42.3576,10.9868 -55.3576,31.9868 -10,14 -26.7285,17.0993 -42.7285,19.0993 -21,2 -42.4437,15.5564 -42.4437,15.5564 27.245,30.8012 18.5298,5.3841 45.8741,15.4702 -39.3576,12.8013 14.8145,43.0595 23.2582,72.4899 -47.5031,-14.8013 -43.6158,-46.6886 -62.6158,-59.6886 -20,-13 -51.3576,-19.3709 -66.4437,-9.6557 -23,-7 -93.0399,-96.8412 -85.0399,-104.8412 8,-8 -40.2715,-60.3576 -64.2715,-67.3576 -37.7152,-61.4038 -68.6886,-38.1455 -56.2316,21.1988 117.9545,98.885 0.3393,67.2054 -9.2646,106.6291 C 3011.4177,5406.0329 3180,5368 3180,5375 c 0,7 8.7418,65.9734 37.7418,96.9734 45,48 74.8012,61.0861 106.8012,61.0861 46,0 75,-3.3709 112,-36.3709 16,-14 43.0861,-36.1721 53.0861,-36.1721 26,0 71.3709,-2.5165 95.3709,24.4835 11,12 34,27 50,33 l 30,10 -31,1 c -19,1 -42,-8 -60,-24 -16,-14 -32,-25 -36,-25 -4,0 -22,14 -40,30 -18,17 -42,33 -53,36 -11,3 -32,11 -46,17 -26,11 -26,11 24,28 6.5696,38.9734 27.4835,43.2582 40.4835,61.2582 5.914,63.3177 38,47.5431 72.7152,66 L 3594,5741 l -34,-6 c -36,-6 -61.2519,20.1785 -139.9139,-67.8544 2.9139,-76.1456 -57.5102,-74.0595 -109.0266,-96.6621 -130.7215,-50.662 -91.8279,-2.3113 -122.8279,-69.3113 -16,-37 -32.7151,-103.576 -89.6886,-77.2317 -42,8 -47.543,45.0595 -20.543,66.0595 27,22 28,30 3,30 -24,0 -61,-45 -61,-75 0,-60 -34.6557,-91.9405 -85.6557,-91.9405 -35,0 -94.0063,44.9405 -35.0063,106.9405 13,14 102.662,43 114.662,65 25,47 118,114 159,114 16,1 38,6 50,12 27,14 66,59 67,77 0,7 14,12 34,12 19,0 38,5 42,11 4,7 -3,10 -17,9 -47,-4 -49,-2 -34,34 10,24 11,37 4,41 -6,4 -13,-1 -15,-11 -3,-11 -16,-44 -28,-74 -24,-60 -37,-69 -131,-96 -33,-10 -70,-24 -83,-32 -20,-13 -24,-13 -37,4 -22,29 -18,62 15,116 17,26 30,53 30,58 0,6 7,10 16,10 13,0 15,7 11,29 -6,28 -4,30 33,36 22,4 40,10 40,15 0,4 9,10 19,13 19,4 57,75 47,85 -22.5571,-12.2312 -33.3438,-52.9201 -63,-48 -3,-50 -19.7418,-13 -54.7418,-30 -34,-16 -48.2582,-110 -86.2582,-30 -14,-1 1.4038,-72.0595 -7.5962,-94.0595 -5,-13 -50.1456,-40.3709 -54.1456,-69.3709 19.9734,-181.0658 -19.2762,-119.4886 -42.2762,-70.4886 -65.5424,71.946 -22.2018,119.3136 -42.1928,117.7172 -32.982,-21.3766 -44.3766,3.009 -55.3676,40.5964 C 2805.045,5813.8072 2852,5830 2859,5825 c 26.5957,-10.7945 50.1572,2.6026 76.3316,4.973 -8.3856,21.982 -73.5154,1.4216 -73.5154,20.4216 0,23 29.7806,36.7538 46.7806,57.7538 28,33 21.7741,114.3415 1.7741,107.3415 -7,-2 6.4183,-76.6827 -25.7475,-89.2791 -19.5784,1.3856 -24.3981,-59.1576 -52.3981,-49.1576 -18,6 -3.6109,58.1576 -5.6109,59.1576 -2,1 18.3856,19.7892 27.3856,28.7892 18,18 22,45 6,45 -5,0 -14,-8 -19,-17 -10,-17 -36.4304,-77.0329 -27.1722,54.8608 -11,39 -22.8278,-35.8608 -20.8278,-84.8608 2,-51 44.0329,-215.4101 -58,-65 -18,3 -27,-1 -31,-14 -8,-22 -44.9967,-71.5328 -58.3709,-0.2519 C 2636.3564,5933.1695 2631,5816 2633,5822 c 1,7 -8,14 -20,16 -24,4 -33,42 -10,42 23,0 56,63 50,95 -3,17 -10,33 -15,36 -21,13 7,37 57,48 51,12 85,34 71,48 -3,4 -21,1 -39,-5 -51,-18 -52,-15 -13,32 30,36 36,52 36,90 v 45 l 41,-2 c 26,-1 44,3 46,11 3,8 -5,12 -24,12 l -28,1 28,20 c 27,21 35,39 17,39 -5,0 -33,-14 -61,-31 -49,-30 -50,-33 -48,-73 3,-62 0,-76 -14,-76 -14,0 -118,-139 -130,-173 -8,-22 21,-36 34,-16 6,10 9,7 9,-13 0,-42 -70.9734,-127.662 -65.457,-35.1722 -27,36 -40.543,30.1722 -41.543,-43.8278 45.7747,-56.2848 24.4304,-79.6291 -40,-111 -39.4167,-19.1918 -62.8013,-33.9139 -78.8013,-28.9139 -31,10 -52.8012,62.8873 -29.8012,107.8873 11,22 55.6025,30.0266 55.6025,51.0266 0,50 16,63 88,71 41,4 57,10 57,21 0,10 -9,14 -28,13 -29,-2 -29,1 -10,55 3,6 -2,12 -12,12 -9,0 -14,-3 -11,-8 9,-15 -23,-70 -46,-78 -12,-4 -28,-14 -35,-23 -10,-14 -13,-14 -27,-1 -22,22 -30,66 -14,79 7,6 42,30 78,52 103,65 110,74 110,139 0,32 3,72 6,89 6,27 10,31 40,31 29,0 38,6 59,41 15,22 27,56 29,74 2,19 8,41 15,48 17,21 0,29 -21,10 -10,-9 -18,-30 -18,-48 0,-18 -7,-38 -15,-45 -8,-7 -15,-18 -15,-25 0,-7 -13,-18 -30,-24 -35,-12 -37,-6 -10,29 25,32 25,40 0,40 -11,0 -23,-8 -26,-17 -3,-10 -12,-31 -20,-48 -8,-17 -15,-62 -15,-105 -1,-41 -5,-82 -10,-91 -10,-20 -75,-60 -83,-52 -13,13 -5,43 14,53 21,11 28,40 10,40 -5,0 -10,-4 -10,-10 0,-12 -10,-13 -29,-1 -12,8 -12,13 2,35 19,28 21,36 10,36 -13,0 -41,-58 -33,-67 4,-4 10,-31 12,-59 l 5,-51 -43,-24 c -24,-13 -46,-20 -50,-16 -12,12 -15,75 -4,82 5,3 10,13 10,22 0,12 -3,13 -13,4 -8,-6 -18,-7 -22,-3 -5,4 -5,-1 -2,-10 4,-10 2,-17 -4,-15 29,-105 -55,-51 -43,-63 8,-8 34,-16 65,-19 4,-1 7,-11 7,-23 0,-13 30.9734,-102.119 34.9734,-119.119 L 2335.7418,5903.7949 2332,5998 c -69.1456,54.3443 -42,28 -30,-15 8,-28 7,-51 -2,-87 -7,-27 -9,-51 -4,-55 5,-3 9,-27 9,-53 1,-39 7.1722,-49 -8.8278,-54 2.6025,-28.8013 -65.8279,-9.9468 -65.8279,43.0532 0,23 -49.4038,50.543 -53.0329,93.1455 0,0 -1.543,77.1722 -31.543,97.1722 -43,29 -19.7684,70.6291 -4.7684,88.6291 7,8 9,28 6,49 -5,30 -2,36 21,47 26,13 33,29 15,35 -4,2 -23,-6 -42,-18 -30,-18 -32,-23 -27,-54 10,-50 -8.457,-107.5759 -22.457,-55.5759 -9,32 -11.543,119.5759 -1.543,167.5759 6,34 11,99 11,145 -2,126 -2,147 5,221 6,65 7,69 40,84 57,27 86.7747,53.1722 -18,18 -43.1673,0.5894 -35.5404,-68.8789 -77.9734,47.2848 z M 2058,6378 c 0,0 9,32 0,-8 -0.1932,-4.2402 53.1722,40.1456 5.6886,-98.9671 -6.8873,-35.6025 -102.7747,141 -50.9734,1.9202 0,0 133.3983,-143.0912 -27.2848,-144.3443 0,0 -34.4304,-162.6088 -51.4304,-177.6088 -14,-12 -27,-21 -29,-19 -4,3 -6,86 -5,163 1,17 1,49 1,73 0,36 6,48 35,75 35,33 43,60 30,108 -6,22 -2,32 20,52 33.281,40.9186 120.5493,9.9065 72,-25 z m 4,-372 c 72.724,-32.3472 80.9629,-120.5867 86.5165,-176.3709 4,-69 8.4835,-139.6291 41.4835,-139.6291 28,0 61,-32 64,-63 1,-15 11.7982,-45.5874 19.7982,-52.5874 9,-6 14.6054,-40.1928 20.6054,-65.1928 14,-68 10.9673,-196.7363 -2.0327,-204.7363 -12,-8 -39.8279,19.457 -39.8279,36.457 0,6 -34.8873,45.6291 -47.8873,78.6291 -14,35 -0.6557,86.4304 5.3443,88.4304 15,5 40,32 40,43 0,5 -14,2 -31,-6 -37,-19 -45,-15 -29,15 9,17 9,25 0,34 -9,8 -16,6 -27,-11 -21,-32 -177,-230 -231.0126,-162.5557 -14,26 74.8075,89.7747 56.8075,95.7747 C 1973.4835,5543.8481 2013,5729 2071,5722 c 4,-1 16,9 28,22 17,18 19,26 10,32 -8,4 -21,-3 -35,-19 -13,-15 -25,-24 -27,-19 -9,18 -7,82 2,101 14,25 -3,38 -24,21 -10,-8 -15,-31 -15,-62 0,-27 -7,-63 -16,-80 -31.9561,-40.9852 -13.591,-91.4379 -43,-45 -55.4304,54.0861 -32,165 -2,202 11,15 21,37 21,48 0,14 5,18 19,14 17,-4 17,-1 8,30 -9,28 -8,36 4,44 8,5 21,6 29,3 8,-4 22,-7 32,-8 z m 527.7152,-296.3709 c 19.3114,-63.5696 7.6291,-15.2582 -40.6886,-46.2848 C 2633.4038,5645.2582 2586,5620 2590,5620 c 13,0 4,-81 -10,-90 -29.9077,-44.6459 25.3619,-13.666 0,0 -74.3501,-22.9799 -13.5976,-34.5899 -40.3709,-7.8013 -58.3406,56.1658 12.706,56.3325 -13.9791,126.76 -43.9619,-128.9689 -26.394,-46.3107 -84.4247,-49.9524 79.7927,-82.8225 77.9646,-103.3794 10.0595,-78.0329 -13,-17 -57.0294,-57.9971 -58.0294,-40.9971 0,10 -0.4453,40.2134 -11.4453,62.2134 15.5604,29.8162 -38.365,49.2969 15.3502,101.5286 36,8 51.4625,48.4539 89.6081,68.1095 C 2502.7691,5720.0727 2543,5762 2568,5788 c 60.0764,56.0363 47.4979,-53.0383 21.7152,-78.3709 z m 219.038,28.4339 c 36,-14 46.713,-35.0008 52.1076,-71.0098 1.6297,-10.8786 1.8162,-28.1867 23.8162,-67.1867 45,-79 9.323,-68.8665 -41.677,-105.8665 -21,-16 -34.543,-28.3709 -43.543,-64.3709 -31.2583,-136.5759 -0.7215,-89.9936 -94.2849,-151.4241 8.8608,-62.8012 -38.7417,-147.2645 -14.7417,-100.2645 -35.8608,27 -40.9468,63.4304 -50.9468,98.4304 -7,22 -20.5431,57.6291 -28.5431,68.6291 -17,24 -45.9734,83.2582 -28.9734,113.2582 27,50 100.0329,41.7418 150.0329,41.7418 44,0 50,3 68,33 22,36 25,47 10,47 -5,0 -16,-13 -25,-30 -10,-20 -23,-30 -39,-30 -33,0 -38,9 -19,41 24,40 9,47 -22,10 -15,-17 -35,-31 -45,-31 -16,0 -34.2582,-7.8013 -38.2582,55.1987 -2,39 8.2582,98.8013 4.2582,109.8013 -5,15 4,32 38,69 -5.5165,61.6025 65.8013,89.2316 70.8013,87.2316 4,-1 73.7321,-84.5992 73.9519,-123.1686 z m -859.7469,-185.7985 c 11,7 -68.0063,-92.2645 -66.0063,-92.2645 9,0 -8,-78 -20,-92 -10,-11 -14,-32 -11,-60 3,-38 1,-43 -19,-46 -16,-2 -23,2 -23,12 0,9 -4,16 -8,16 -20,0 -50,134 -33,144 6,4 11,18 11,31 0,15 7,26 20,30 11,3 20,10 20,15 0,8 61.6886,135.5228 88.6886,138.5228 53.8676,-42.7714 40.7804,-47.9043 40.3177,-96.2583 z m 585.3973,-98.0897 c 15.47,10.2164 15.4043,-39.1258 20.4837,-97.5457 4,-33 -37.1455,-30.1987 -44.1455,-28.1987 -5,2 -79.7747,-80.9469 -79.7747,-80.9469 -29.543,44.2912 8.6886,37.6621 0.6886,77.6621 -15,80 17.3533,128.6706 51.3533,141.6706 20,8 32.3946,4.3586 51.3946,-12.6414 z m -410.0859,40.0632 c 26,3 18.8279,-91.5494 23.8279,-125.5494 4,-20 156.9531,-186.4101 6.2848,-107.9468 C 2050.9937,5359.6354 2138,5255 2116,5230 c -14,-17 -28,-30 -32,-29 -4,0 -11,-5 -15,-13 -6,-8 -8,2 -7,27 1,47 -9,85 -24,85 -7,0 -8,-15 -4,-41 7,-43 -5,-96 -32,-137 l -14,-22 -24,25 c -13,14 -24,30 -24,36 0,13 -7,11 -35,-7 -36,-23 -33,-54 4,-54 37,0 49,-16 55,-73 5,-50 -6,-60 -26,-27 -7,11 -18,20 -24,20 -17,0 -40,31 -48,63 -9,39 26,145 62,189 8,10 12,29 10,43 -6,30 18,57 32,36 6,-11 9,-10 16,2 10,17 35.8278,39.7152 44.8278,26.7152 3,-4 77.4899,112.5228 93.4899,114.5228 z m -741.5834,-286.2626 c -36.0559,-7.3027 2.2837,64.7219 18.2837,67.7219 13,3 59.982,-3.6973 80.982,-11.6973 24,-8 56,-56.7747 83,-53.7747 37,6 95.6407,-35.6263 95.6407,-35.6263 24.8012,-38.4304 12.5388,-54.6766 21.9708,-59.1721 31.0735,-15.0608 7.4889,-28.6716 1.2047,-43.2521 l -61.0739,18.018 c -62.7151,32.2085 -30.1977,23.4316 -82.09,61.955 -34.2295,4.6864 -16.2993,15.4534 -51.4018,5.9261 71.928,-51.7262 48.5244,-78.1316 -33.6054,-60.2415 -74.2306,-2.3946 -70.3405,49.9639 -74.3405,60.9639 -11,36 51.8532,81.0782 1.4297,49.1791 z M 2560,5282.8013 c 10,-12 44.6025,-73.4899 21.9734,-96.3772 52.0691,-46.8811 16.613,-59.2963 19.2317,-67.338 11.6092,-86.3538 -15.6666,-73.5317 -16.4633,-145.6291 0,-40 -5.2715,-31.7418 -29.2715,-44.7418 -15,-8 -30.457,-33.6291 -37.457,-47.6291 -11,-24 -1.0133,-31.0861 -38.0133,-25.0861 -28,5 -40,3 -40,-5 0,-7 -10,-11 -22,-9 -18,2 -23,9 -22,33 2,51 36.3443,27.6228 86.9468,82.3114 -24.0594,31.8874 110.6291,118.543 78.662,169.9797 -29.9734,5.7418 -124.3167,-150.8685 -134.867,-83.0658 -57.5218,11.7235 76.594,179.9535 82.2582,198.7747 25,41 33,61.8013 51,39.8013 z m 423.6025,-23.7684 c -5,-35 14.9734,-120.3177 9.9734,-131.3177 -21,-43 -74.6886,-65.7418 -76.6886,-88.7418 -2,-13 -53.3177,-79.4038 -56.3177,-82.4038 -33.0728,-53.6886 -21.8082,-24.7417 -110.0133,5.6887 -24,6 -37.6424,-1.576 -29.6424,38.424 7,35 18.9671,41.4241 24.7089,86.8278 21.8303,65.3412 42.4581,18.7203 132.6221,55.6158 39.2386,61.2317 10.9952,102.4565 5.7418,84.9469 -13.3946,-44.6446 -27.9601,-104.4235 -64.907,-28.3044 -34.4632,120.0924 324.562,95.205 164.5228,59.2645 z m -752,-106.1785 c 28,-29 1.0266,-3.0266 -3.9734,-90.0266 -5,-80 -15.6291,-80.8278 -40.6291,-107.8278 -30,-32 -77,-116 -77,-138 0,-7 -9,-13 -19,-14 -16,-1 -21,7 -27,43 -12,84 17,161 72,188 20,9 33,22 32,33 0,10 3,26 7,36 14,34 -22,18 -39,-18 -9,-19 -23,-35 -31,-35 -8,0 -18,-8 -24,-17 -7,-14 -12,-15 -24,-5 -39,32 -19,130 23,117 16,-5 23,2 37,34 21,49 75.6025,13.8544 114.6025,-26.1456 z m -526.116,-188.0003 c 14.0984,-7.8013 45.6054,-37.3117 61.7063,-51.0829 28.5964,-7.6703 41.1099,-22.0649 77.1099,-68.0649 28,-35 55.6973,-99.7063 55.6973,-144.7063 0,-16 -2.4036,-8.2108 -38.4036,-5.2108 -29.3624,9.775 -29.7182,4.4684 -63.6973,11.7982 -36,7 -44.8991,-11.1748 -50.8991,16.8252 -7,38 -24.3676,145.5154 35.7063,87.4775 l 33.4955,36.2667 -33.6883,-21.4505 c -62.3586,26 -59.1658,44.0829 -47.2018,105.91 -41.0739,-40.2667 15.5987,-204.5868 -60.2667,-95.2307 -16.5413,23.8435 -89.5333,31.8541 -128.5333,69.8541 -67.964,14.018 -116.6138,64.4186 -135.0234,98.264 -46.8752,86.1785 198.227,7.6531 203.227,7.6531 6,0 42.1046,-21.3733 90.7712,-48.3027 z M 2187,4243 c -4,-3 -2,-13 5,-20 9,-11 9,-16 0,-22 -9,-5 -9,-21 -1,-67 6,-32 14,-61 18,-64 15,-12 40,-59 29,-55 -10,4 -13,-9 -13,-47 1,-52 -17,-98 -37,-98 -6,0 -8,12 -5,27 4,23 -13,66 -34,83 -13,10 -34,56 -36,80 -3,22 12,75 37,135 4,11 11,28 14,38 3,9 11,17 17,17 7,0 9,-3 6,-7 z m 57,-390 c -4,-21 -8,-51 -9,-68 -2,-45 -15,-95 -26,-95 -5,0 -8,-19 -7,-42 3,-39 1,-43 -19,-41 -13,2 -23,-2 -23,-7 0,-6 6,-10 14,-10 21,0 37,-25 30,-45 -7,-17 -8,-17 -22,1 -13,18 -14,17 -7,-6 4,-14 14,-31 23,-38 15,-11 15,-14 2,-22 -12,-8 -12,-10 3,-16 9,-3 17,-11 17,-16 0,-6 -7,-5 -16,3 -21,17 -33,-2 -35,-56 0,-32 -2,-36 -9,-20 l -9,20 -1,-20 c -2,-11 -2,-23 -1,-27 0,-4 -6,-5 -14,-2 -21,8 -19,30 4,46 10,7 21,27 25,45 6,26 4,34 -14,43 -20,10 -21,10 -11,-8 8,-16 7,-25 -7,-42 -17,-21 -17,-20 -14,24 3,29 9,46 17,46 14,0 12,53 -3,58 -4,1 -6,16 -4,32 2,17 0,30 -6,30 -14,0 -26,80 -14,92 7,7 12,0 17,-21 4,-17 11,-29 16,-25 5,3 9,0 9,-7 0,-7 3,-9 6,-6 12,11 15,77 4,77 -5,0 -10,-9 -10,-20 0,-11 -4,-20 -10,-20 -5,0 -10,6 -10,13 0,6 -3,22 -6,35 -5,16 -2,22 10,22 9,0 16,6 16,13 0,9 3,8 9,-2 12,-18 23,2 19,34 -2,16 7,34 26,54 40,41 50,39 40,-6 z M 1518,1896 c -2,-23 0,-32 8,-29 7,2 15,-1 19,-6 3,-6 10,-9 15,-6 12,8 31,-30 24,-48 -6,-18 -48,-31 -52,-17 -2,6 -8,10 -13,10 -6,0 -7,-4 -4,-10 3,-5 2,-10 -3,-10 -5,0 -12,-12 -14,-27 -3,-16 -7,-35 -9,-43 -2,-9 4,-16 17,-18 15,-2 23,3 27,17 3,13 1,18 -8,15 -9,-4 -11,3 -8,20 4,19 12,26 29,26 27,0 40,-15 22,-27 -7,-4 -14,-17 -16,-28 -9,-57 -15,-74 -23,-69 -8,5 -13,-16 -10,-41 1,-5 -5,-2 -13,9 -14,17 -15,16 -14,-10 1,-33 -15,-79 -32,-89 -16,-10 -24,1 -14,17 5,7 14,27 20,45 10,28 9,33 -16,55 -15,13 -33,22 -40,20 -18,-6 -3,48 17,63 12,9 13,14 4,19 -6,4 -19,2 -27,-5 -22,-18 -49,10 -39,42 6,19 9,20 19,8 15,-21 52,-21 68,-1 12,15 11,16 -4,4 -15,-12 -21,-11 -43,6 -20,16 -22,22 -11,31 7,6 21,9 30,5 17,-7 18,11 1,49 -5,12 -2,24 8,34 13,14 16,12 22,-16 7,-33 12,-36 35,-21 11,7 12,12 3,21 -14,14 -6,39 14,39 11,0 14,-9 11,-34 z m 2083,-87 c 6,-10 9,-10 9,-1 0,6 5,12 10,12 17,0 11,-22 -20,-85 -34,-68 -36,-79 -15,-118 13,-26 13,-28 -3,-25 -9,2 -18,13 -20,26 -2,12 -9,22 -17,22 -10,0 -11,-7 -2,-35 9,-31 22,-40 50,-36 7,1 10,-11 10,-44 0,-30 -3,-36 -13,-30 -5,3 -10,1 -10,-5 0,-7 8,-9 20,-5 14,5 20,2 20,-9 0,-9 -5,-16 -11,-16 -5,0 -7,-5 -4,-10 4,-6 2,-16 -3,-23 -5,-7 -12,-24 -16,-39 -3,-14 -9,-33 -12,-42 -5,-12 -2,-15 10,-10 9,4 19,24 23,48 l 7,41 6,-35 c 5,-33 -11,-125 -25,-139 -4,-3 -6,1 -5,9 1,8 2,26 1,40 -2,24 -3,24 -11,4 -12,-30 -18,-114 -9,-114 4,0 12,7 17,16 15,27 20,1 6,-31 -8,-19 -13,-23 -14,-12 0,18 -20,24 -20,6 0,-7 -10,-9 -24,-7 -18,4 -26,0 -29,-14 -3,-10 -12,-18 -21,-18 -10,0 -16,-9 -16,-25 0,-14 -4,-25 -10,-25 -5,0 -10,-9 -10,-21 0,-11 -4,-17 -10,-14 -5,3 -10,-3 -10,-14 0,-24 10,-27 28,-9 16,16 15,-3 -2,-24 -7,-10 -17,-14 -21,-10 -4,4 -5,-6 -3,-21 3,-15 3,-26 0,-23 -2,3 -11,-1 -19,-9 -23,-24 -33,-17 -26,18 l 6,32 -23,-28 c -17,-21 -19,-31 -10,-41 7,-10 8,-16 0,-21 -5,-3 -10,-1 -10,6 0,7 -3,10 -6,6 -9,-9 6,-48 17,-41 13,7 -50,-95 -73,-120 -10,-11 -15,-28 -12,-40 3,-14 -2,-25 -16,-34 -18,-11 -20,-10 -20,17 0,16 6,31 15,35 8,3 15,12 15,19 0,8 7,20 15,27 12,10 13,16 4,27 -9,11 -9,12 3,8 9,-4 22,4 32,20 18,27 15,55 -5,55 -6,0 -9,-7 -6,-14 4,-10 1,-13 -7,-10 -19,7 -39,-22 -34,-51 3,-15 1,-25 -6,-25 -11,0 -43,-87 -38,-104 2,-4 -2,-14 -8,-21 -12,-15 2,-55 20,-55 5,0 12,-9 15,-20 3,-11 13,-27 21,-35 14,-13 14,-17 1,-30 -19,-18 -28,-9 -21,21 5,18 2,24 -10,24 -9,0 -16,-7 -16,-16 0,-10 -6,-14 -15,-10 -10,3 -15,-1 -15,-11 0,-16 -1,-16 -17,0 -16,16 -16,19 0,52 20,43 23,65 5,47 -7,-7 -20,-12 -30,-12 -18,0 -22,-9 -19,-42 3,-25 -26,-22 -32,3 -7,27 12,69 32,69 11,0 10,3 -5,14 -19,14 -39,3 -28,-16 3,-4 -2,-8 -10,-8 -10,0 -16,-9 -17,-22 -1,-18 -3,-17 -8,7 -9,36 -4,55 14,55 12,0 25,30 25,60 0,13 -1,13 -10,0 -7,-10 -10,-11 -10,-2 0,7 7,15 15,18 10,4 13,14 8,32 -5,20 -3,24 9,19 10,-3 20,3 28,19 15,27 7,42 -13,26 -8,-7 -17,-9 -20,-5 -4,3 -7,-1 -7,-9 0,-17 -24,-31 -34,-21 -11,11 -6,23 9,23 8,0 15,7 15,15 0,8 -5,15 -11,15 -7,0 -8,11 -4,30 9,43 -4,58 -26,29 -18,-23 -18,-23 -2,31 15,53 33,87 33,62 0,-7 5,-12 11,-12 18,0 5,44 -21,67 -14,13 -19,23 -13,23 7,0 12,3 11,8 -4,19 16,62 28,62 11,0 12,4 5,19 -6,10 -7,22 -3,26 4,5 1,5 -6,1 -7,-4 -20,-25 -29,-47 -8,-21 -19,-39 -23,-39 -11,0 -18,60 -8,66 4,3 8,15 8,27 0,12 10,33 23,47 28,32 30,57 7,80 -18,18 -19,18 -29,-8 -9,-26 -9,-26 -10,-4 -2,39 16,61 44,56 14,-2 25,0 25,5 0,5 3,18 7,28 6,17 6,17 -14,1 -11,-10 -28,-18 -38,-18 -18,0 -18,0 0,13 10,8 15,19 12,25 -4,5 -3,21 2,34 8,18 10,19 10,5 1,-10 6,-15 11,-12 6,4 9,19 8,33 -2,17 1,26 10,24 15,-3 16,13 2,38 -7,13 -7,21 0,25 6,4 13,-7 16,-25 5,-21 11,-29 20,-26 8,3 14,1 14,-4 0,-6 -7,-10 -15,-10 -11,0 -15,-8 -13,-27 2,-20 -3,-30 -20,-39 l -23,-11 22,-6 c 15,-4 27,0 35,11 19,25 23,12 14,-38 -5,-25 -6,-62 -3,-82 4,-25 2,-38 -6,-38 -6,0 -11,15 -11,33 -1,27 -2,29 -11,14 -6,-10 -8,-25 -5,-33 3,-8 -1,-14 -8,-14 -9,0 -13,-10 -12,-25 0,-14 4,-25 7,-25 3,0 4,-13 1,-30 -3,-18 0,-30 7,-30 6,0 11,9 11,20 0,11 5,20 10,20 6,0 10,-11 10,-24 0,-14 -4,-28 -10,-31 -13,-8 -13,-45 0,-45 6,0 9,3 8,8 -3,11 25,82 33,82 4,0 14,3 23,6 12,4 16,0 16,-15 0,-12 -4,-21 -10,-21 -5,0 -10,-9 -10,-20 0,-11 5,-20 10,-20 6,0 10,5 10,12 0,6 3,9 6,6 3,-4 1,-15 -5,-26 -16,-30 -4,-54 19,-40 14,9 22,9 33,-1 9,-6 18,-8 21,-3 3,4 -4,15 -15,22 -10,8 -19,20 -19,27 0,7 -5,13 -12,13 -6,0 -4,7 5,18 20,22 22,39 5,44 -14,5 -5,44 22,83 33,50 38,59 54,93 13,29 13,33 1,28 -18,-7 -20,8 -2,26 48,51 90,133 57,113 -5,-3 -10,-1 -10,4 0,6 5,11 10,11 6,0 10,7 10,15 0,8 11,30 24,49 13,20 22,46 21,60 -4,35 11,42 19,11 6,-23 8,-24 22,-10 21,20 45,20 37,-1 -4,-12 -2,-15 8,-12 17,6 13,49 -7,64 -19,15 -18,27 9,56 24,27 43,30 58,7 z" />
    <path
       id="path6"
       d="m 2902,6268 c -7,-7 -12,-21 -12,-32 -1,-12 -7,-32 -15,-46 -19,-34 -18,-59 4,-116 11,-27 22,-62 26,-77 3,-15 10,-25 15,-22 6,4 13,-1 16,-9 5,-12 11,-13 24,-6 14,7 23,6 33,-5 13,-13 18,-12 41,6 20,16 26,29 26,61 0,46 -9,44 -25,-5 -9,-29 11.4304,-44.7152 -23.5696,-44.7152 -23,0 -66.4304,17.7152 -69.4304,25.7152 -2,6 4,12 13,12 11,0 15,6 11,18 -4,12 -8.7152,24.9139 11.2848,46.9139 16,18 42.7152,42.0861 42.7152,46.0861 0,14 -24,23 -28,10 -2,-7 -15,-16 -27,-21 -36.6278,-40.8688 -9.7412,-125.133 -52.543,-40.8873 -18,36 -30.7152,30.8278 -14.7152,94.8278 16,67 27.2582,127.0595 4.2582,104.0595 z" />
  </g>
</svg>
